<svg width="52" height="47" viewBox="0 0 52 47" fill="none" xmlns="http://www.w3.org/2000/svg">
<g clip-path="url(#clip0_1134_8194)">
<path d="M24.8332 44.9713C25.0119 44.9826 25.1308 44.9963 25.2497 44.9963C25.9079 44.9987 26.5662 44.9971 27.2682 44.9971C27.2779 44.7921 27.2916 44.6242 27.2916 44.457C27.2924 38.294 27.2924 32.1317 27.2924 25.9686C27.2924 24.5486 27.9701 23.8744 29.395 23.8736C31.0261 23.8727 32.6572 23.8711 34.2876 23.8744C35.5467 23.8768 36.2607 24.5912 36.2616 25.8513C36.2632 32.0409 36.2624 38.2305 36.2624 44.4201C36.2624 44.592 36.2624 44.764 36.2624 44.9914C37.05 44.9914 37.8005 44.9963 38.551 44.9818C38.6116 44.981 38.7014 44.8524 38.7208 44.7704C38.7499 44.6427 38.7313 44.5044 38.7313 44.3702C38.7313 36.4126 38.7305 28.4543 38.7361 20.4967C38.7361 20.1792 38.7564 19.8457 38.8534 19.5476C39.0992 18.7914 39.7519 18.3855 40.6875 18.3807C42.372 18.3719 44.0573 18.3783 45.7418 18.3791C45.8493 18.3791 45.9577 18.3863 46.0645 18.3968C46.971 18.4828 47.6746 19.1546 47.6826 20.0539C47.7069 22.6392 47.6972 25.2253 47.6891 27.8106C47.6875 28.2871 47.3737 28.5845 46.9395 28.5877C46.4842 28.5909 46.1825 28.2879 46.1817 27.7832C46.1761 25.3587 46.1785 22.9333 46.1777 20.5087C46.1777 19.9181 46.1591 19.898 45.5639 19.898C43.9732 19.8972 42.3825 19.8964 40.7926 19.8988C40.3026 19.8996 40.2516 19.947 40.2516 20.4227C40.25 28.4744 40.2524 36.526 40.2435 44.5776C40.2435 44.9191 40.3559 45.0067 40.6835 45.0043C42.368 44.9906 44.0533 44.9874 45.7377 45.0059C46.1008 45.0099 46.1858 44.8966 46.185 44.5494C46.1736 40.2492 46.1777 35.9481 46.1777 31.6479C46.1777 31.4607 46.1769 31.2726 46.1777 31.0854C46.1809 30.4625 46.4623 30.1049 46.9427 30.113C47.4214 30.121 47.694 30.4754 47.694 31.1071C47.6956 34.0009 47.6948 36.8948 47.6948 39.7887C47.6948 41.3558 47.6948 42.9237 47.6948 44.4908C47.6948 44.6362 47.6948 44.7817 47.6948 44.9713C47.8678 44.9818 48.0102 44.9963 48.1525 44.9971C49.1496 45.0003 50.1475 44.9971 51.1446 45.0027C51.5215 45.0051 51.798 45.1867 51.9113 45.5443C52.0148 45.8706 51.9056 46.1607 51.6218 46.3552C51.5061 46.434 51.3525 46.4741 51.2109 46.4966C51.0532 46.5216 50.8883 46.5087 50.7265 46.5087C34.2827 46.5087 17.8381 46.5087 1.39422 46.5079C1.2058 46.5079 1.01495 46.5127 0.829757 46.4878C0.45857 46.438 0.192512 46.1374 0.181999 45.7806C0.170677 45.4037 0.428648 45.0646 0.820053 45.0284C1.2616 44.9882 1.70799 45.0019 2.15277 44.9995C2.8911 44.9963 3.62943 44.9987 4.42922 44.9987C4.42922 44.8018 4.42922 44.6459 4.42922 44.4908C4.42922 41.9457 4.4276 39.3998 4.43003 36.8546C4.43084 35.5769 5.11661 34.8801 6.3919 34.8745C8.0764 34.8665 9.7617 34.8657 11.4462 34.8753C12.6924 34.8825 13.3903 35.5889 13.3919 36.8346C13.3959 39.3933 13.4008 41.9521 13.3854 44.5109C13.383 44.891 13.4736 45.0356 13.8747 45.0075C14.3712 44.973 14.8726 44.9762 15.3699 45.0067C15.7508 45.03 15.881 44.9255 15.8721 44.5245C15.8455 43.3062 15.8584 42.0863 15.8649 40.8672C15.8673 40.3866 16.1131 40.0788 16.507 40.0258C17.01 39.9583 17.3763 40.2805 17.3811 40.8318C17.3925 42.0373 17.3852 43.2435 17.386 44.449C17.386 44.9971 17.3868 44.9979 17.9302 44.9979C19.5476 44.9987 21.165 44.9987 22.7824 44.9971C22.9409 44.9971 23.0986 44.9842 23.3072 44.9754C23.3072 44.7986 23.3072 44.6547 23.3072 44.5117C23.3072 40.1712 23.3072 35.8308 23.3072 31.4904C23.3072 30.9062 23.2878 30.8885 22.6869 30.8877C21.0963 30.8877 19.5056 30.8869 17.9157 30.8877C17.4297 30.8877 17.3876 30.9287 17.3868 31.4173C17.3844 33.4135 17.386 35.4097 17.3852 37.4059C17.3852 37.553 17.3909 37.7025 17.369 37.8471C17.3132 38.2144 17.0083 38.4941 16.6501 38.49C16.2724 38.486 16.008 38.2972 15.9029 37.9307C15.8632 37.7925 15.8649 37.6398 15.8641 37.4935C15.8616 35.4435 15.8608 33.3942 15.8632 31.3441C15.8649 30.0816 16.5749 29.3728 17.8381 29.3712C19.5226 29.3688 21.2079 29.368 22.8924 29.372C24.0933 29.3744 24.8292 30.1049 24.8308 31.3056C24.834 35.6733 24.8324 40.0403 24.8324 44.408C24.8332 44.5808 24.8332 44.7528 24.8332 44.9713ZM34.7396 44.9649C34.7396 44.8074 34.7396 44.6764 34.7396 44.5454C34.7396 38.3454 34.7396 32.1446 34.7388 25.9445C34.7388 25.4326 34.6846 25.3812 34.1485 25.3804C32.599 25.3788 31.0496 25.3788 29.5001 25.3796C28.841 25.3796 28.8184 25.4029 28.8184 26.0562C28.8184 32.1896 28.8184 38.3229 28.8184 44.4562C28.8184 44.6145 28.8184 44.7737 28.8184 44.9649C30.8021 44.9649 32.747 44.9649 34.7396 44.9649ZM5.94794 40.6928C5.94794 41.9915 5.95683 43.2909 5.94147 44.5896C5.93742 44.9006 6.02233 45.0067 6.34743 45.0043C8.04486 44.9898 9.7431 44.9906 11.4405 45.0035C11.7656 45.0059 11.8845 44.9231 11.8821 44.5792C11.8691 42.0212 11.8699 39.4632 11.8805 36.9053C11.8821 36.5324 11.7656 36.3773 11.3702 36.3813C9.72612 36.3966 8.08287 36.3942 6.43881 36.3829C6.07409 36.3805 5.93742 36.5083 5.94227 36.8763C5.95683 38.1477 5.94794 39.4206 5.94794 40.6928Z" fill="#06A7E2"/>
<path d="M42.026 9.68461C41.751 6.96351 41.4882 4.36134 41.2197 1.70373C38.6109 2.37798 36.0676 3.03615 33.4272 3.71924C33.6092 3.85988 33.707 3.94265 33.813 4.01578C34.2327 4.3075 34.6572 4.59118 35.0737 4.88692C35.5638 5.23489 35.6843 5.60376 35.3414 6.08996C34.4987 7.28255 33.627 8.45586 32.7269 9.60586C32.3072 10.1427 31.8018 10.6152 31.3222 11.1046C30.9268 11.5081 30.4763 11.5482 30.1448 11.2372C29.7987 10.9118 29.8302 10.4537 30.2434 10.0382C31.4476 8.82473 32.5781 7.55097 33.5324 6.13014C33.5914 6.04174 33.6464 5.95013 33.7337 5.81271C33.5219 5.66403 33.3173 5.52018 33.1127 5.37714C32.4835 4.93996 31.856 4.49876 31.2228 4.06802C30.9365 3.87273 30.8079 3.61718 30.8685 3.27885C30.9292 2.93972 31.1419 2.74524 31.4767 2.65844C34.8255 1.79213 38.1726 0.920184 41.5222 0.0554736C42.2217 -0.125344 42.5864 0.149499 42.6608 0.886431C43.0005 4.23115 43.3377 7.57588 43.6838 10.919C43.7251 11.3168 43.7113 11.6728 43.3167 11.8978C42.9204 12.1236 42.6034 11.9468 42.2807 11.7154C41.6572 11.2694 41.0087 10.8579 40.3957 10.3982C40.0746 10.158 39.8983 10.1563 39.6323 10.4987C37.2232 13.5967 34.3774 16.2382 31.1201 18.4394C26.792 21.3638 22.0433 23.3303 16.9696 24.5526C14.2007 25.2197 11.3921 25.6327 8.55203 25.8409C7.26217 25.9357 6.37262 24.952 6.64919 23.7418C6.81012 23.0394 7.32444 22.693 7.97462 22.4672C9.8807 21.8066 11.8038 21.1838 13.6783 20.4421C18.7657 18.4298 23.5055 15.8075 27.7317 12.3157C27.8837 12.1895 28.0584 12.0585 28.2435 12.0103C28.6075 11.9171 28.9115 12.0529 29.0886 12.3945C29.2779 12.7585 29.1768 13.0856 28.8751 13.3291C28.1222 13.9366 27.3702 14.5474 26.5906 15.1204C22.5997 18.0529 18.2401 20.3175 13.6233 22.0967C11.917 22.7541 10.1718 23.311 8.44851 23.9234C8.33206 23.9652 8.24473 24.0889 8.14364 24.1749C8.27546 24.2264 8.41131 24.33 8.53909 24.3204C12.5025 24.0134 16.3882 23.3062 20.1704 22.0694C27.7389 19.595 34.0588 15.3567 38.8826 9.00152C38.9554 8.90509 39.0266 8.80785 39.1026 8.71302C39.4746 8.24932 39.8369 8.18825 40.327 8.51854C40.8599 8.87777 41.3863 9.24503 42.026 9.68461Z" fill="#06A7E2"/>
</g>
<defs>
<clipPath id="clip0_1134_8194">
<rect width="51.7689" height="46.5111" fill="white"/>
</clipPath>
</defs>
</svg>
