<svg width="67" height="75" viewBox="0 0 67 75" fill="none" xmlns="http://www.w3.org/2000/svg">
<g clip-path="url(#clip0_1076_5169)">
<path d="M59.7912 67.5528C59.7912 67.9233 59.7912 68.3363 59.7912 68.7485C59.7912 70.1964 59.7968 71.6434 59.7865 73.0913C59.7828 73.6864 59.407 74.1493 58.8989 74.2399C58.3852 74.3314 57.8453 74.0375 57.6775 73.5376C57.6113 73.3399 57.6076 73.1144 57.6076 72.901C57.6029 70.6529 57.6048 68.4038 57.6048 66.1557C57.6048 61.0431 57.6038 55.9305 57.6076 50.817C57.6076 50.5887 57.6085 50.3476 57.6775 50.1341C57.8304 49.6638 58.3255 49.3755 58.8103 49.4282C59.3138 49.4836 59.7157 49.8809 59.7781 50.4039C59.7996 50.5869 59.7902 50.7726 59.7902 50.9574C59.7912 55.2698 59.7884 59.5813 59.7968 63.8937C59.7977 64.1792 59.8313 64.485 59.9394 64.7447C60.1548 65.2631 60.7338 65.531 61.2839 65.4322C61.8284 65.3342 62.2415 64.875 62.2909 64.3095C62.3002 64.2023 62.3021 64.0942 62.3021 63.9861C62.3021 58.5649 62.3086 53.1446 62.2983 47.7234C62.2946 45.6905 61.0918 44.0606 59.1982 43.5524C58.3768 43.3315 57.5115 43.2733 56.6882 43.0589C55.7111 42.8048 55.0072 42.888 54.1792 43.6882C52.5056 45.3052 49.688 44.9689 48.2092 43.1652C47.9603 42.8621 47.7477 42.8048 47.3841 42.8815C46.5226 43.0635 45.6508 43.1948 44.6998 43.3611C44.8583 43.5782 44.9627 43.7205 45.0653 43.8647C45.8466 44.9642 46.2811 46.1775 46.282 47.5302C46.2848 50.7643 46.2904 53.9984 46.2857 57.2324C46.2848 57.8829 46.0116 58.2581 45.4997 58.3921C45.0186 58.5187 44.5021 58.3523 44.296 57.9264C44.1674 57.6612 44.1105 57.3378 44.1096 57.0402C44.0965 53.9448 44.104 50.8493 44.0993 47.7539C44.0965 45.891 43.249 44.5216 41.5399 43.763C40.8873 43.4729 40.1395 43.3823 39.4281 43.2354C38.7149 43.0876 37.9895 42.9933 37.2743 42.8501C36.9974 42.7947 36.8231 42.8399 36.6375 43.0709C34.8856 45.247 31.6987 45.2451 29.9188 43.0922C29.8079 42.9582 29.5561 42.8362 29.3948 42.8621C28.2303 43.0441 27.0686 43.2502 25.9124 43.4794C23.9041 43.8776 22.5204 45.49 22.4766 47.5164C22.4431 49.0715 22.4654 50.6266 22.4654 52.1827C22.4645 56.0635 22.4636 59.9444 22.4692 63.8253C22.4692 64.0997 22.472 64.3889 22.5549 64.6458C22.7293 65.1873 23.3074 65.5098 23.8817 65.4395C24.4383 65.3721 24.912 64.8962 24.9689 64.3335C24.9875 64.1505 24.98 63.9639 24.98 63.78C24.981 59.499 24.98 55.2171 24.981 50.9362C24.981 50.7671 24.9735 50.5961 24.9884 50.428C25.0416 49.856 25.5106 49.4263 26.0737 49.4245C26.6378 49.4217 27.1068 49.8505 27.1609 50.4233C27.1721 50.5453 27.1683 50.6691 27.1683 50.7929C27.1683 58.1546 27.1683 65.5153 27.1683 72.877C27.1683 72.9389 27.1693 72.9999 27.1674 73.0618C27.1506 73.7686 26.7115 74.2491 26.0802 74.251C25.4509 74.2528 24.9875 73.7668 24.9838 73.0701C24.9763 71.3764 24.981 69.6817 24.98 67.988C24.98 67.8226 24.98 67.6581 24.98 67.4678C24.4365 67.5361 23.9498 67.5962 23.3997 67.6655C23.3903 67.8152 23.3698 67.9908 23.3689 68.1672C23.3661 69.7843 23.3708 71.4013 23.3652 73.0183C23.3624 73.6966 22.9726 74.1844 22.4086 74.2464C21.713 74.323 21.1853 73.8278 21.1816 73.0673C21.1741 71.1574 21.1685 69.2483 21.1853 67.3384C21.189 66.8487 21.0697 66.4467 20.8226 66.006C20.5326 65.4885 20.3079 64.8565 20.3042 64.2725C20.2678 58.6822 20.2818 53.0919 20.2855 47.5025C20.2865 46.0805 20.7694 44.8219 21.631 43.6965C21.6944 43.6133 21.7475 43.5228 21.8501 43.3675C21.0426 43.2169 20.2855 43.0746 19.5275 42.9342C19.3746 42.9055 19.217 42.8981 19.0697 42.8529C18.7947 42.7697 18.6185 42.8473 18.4338 43.0756C16.6605 45.2655 13.4951 45.2451 11.6863 43.058C11.5856 42.936 11.345 42.8362 11.1921 42.8612C10.0126 43.0506 8.83598 43.2622 7.66306 43.4886C5.75448 43.8573 4.32982 45.4993 4.27667 47.424C4.24217 48.6548 4.27574 49.8883 4.25802 51.12C4.2459 51.9895 3.56061 52.5338 2.81657 52.2788C2.4054 52.1374 2.09025 51.8454 2.09678 51.4037C2.12289 49.6684 2.03058 47.9119 2.273 46.2034C2.61518 43.7935 4.84915 41.7672 7.28824 41.3384C8.41921 41.1397 9.54832 40.9309 10.6812 40.7387C10.9776 40.6888 11.1017 40.5687 11.1753 40.2518C11.3525 39.4885 11.2098 38.9193 10.6364 38.3159C9.48119 37.1018 8.92456 35.5762 8.81547 33.9185C8.74834 32.8966 8.65976 31.8478 8.81081 30.8453C9.20893 28.2017 11.6601 25.9923 14.3016 25.7484C17.2945 25.4712 19.9956 27.0494 21.0277 29.6708C21.3951 30.6041 21.5442 31.5669 21.4799 32.5658C21.3606 34.4425 21.0986 36.2776 19.9135 37.8419C19.6991 38.1247 19.4604 38.3889 19.2394 38.6661C19.108 38.8306 18.8823 39.0043 18.8833 39.1744C18.8842 39.6317 18.9513 40.0965 19.0669 40.5391C19.0949 40.6472 19.4035 40.7101 19.5928 40.747C20.8412 40.9919 22.1307 41.1083 23.3279 41.5001C24.2034 41.7866 24.8971 41.4336 25.6644 41.3088C26.7208 41.1379 27.7706 40.9217 28.827 40.7507C29.1906 40.6916 29.2997 40.5336 29.3902 40.1723C29.5832 39.3998 29.3557 38.8685 28.8214 38.2901C27.6849 37.0593 27.1217 35.543 27.0201 33.8825C26.9585 32.8901 26.8448 31.8682 27.007 30.9016C27.5254 27.8025 30.2638 25.6458 33.4218 25.7207C37.2604 25.8112 40.0547 29.0388 39.6677 32.9252C39.5195 34.4166 39.3619 35.908 38.5274 37.2108C38.1806 37.7532 37.775 38.2651 37.3508 38.7512C37.1363 38.996 37.0515 39.2169 37.0916 39.5347C37.2277 40.5973 37.2156 40.6103 38.2496 40.8237C39.3433 41.0492 40.4854 41.1296 41.525 41.4973C42.3987 41.806 43.0942 41.4345 43.8616 41.3098C44.9179 41.1379 45.9678 40.9244 47.0251 40.7507C47.3803 40.6925 47.509 40.5539 47.5948 40.1797C47.771 39.4137 47.5715 38.8787 47.0316 38.2965C45.8932 37.0694 45.3245 35.5541 45.2266 33.8927C45.1669 32.8855 45.0522 31.8478 45.2182 30.8665C45.7366 27.8117 48.4433 25.6745 51.5676 25.7188C55.4361 25.7743 58.3068 29.0748 57.8658 32.9603C57.725 34.1985 57.6682 35.4644 57.0463 36.5825C56.6454 37.3041 56.1838 38.0082 55.6468 38.6347C55.3326 39.0006 55.2496 39.3194 55.3223 39.7528C55.4687 40.626 55.4612 40.6223 56.3498 40.8025C57.6411 41.0649 58.9632 41.2331 60.2126 41.6258C62.6592 42.3936 64.3897 44.7101 64.4652 47.254C64.5304 49.454 64.4931 51.6578 64.495 53.8598C64.4978 57.2629 64.5025 60.667 64.4913 64.0702C64.4857 65.8609 63.4713 67.1795 61.7501 67.5352C61.1515 67.6572 60.5017 67.5528 59.7912 67.5528ZM47.2657 32.4152C47.3067 32.8227 47.343 33.4685 47.44 34.1061C47.7216 35.9606 48.7034 37.3476 50.3528 38.2633C51.1182 38.6883 51.894 38.6745 52.6594 38.2485C53.7932 37.6183 54.6305 36.7239 55.1433 35.5347C55.6058 34.4637 55.6692 33.3198 55.7055 32.1879C55.7829 29.779 53.8762 27.8755 51.466 27.881C49.0745 27.8884 47.2228 29.7799 47.2657 32.4152ZM19.3308 32.0372C19.287 31.76 19.2543 31.3276 19.1452 30.9155C18.6679 29.0952 16.9318 27.8431 14.9729 27.8829C13.0811 27.9208 11.4215 29.256 10.9721 31.0338C10.7175 32.0419 10.9012 33.0306 11.0243 34.0128C11.2704 35.98 12.3109 37.4381 14.1058 38.3409C14.7426 38.6615 15.3896 38.6551 16.032 38.3474C17.0539 37.8586 17.8362 37.1166 18.4199 36.1556C19.1648 34.9303 19.19 33.5517 19.3308 32.0372ZM29.0583 32.369C29.0965 32.7654 29.1366 33.3651 29.2158 33.9583C29.4825 35.944 30.5016 37.4169 32.3085 38.3354C32.9602 38.6671 33.6213 38.6551 34.2768 38.3326C35.2921 37.8336 36.0744 37.0935 36.6478 36.1233C37.376 34.8915 37.4617 33.5175 37.4981 32.1528C37.5615 29.7614 35.6651 27.8792 33.2735 27.8819C30.881 27.8847 29.0228 29.7725 29.0583 32.369ZM13.4 40.431C13.1575 41.4641 13.2741 41.7949 13.9846 42.2227C14.737 42.6764 15.7477 42.6071 16.4143 42.0564C16.9588 41.6064 17.0362 41.2257 16.7192 40.4356C15.6293 40.8413 14.5235 40.832 13.4 40.431ZM53.1713 40.4162C52.0432 40.8598 50.9243 40.8228 49.8222 40.4366C49.5556 41.3421 49.6395 41.6711 50.2157 42.1072C50.8907 42.6182 51.8912 42.6588 52.6128 42.2061C53.2897 41.7792 53.3932 41.4779 53.1713 40.4162ZM31.6102 40.4236C31.3603 41.441 31.4703 41.7745 32.1491 42.2005C32.8801 42.6597 33.8786 42.6209 34.5546 42.1072C35.1355 41.6646 35.2259 41.3014 34.9378 40.443C33.8441 40.8274 32.7355 40.8459 31.6102 40.4236Z" fill="#06A7E2"/>
<path d="M15.3831 21.4176C16.0572 20.8558 16.7313 20.294 17.4045 19.7313C18.1998 19.066 19.0007 18.4071 19.7858 17.7308C20.2799 17.3048 20.8393 17.1135 21.4911 17.1154C24.2565 17.1228 27.0229 17.1209 29.7883 17.1172C30.7076 17.1163 31.3556 17.497 31.723 18.3535C32.1229 19.2868 32.5537 20.208 32.9723 21.1339C33.0348 21.2716 33.1029 21.4056 33.2138 21.6347C33.3537 21.3612 33.4609 21.1699 33.5513 20.9713C33.9495 20.087 34.3439 19.2009 34.7364 18.3138C35.0935 17.5044 35.7228 17.1191 36.6058 17.1191C39.4495 17.12 42.2924 17.1218 45.1361 17.1172C45.7552 17.1163 46.2848 17.3131 46.7566 17.7104C48.1169 18.8571 49.4856 19.9946 50.8516 21.1348C50.9662 21.2309 51.0865 21.3206 51.2804 21.4721C51.3037 21.2614 51.3289 21.1348 51.3299 21.0082C51.3345 20.4233 51.328 19.8375 51.3336 19.2526C51.3466 17.9294 52.1457 17.1329 53.4892 17.1218C54.8412 17.1107 56.1931 17.1191 57.5451 17.1191C59.3632 17.1191 61.1813 17.1218 62.9985 17.1172C63.8209 17.1154 64.0195 16.9149 64.0213 16.1091C64.0232 15.3237 64.0176 14.5383 64.0241 13.7529C64.0297 13.0312 64.4521 12.5646 65.0945 12.5526C65.7528 12.5396 66.2022 13.0201 66.2087 13.7584C66.2152 14.59 66.2133 15.4216 66.2096 16.2533C66.2022 18.0662 65.019 19.2683 63.1822 19.2794C60.1986 19.297 57.2159 19.285 54.2323 19.285C53.5219 19.285 53.5219 19.285 53.5219 19.978C53.5219 20.671 53.5331 21.364 53.5181 22.057C53.5014 22.8591 53.1648 23.4957 52.4142 23.8413C51.6674 24.185 50.9578 24.0603 50.3294 23.5364C48.7845 22.2483 47.2377 20.962 45.7058 19.6592C45.3906 19.3912 45.0718 19.2748 44.6559 19.2776C42.1702 19.2923 39.6836 19.2923 37.1979 19.2776C36.8333 19.2757 36.6366 19.3829 36.4939 19.7211C36.0809 20.6996 35.6305 21.6625 35.2007 22.6336C34.8156 23.5031 34.1798 24.0205 33.1942 24.0113C32.2274 24.0011 31.6157 23.4735 31.2418 22.6234C30.8074 21.6375 30.358 20.6571 29.9291 19.6693C29.8107 19.3958 29.6531 19.2776 29.3351 19.2794C26.8028 19.2923 24.2696 19.2757 21.7372 19.3016C21.4612 19.3044 21.1414 19.4624 20.9205 19.6425C19.3634 20.9158 17.8268 22.2141 16.2838 23.5049C15.6759 24.0131 14.999 24.1822 14.2484 23.8755C13.4596 23.553 13.0839 22.9274 13.0568 22.1051C13.0316 21.3363 13.0279 20.5647 13.0577 19.7959C13.0736 19.3811 12.9291 19.2766 12.5254 19.2785C9.49514 19.2933 6.46586 19.2813 3.43564 19.2877C2.10421 19.2905 1.12801 18.7324 0.59656 17.5136C0.44738 17.1708 0.371857 16.7698 0.369993 16.3956C0.355075 12.0074 0.354142 7.61831 0.363466 3.22923C0.365331 1.58263 1.63523 0.336134 3.28739 0.332438C5.7731 0.326894 8.25975 0.329666 10.7455 0.331514C11.4979 0.332438 11.9948 0.751942 12.0088 1.38859C12.0237 2.05111 11.5259 2.49464 10.7436 2.49649C8.35112 2.50018 5.95771 2.49741 3.56524 2.49926C2.7662 2.50018 2.54522 2.71917 2.54522 3.51291C2.54429 7.71718 2.54429 11.9205 2.54522 16.1248C2.54522 16.9056 2.74941 17.1154 3.5354 17.1163C6.70548 17.12 9.87462 17.1144 13.0447 17.1209C14.2158 17.1228 15.108 17.8121 15.2078 18.8063C15.2572 19.2951 15.2302 19.7904 15.2339 20.2838C15.2367 20.647 15.2348 21.0092 15.2348 21.3723C15.2852 21.3871 15.3337 21.4019 15.3831 21.4176Z" fill="#06A7E2"/>
<path d="M39.775 0.330558C47.5426 0.330558 55.3093 0.355507 63.0769 0.311154C64.8055 0.30099 66.2861 1.63157 66.2208 3.44357C66.1612 5.08832 66.2106 6.73769 66.2069 8.38522C66.205 9.16047 65.7584 9.65759 65.0945 9.64373C64.44 9.62987 64.0242 9.15215 64.0223 8.39353C64.0186 6.82363 64.0214 5.2528 64.0204 3.68289C64.0204 2.66093 63.8591 2.49923 62.8447 2.49923C47.4186 2.49923 31.9934 2.49923 16.5672 2.4983C16.35 2.4983 16.1309 2.50939 15.9155 2.48629C15.3374 2.42531 14.9188 1.94944 14.9309 1.38948C14.944 0.814743 15.4083 0.342571 16.0069 0.337027C17.1873 0.325014 18.3677 0.332406 19.549 0.332406C26.291 0.330558 33.033 0.330558 39.775 0.330558Z" fill="#06A7E2"/>
<path d="M43.1736 67.6664C42.6197 67.5953 42.133 67.5334 41.5848 67.4632C41.5848 67.6489 41.5848 67.8134 41.5848 67.9778C41.5839 69.6873 41.5895 71.3958 41.5801 73.1052C41.5773 73.691 41.1895 74.1586 40.6804 74.2408C40.1583 74.3249 39.6399 74.0302 39.4683 73.5238C39.4105 73.3538 39.4003 73.1616 39.3993 72.9795C39.3965 65.5421 39.3956 58.1047 39.3975 50.6682C39.3975 49.917 39.8273 49.431 40.4753 49.4245C41.1401 49.418 41.582 49.9152 41.582 50.6913C41.5848 55.1414 41.5829 59.5915 41.5848 64.0415C41.5857 64.8279 42.0351 65.3767 42.712 65.4423C43.4244 65.5107 44.0369 65.021 44.0798 64.3012C44.1162 63.7024 44.0808 63.1 44.1041 62.5003C44.1358 61.6788 44.7605 61.1937 45.5092 61.3942C45.9017 61.4996 46.2308 61.7629 46.2327 62.1501C46.2383 63.1896 46.1768 64.231 46.104 65.2695C46.0882 65.4996 45.9586 65.7574 45.8019 65.9339C45.3982 66.3913 45.3721 66.9134 45.3777 67.4789C45.3973 69.3574 45.388 71.2359 45.3805 73.1145C45.3786 73.6476 45.0682 74.0754 44.6188 74.2196C44.2178 74.348 43.6985 74.214 43.4626 73.8333C43.3088 73.5866 43.2109 73.2651 43.2071 72.9749C43.1829 71.3431 43.1959 69.7104 43.1941 68.0786C43.1969 67.9437 43.182 67.8078 43.1736 67.6664Z" fill="#06A7E2"/>
<path d="M6.7749 67.5898C5.98239 67.5528 5.2598 67.6193 4.58662 67.4678C3.16289 67.1462 2.11676 65.8794 2.09345 64.4343C2.0487 61.726 2.06828 59.0158 2.07947 56.3066C2.08226 55.6866 2.54938 55.2412 3.12839 55.2227C3.6701 55.2052 4.15214 55.6238 4.24351 56.205C4.26961 56.3713 4.26216 56.5422 4.26216 56.7113C4.26309 59.1433 4.26775 61.5763 4.25936 64.0083C4.25749 64.4999 4.36845 64.9249 4.79174 65.2206C5.57121 65.7658 6.65463 65.2807 6.76092 64.3372C6.7833 64.1395 6.77397 63.9371 6.77397 63.7375C6.7749 59.4113 6.77677 55.086 6.77211 50.7597C6.77118 50.2303 6.89238 49.7821 7.41545 49.5345C8.08023 49.2203 8.86156 49.6454 8.9492 50.3716C8.96412 50.4936 8.96039 50.6174 8.96039 50.7403C8.96039 58.1454 8.95946 65.5495 8.96505 72.9546C8.96505 73.3972 8.87461 73.7798 8.497 74.0496C8.1688 74.2843 7.81357 74.3323 7.44435 74.1595C6.99122 73.947 6.7777 73.5774 6.77677 73.0868C6.77491 71.393 6.7749 69.7002 6.7749 68.0065C6.7749 67.8393 6.7749 67.6739 6.7749 67.5898Z" fill="#06A7E2"/>
<path d="M33.4423 14.7184C31.5291 14.6907 29.9133 14.2176 28.4448 13.2677C27.849 12.8824 27.6812 12.2495 28.0224 11.7172C28.3627 11.1878 29.0014 11.0612 29.6149 11.4437C31.0368 12.3308 32.5677 12.6985 34.2385 12.4648C35.1746 12.3336 36.0287 11.9926 36.8399 11.5158C37.0963 11.3652 37.4086 11.2497 37.7023 11.2349C38.1489 11.2118 38.5517 11.5676 38.6655 11.9732C38.8007 12.4546 38.6552 12.8972 38.2272 13.191C37.0981 13.9663 35.8469 14.4422 34.4866 14.6251C34.0875 14.6787 33.6828 14.6981 33.4423 14.7184Z" fill="#06A7E2"/>
<path d="M51.4437 14.7184C49.7094 14.6833 48.1085 14.213 46.6531 13.2714C46.0583 12.8861 45.8848 12.2559 46.2224 11.7237C46.5599 11.1905 47.1939 11.0676 47.813 11.44C50.2614 12.9138 52.7042 12.9184 55.1536 11.4419C55.7745 11.0676 56.4048 11.1887 56.747 11.7181C57.0892 12.2485 56.9214 12.863 56.3218 13.2686C54.9746 14.1806 53.0865 14.7424 51.4437 14.7184Z" fill="#06A7E2"/>
<path d="M15.0519 14.7166C13.3084 14.6741 11.7346 14.2204 10.3015 13.3056C9.66003 12.8963 9.46609 12.2873 9.80548 11.7385C10.1467 11.185 10.7873 11.0639 11.4315 11.4511C13.866 12.9138 16.2957 12.9129 18.7302 11.4502C19.3707 11.0649 20.0196 11.1896 20.3534 11.7431C20.6788 12.2827 20.4998 12.8898 19.8928 13.2844C18.4094 14.249 16.774 14.7046 15.0519 14.7166Z" fill="#06A7E2"/>
<path d="M32.1879 68.827C32.1879 67.4419 32.1729 66.0559 32.1935 64.6708C32.2065 63.7671 32.9319 63.2136 33.6666 63.5703C33.9463 63.7061 34.1402 64.0508 34.323 64.3326C34.405 64.4583 34.3771 64.6616 34.3771 64.8297C34.3799 67.5085 34.3799 70.1872 34.3771 72.865C34.3771 73.0489 34.3631 73.2355 34.3249 73.4148C34.2167 73.9202 33.7673 74.2612 33.248 74.2492C32.7585 74.2381 32.3324 73.8879 32.2354 73.3935C32.1972 73.1985 32.1879 72.9962 32.1879 72.7975C32.1841 71.4734 32.186 70.1502 32.186 68.8261C32.1869 68.827 32.1879 68.827 32.1879 68.827Z" fill="#06A7E2"/>
<path d="M52.5796 68.8935C52.5796 70.2638 52.5871 71.6342 52.5768 73.0045C52.5703 73.7733 52.1479 74.2445 51.4999 74.251C51.0207 74.2556 50.5806 73.947 50.4613 73.4868C50.4044 73.2669 50.3885 73.0304 50.3885 72.8021C50.3839 70.1687 50.3839 67.5361 50.3867 64.9027C50.3876 63.9972 50.7867 63.4723 51.4729 63.4612C52.174 63.4501 52.5787 63.9805 52.5806 64.9212C52.5824 66.2453 52.5815 67.5694 52.5815 68.8935C52.5806 68.8935 52.5796 68.8935 52.5796 68.8935Z" fill="#06A7E2"/>
<path d="M13.9905 68.852C13.9905 67.4355 13.9793 66.0189 13.9961 64.6033C14.0036 63.9898 14.3532 63.5897 14.9033 63.4797C15.3257 63.3947 15.8543 63.6285 16.0268 64.0443C16.135 64.3049 16.1741 64.6107 16.176 64.8963C16.1881 66.8515 16.1825 68.8067 16.1825 70.761C16.1825 71.454 16.1863 72.1461 16.1797 72.8391C16.1779 73.0378 16.1648 73.2411 16.1191 73.4333C15.9979 73.9424 15.5485 74.2676 15.0264 74.2482C14.5406 74.2298 14.1117 73.8694 14.0306 73.3741C13.9887 73.1182 13.9896 72.853 13.9887 72.5924C13.9849 71.3459 13.9868 70.0985 13.9868 68.852C13.9877 68.852 13.9887 68.852 13.9905 68.852Z" fill="#06A7E2"/>
<path d="M28.4583 6.93816C28.4583 6.58518 28.4472 6.23221 28.4611 5.88016C28.4844 5.26014 28.9171 4.81939 29.5007 4.79998C30.09 4.78058 30.5953 5.18622 30.628 5.7933C30.669 6.55839 30.669 7.32809 30.628 8.09318C30.5963 8.6864 30.0508 9.12531 29.4961 9.09204C28.9068 9.05693 28.4854 8.61895 28.4621 7.99708C28.4472 7.64411 28.4583 7.29021 28.4583 6.93816Z" fill="#06A7E2"/>
<path d="M38.1058 6.92626C38.1058 7.29402 38.1198 7.66363 38.1021 8.03046C38.0731 8.64031 37.6182 9.08199 37.0345 9.09216C36.4909 9.1014 35.9706 8.6745 35.9389 8.10254C35.897 7.33745 35.8979 6.56774 35.9343 5.80266C35.9632 5.19835 36.4657 4.78439 37.0522 4.79825C37.6368 4.81211 38.0769 5.25102 38.103 5.86734C38.1188 6.22031 38.1067 6.57421 38.1058 6.92626Z" fill="#06A7E2"/>
<path d="M19.8989 6.96501C19.8989 7.31799 19.911 7.67096 19.8961 8.02301C19.87 8.63749 19.4271 9.07547 18.8388 9.0921C18.2971 9.10689 17.7712 8.68553 17.7376 8.10987C17.6929 7.33 17.6901 6.54459 17.7386 5.76564C17.7768 5.15949 18.298 4.76863 18.8882 4.80004C19.4504 4.83054 19.8709 5.2639 19.8951 5.86081C19.9101 6.22857 19.8979 6.59726 19.8989 6.96501Z" fill="#06A7E2"/>
<path d="M46.6669 6.93177C46.6669 6.5788 46.6567 6.22582 46.6697 5.87377C46.6921 5.25376 47.1238 4.81485 47.7102 4.79914C48.2986 4.78251 48.7993 5.18723 48.8328 5.79893C48.8748 6.56309 48.8757 7.33372 48.83 8.09788C48.7946 8.69387 48.2473 9.12816 47.6935 9.0912C47.1023 9.05239 46.6902 8.61533 46.6688 7.99069C46.6576 7.63772 46.6669 7.28474 46.6669 6.93177Z" fill="#06A7E2"/>
<path d="M10.2566 6.92067C10.2566 6.5677 10.2454 6.21473 10.2585 5.86268C10.2808 5.27223 10.7051 4.83332 11.2673 4.80098C11.8426 4.76864 12.3666 5.13732 12.4057 5.72038C12.4598 6.52889 12.4589 7.34665 12.4067 8.15609C12.3703 8.72805 11.8109 9.13462 11.2729 9.09027C10.6976 9.04314 10.2818 8.61532 10.2594 8.0258C10.2445 7.65712 10.2566 7.28843 10.2566 6.92067Z" fill="#06A7E2"/>
<path d="M56.3096 6.95117C56.3106 7.30415 56.3208 7.65712 56.3078 8.00917C56.2854 8.62087 55.8481 9.0644 55.2607 9.0912C54.7181 9.11615 54.1829 8.69572 54.1521 8.12375C54.1083 7.3291 54.1064 6.52797 54.1568 5.73332C54.1941 5.15211 54.7097 4.77419 55.284 4.79914C55.8472 4.82409 56.2826 5.26022 56.3069 5.84605C56.3208 6.21473 56.3087 6.58342 56.3096 6.95117Z" fill="#06A7E2"/>
</g>
<defs>
<clipPath id="clip0_1076_5169">
<rect width="65.8667" height="73.9556" fill="white" transform="translate(0.355469 0.311096)"/>
</clipPath>
</defs>
</svg>
