<svg width="87" height="88" viewBox="0 0 87 88" fill="none" xmlns="http://www.w3.org/2000/svg">
<path d="M32.3397 81.6797C31.3905 81.6797 30.4413 81.6833 29.4922 81.6785C28.53 81.675 28.1396 81.2776 28.1337 80.3001C28.1301 79.5682 28.1171 78.8363 28.1396 78.1056C28.1491 77.7853 28.0269 77.6584 27.7267 77.5848C26.8072 77.3606 25.8984 77.089 24.9753 76.8802C24.8116 76.8434 24.5173 76.9597 24.4272 77.0985C24.0084 77.7438 23.6477 78.4271 23.2526 79.089C22.8148 79.8209 22.2393 79.9775 21.5002 79.5552C19.819 78.5943 18.1413 77.6275 16.4684 76.6513C15.6628 76.1803 15.5335 75.6358 16.0033 74.8126C16.3652 74.178 16.7235 73.5397 17.1043 72.9158C17.2633 72.656 17.2693 72.4876 17.0272 72.2598C16.3379 71.6086 15.6687 70.936 15.0174 70.2479C14.7884 70.0071 14.6152 70.0202 14.3565 70.1756C13.6968 70.573 13.0277 70.9573 12.3526 71.3274C11.6466 71.7153 11.0866 71.5884 10.682 70.9016C9.65931 69.1649 8.6532 67.4188 7.65894 65.6655C7.30656 65.0451 7.4703 64.4627 8.08488 64.0843C8.7576 63.6691 9.44338 63.2764 10.1375 62.898C10.4353 62.7355 10.4946 62.5742 10.3914 62.2373C10.1244 61.3701 9.89898 60.49 9.69491 59.605C9.61423 59.2539 9.47423 59.1187 9.10286 59.1317C8.33285 59.1602 7.56047 59.1507 6.79045 59.1365C6.03943 59.1234 5.60044 58.6987 5.59688 57.9597C5.5862 55.9431 5.5862 53.9265 5.59688 51.9111C5.60044 51.1839 6.03349 50.7521 6.79401 50.726C7.56403 50.6988 8.33641 50.6988 9.10642 50.7249C9.48134 50.7379 9.61897 50.5873 9.69965 50.2421C9.90847 49.3595 10.1303 48.4769 10.4009 47.6122C10.5124 47.2551 10.3949 47.1163 10.1161 46.9633C9.47541 46.6122 8.84184 46.2456 8.21421 45.872C7.44063 45.4105 7.28639 44.8494 7.72538 44.0819C8.67811 42.4188 9.6344 40.7581 10.6002 39.1033C11.0878 38.2682 11.6336 38.1353 12.4795 38.6169C13.1155 38.9787 13.7562 39.3322 14.3779 39.7154C14.6567 39.8874 14.8192 39.8293 15.0328 39.6063C15.6735 38.9348 16.326 38.2729 17.0035 37.6395C17.2621 37.3975 17.2669 37.2207 17.0901 36.936C16.7045 36.3156 16.3486 35.6762 15.9879 35.0404C15.5394 34.2492 15.6699 33.6881 16.4364 33.2397C18.1259 32.2528 19.8202 31.2765 21.5204 30.3073C22.2417 29.8957 22.7994 30.044 23.2312 30.7534C23.6216 31.3939 24.0001 32.044 24.3536 32.7059C24.5257 33.0262 24.7143 33.1045 25.0655 33.0001C25.9352 32.7415 26.8131 32.5078 27.6959 32.2967C28.0281 32.2172 28.1479 32.0725 28.1384 31.732C28.1171 30.9621 28.123 30.1899 28.1361 29.4188C28.1479 28.6632 28.5489 28.2101 29.2976 28.2018C31.3336 28.178 33.3707 28.1792 35.4067 28.2041C36.1162 28.2124 36.5255 28.662 36.5492 29.3856C36.5741 30.1365 36.5753 30.8886 36.5504 31.6383C36.5362 32.0464 36.6631 32.229 37.0843 32.3156C37.9148 32.4876 38.7383 32.7047 39.5462 32.9621C39.9389 33.0879 40.1537 33.0511 40.3518 32.6703C40.6793 32.0392 41.0483 31.4307 41.4137 30.8198C41.8859 30.0321 42.4175 29.8815 43.197 30.3263C44.8616 31.2765 46.5214 32.2338 48.1777 33.1982C49.0118 33.6834 49.1506 34.2385 48.6713 35.0808C48.3094 35.7166 47.9535 36.3548 47.5703 36.9775C47.4006 37.2539 47.4552 37.4212 47.6794 37.6359C48.3509 38.2777 49.0118 38.9301 49.6466 39.6063C49.8886 39.8625 50.0725 39.8684 50.3549 39.694C50.9944 39.3002 51.6457 38.9265 52.3019 38.5612C53.0244 38.159 53.6082 38.2931 54.021 38.9977C55.0331 40.7178 56.0297 42.4461 57.0145 44.1828C57.3858 44.8376 57.2245 45.4034 56.5755 45.8043C55.9028 46.2195 55.2158 46.6122 54.5241 46.9941C54.2477 47.1472 54.1919 47.318 54.2785 47.6181C54.536 48.509 54.7424 49.4141 55.0189 50.299C55.0734 50.4746 55.3439 50.6893 55.5267 50.7011C56.2753 50.7474 57.0287 50.7094 57.7797 50.7249C58.6696 50.7426 59.0908 51.1602 59.0955 52.0475C59.1062 53.9645 59.105 55.8826 59.0967 57.7996C59.092 58.7343 58.6791 59.1365 57.7548 59.1424C57.0228 59.1471 56.2907 59.159 55.5599 59.1365C55.2206 59.1258 55.0722 59.2432 54.9916 59.5754C54.7744 60.4769 54.5324 61.3725 54.2761 62.2634C54.1907 62.5623 54.2429 62.7355 54.5229 62.8885C55.1826 63.248 55.8292 63.6287 56.4746 64.0143C57.2482 64.4757 57.3989 65.0226 56.9528 65.8043C55.9929 67.4852 55.0272 69.1637 54.0495 70.8363C53.5998 71.605 53.0327 71.7379 52.2485 71.2906C51.6137 70.9288 50.9742 70.5718 50.3525 70.1886C50.0725 70.0154 49.8945 70.0095 49.6501 70.2717C49.0177 70.9502 48.3593 71.6062 47.6806 72.2408C47.4184 72.4852 47.4255 72.6726 47.5952 72.9502C47.9855 73.5919 48.3604 74.242 48.7247 74.8992C49.1233 75.6169 48.9833 76.2017 48.2798 76.6145C46.5582 77.6251 44.8295 78.6216 43.0926 79.605C42.44 79.9739 41.8717 79.8102 41.4707 79.1578C41.0768 78.5184 40.69 77.8731 40.3483 77.2064C40.1501 76.8197 39.9401 76.7924 39.551 76.9158C38.743 77.172 37.9172 77.3749 37.0903 77.5647C36.7047 77.6524 36.5184 77.7936 36.5445 78.2313C36.5848 78.9205 36.5611 79.6145 36.5528 80.3061C36.5421 81.2764 36.1399 81.6785 35.1824 81.6821C34.238 81.6821 33.2888 81.6797 32.3397 81.6797ZM42.8944 32.7213C42.4519 33.4829 42.0592 34.1662 41.6581 34.8447C41.218 35.592 40.7991 35.7154 39.9745 35.4793C38.4582 35.0464 36.9336 34.6418 35.4031 34.2575C34.6592 34.0713 34.3448 33.7605 34.3294 33.0025C34.3151 32.3109 34.3151 31.6181 34.3282 30.9266C34.3341 30.592 34.2463 30.4117 33.8667 30.4165C32.8392 30.4319 31.8105 30.4331 30.783 30.4165C30.4235 30.4105 30.3547 30.579 30.3607 30.8874C30.3737 31.579 30.3713 32.2706 30.3618 32.9633C30.3512 33.7415 30.0296 34.0701 29.2608 34.2599C27.8252 34.6134 26.3884 34.9693 24.9729 35.3975C23.8256 35.7451 23.4934 35.6632 22.8943 34.6252C22.5336 34.0013 22.1646 33.3821 21.7802 32.7284C20.5985 33.4105 19.4951 34.0475 18.3679 34.6988C18.7986 35.4473 19.1842 36.114 19.5663 36.7818C20.0349 37.6015 19.9329 38.0048 19.2578 38.6478C18.1733 39.6822 17.1091 40.7403 16.0769 41.8281C15.3852 42.5576 15.015 42.6501 14.1168 42.1341C13.4548 41.7533 12.7916 41.3773 12.0951 40.9811C11.738 41.5908 11.4153 42.1318 11.1009 42.6774C10.7793 43.235 10.4649 43.796 10.1232 44.3987C10.8197 44.8008 11.4485 45.1673 12.0797 45.5303C13.0538 46.0914 13.1356 46.4342 12.8034 47.5244C12.3834 48.9004 12.0144 50.2931 11.6893 51.6952C11.4663 52.6584 11.2017 52.9467 10.2253 52.9514C9.44219 52.955 8.65913 52.9526 7.85945 52.9526C7.85945 54.318 7.85945 55.5896 7.85945 56.9123C8.70659 56.9123 9.51338 56.9063 10.3202 56.9135C11.1365 56.9218 11.4805 57.2622 11.6692 58.0368C12.0275 59.5113 12.406 60.9822 12.8355 62.4366C13.1297 63.433 13.0336 63.7936 12.107 64.3322C11.4615 64.707 10.8173 65.0819 10.1185 65.4888C10.7888 66.6477 11.4248 67.7497 12.0571 68.8434C12.1817 68.8126 12.2434 68.8102 12.2921 68.7829C12.928 68.4223 13.5616 68.0581 14.1963 67.6963C14.9877 67.2444 15.3887 67.3369 16.0176 67.9882C17.0866 69.0949 18.1745 70.1839 19.2815 71.2527C19.9317 71.8802 20.0266 72.2835 19.5769 73.0736C19.1878 73.7568 18.7962 74.4377 18.3715 75.1791C19.5235 75.8446 20.6258 76.4816 21.7909 77.153C22.2251 76.4045 22.6238 75.7046 23.0343 75.0119C23.4816 74.2586 23.8743 74.1554 24.7214 74.401C26.1796 74.8233 27.6437 75.2266 29.1196 75.5801C30.064 75.8055 30.3583 76.0914 30.3618 77.0641C30.3642 77.8458 30.3618 78.6287 30.3618 79.3998C31.7251 79.3998 32.9982 79.3998 34.3246 79.3998C34.3246 78.5231 34.3139 77.6963 34.3282 76.8695C34.3412 76.121 34.6877 75.7817 35.4031 75.6074C36.8957 75.242 38.3871 74.86 39.8618 74.4282C40.83 74.1447 41.2061 74.2456 41.7186 75.1317C42.1007 75.7924 42.4827 76.4543 42.8885 77.1578C44.0631 76.4781 45.1653 75.8411 46.3079 75.1791C45.876 74.4271 45.4845 73.745 45.0941 73.0617C44.6504 72.2847 44.7572 71.8636 45.405 71.2432C46.5024 70.1934 47.5809 69.121 48.6298 68.0238C49.2847 67.3393 49.675 67.2361 50.4925 67.7011C51.1735 68.089 51.8534 68.4781 52.5914 68.8992C53.2581 67.7438 53.8953 66.6418 54.5633 65.4852C53.8395 65.0665 53.1751 64.6857 52.5131 64.299C51.6671 63.8043 51.5591 63.4188 51.8344 62.4852C52.2425 61.1056 52.6246 59.7165 52.958 58.3168C53.2427 57.121 53.4456 56.9123 54.6641 56.9111C55.3855 56.9099 56.1068 56.9111 56.8638 56.9111C56.8638 55.6549 56.8567 54.5101 56.8674 53.3654C56.8709 53.0012 56.6716 52.9467 56.3762 52.949C55.7046 52.9562 55.0319 52.9562 54.3592 52.949C53.5168 52.9396 53.2142 52.6406 53.0173 51.8364C52.6566 50.3619 52.2734 48.8921 51.8451 47.4366C51.552 46.4414 51.6576 46.0701 52.5747 45.541C53.2214 45.1673 53.868 44.7925 54.5633 44.3892C53.887 43.2207 53.2415 42.1057 52.5866 40.974C51.7893 41.4307 51.0905 41.8388 50.3834 42.2338C49.7 42.6169 49.2527 42.503 48.7033 41.9372C47.6035 40.8055 46.487 39.6893 45.354 38.592C44.7667 38.0226 44.6599 37.5778 45.0656 36.8625C45.4631 36.1614 45.8665 35.4639 46.3067 34.6988C45.1665 34.0369 44.0619 33.3975 42.8944 32.7213Z" fill="#06A7E2"/>
<path d="M79.6718 30.652C79.4914 30.958 79.3823 31.2688 79.1723 31.4812C77.5065 33.1692 75.83 34.8465 74.1381 36.5096C73.5995 37.0399 73.0134 37.015 72.4569 36.4954C72.1247 36.1858 71.7842 35.8785 71.4935 35.531C71.2004 35.181 70.937 35.219 70.5218 35.34C69.8052 35.5464 69.5987 35.9497 69.683 36.6354C69.728 37.0055 69.7031 37.3862 69.6806 37.7611C69.6438 38.3815 69.2416 38.8216 68.6294 38.8263C66.1782 38.8441 63.7269 38.8441 61.2757 38.8275C60.6445 38.8228 60.2245 38.3684 60.1913 37.7172C60.164 37.2047 60.1509 36.6876 60.1925 36.1763C60.2269 35.7445 60.0181 35.563 59.6562 35.4669C59.2564 35.3601 58.8767 34.9355 58.4507 35.4776C58.1482 35.8631 57.7709 36.1953 57.4055 36.5262C56.8656 37.0149 56.2855 37.0304 55.767 36.5203C54.062 34.8441 52.3678 33.1549 50.6901 31.4515C50.1835 30.9379 50.2096 30.3459 50.7008 29.8133C51.0081 29.4788 51.3332 29.1597 51.6654 28.8501C51.943 28.5915 52.1412 28.3625 51.9039 27.9402C51.663 27.512 51.6464 26.926 50.8966 27.0363C50.4516 27.1016 49.9877 27.0636 49.5345 27.0387C48.8013 26.9984 48.3836 26.614 48.3765 25.8774C48.3552 23.4859 48.354 21.0945 48.3789 18.703C48.386 17.9699 48.806 17.5986 49.5523 17.563C50.0649 17.5381 50.581 17.5322 51.0935 17.5571C51.7745 17.5903 51.6749 16.9782 51.9015 16.6342C52.0961 16.3365 52.0415 16.0968 51.7769 15.856C51.3972 15.5108 51.0342 15.1443 50.6866 14.7671C50.2191 14.2605 50.1894 13.6627 50.6688 13.1763C52.3607 11.4587 54.0668 9.75403 55.7871 8.06364C56.3092 7.55 56.8645 7.57729 57.4197 8.08618C57.8124 8.4468 58.1601 8.85842 58.5682 9.19887C58.7082 9.31631 59.0084 9.37918 59.1697 9.31157C60.4001 8.79555 60.1984 9.16447 60.1747 7.8774C60.1426 6.12652 60.3313 5.6888 62.2949 5.74574C64.3095 5.80386 66.3277 5.75641 68.3446 5.75997C69.2914 5.76116 69.6794 6.14431 69.6948 7.07788C69.6996 7.37444 69.7328 7.67574 69.6889 7.96637C69.5857 8.65914 69.8289 9.05059 70.5254 9.26293C70.9359 9.38867 71.2016 9.42426 71.4959 9.07076C71.7984 8.70777 72.1496 8.38393 72.5008 8.06483C73.0264 7.58559 73.5876 7.55238 74.0895 8.04348C75.8265 9.74454 77.548 11.461 79.2529 13.1941C79.7228 13.6722 79.6979 14.2285 79.2458 14.7386C78.8923 15.1372 78.5114 15.5132 78.1175 15.8726C77.8755 16.0933 77.8292 16.2914 77.9716 16.5927C78.4865 17.6828 78.1317 17.5346 79.4131 17.5524C79.788 17.5571 80.1665 17.5417 80.5379 17.5832C81.1276 17.6484 81.5203 18.0577 81.5226 18.6496C81.5357 21.0802 81.5369 23.512 81.5226 25.9426C81.5191 26.5559 81.1098 26.9735 80.4833 27.0245C79.9921 27.0648 79.4914 27.0826 79.0026 27.0363C78.4865 26.9865 78.2694 27.2166 78.1068 27.6674C77.9502 28.1016 77.7165 28.4693 78.2302 28.8477C78.5921 29.1146 78.9041 29.461 79.1936 29.8086C79.3835 30.0422 79.4985 30.34 79.6718 30.652ZM53.0642 14.0601C53.4344 14.4136 53.8117 14.7611 54.1759 15.1229C54.6066 15.5512 54.6707 16.0399 54.4002 16.5856C54.1807 17.028 53.9612 17.4717 53.7808 17.9296C53.0713 19.7232 53.0761 19.741 51.141 19.7706C50.6794 19.7777 50.5738 19.9509 50.5845 20.3697C50.6083 21.3175 50.5821 22.2665 50.5952 23.2155C50.6023 23.722 50.473 24.3803 50.7352 24.6876C50.9547 24.945 51.6547 24.8003 52.1423 24.8181C52.9029 24.8465 53.209 25.0767 53.4724 25.7635C53.7547 26.499 54.0537 27.2297 54.3741 27.9497C54.6754 28.6283 54.6375 29.0162 54.0953 29.55C53.7453 29.8952 53.362 30.2048 53.082 30.4515C54.3302 31.7196 55.4858 32.894 56.7245 34.1514C57.0507 33.7991 57.4019 33.3993 57.7745 33.0233C58.1826 32.6105 58.6524 32.5594 59.1875 32.7967C59.9623 33.1395 60.7454 33.4657 61.5379 33.7682C62.1288 33.9936 62.4301 34.3827 62.4147 35.0221C62.4028 35.5286 62.4123 36.0363 62.4123 36.5737C64.122 36.5737 65.7522 36.5737 67.4631 36.5737C67.4631 36.0351 67.4524 35.5274 67.4655 35.0209C67.4845 34.321 67.7502 34.009 68.4111 33.7564C69.1657 33.4681 69.9167 33.1621 70.6487 32.8216C71.2265 32.5535 71.7118 32.6128 72.1603 33.0624C72.5305 33.4337 72.9101 33.7943 73.2506 34.1253C74.4608 32.9212 75.6188 31.7706 76.899 30.4978C76.5229 30.1739 76.1243 29.8513 75.7493 29.5049C75.2866 29.0755 75.2225 28.5784 75.4895 27.9984C75.8276 27.2641 76.1337 26.5156 76.4268 25.7623C76.7056 25.047 76.9678 24.8382 77.7497 24.8216C78.2385 24.8121 78.7285 24.8192 79.2541 24.8192C79.2541 23.117 79.2541 21.4895 79.2541 19.8762C79.1901 19.8418 79.1568 19.8074 79.1224 19.8062C78.668 19.7943 78.2148 19.7884 77.7604 19.7789C76.9868 19.7611 76.7032 19.544 76.4304 18.843C76.1361 18.0897 75.8312 17.34 75.4931 16.6069C75.2261 16.0292 75.2807 15.5322 75.7422 15.098C76.1148 14.7481 76.5051 14.4183 76.8314 14.1301C75.5702 12.8584 74.4098 11.6888 73.2364 10.5061C73.2495 10.5002 73.2067 10.5097 73.1795 10.5346C72.8532 10.8513 72.5328 11.174 72.2054 11.4883C71.6537 12.0162 71.3001 12.0565 70.6001 11.7469C69.8787 11.4266 69.1502 11.1241 68.4135 10.8418C67.7206 10.5761 67.4761 10.2712 67.4619 9.52034C67.4524 9.0328 67.4607 8.54407 67.4607 8.03992C65.7427 8.03992 64.0983 8.03992 62.41 8.03992C62.41 8.58084 62.4159 9.07313 62.4088 9.56423C62.3981 10.2783 62.1644 10.5785 61.4893 10.843C60.7371 11.1372 59.9884 11.4456 59.248 11.7683C58.5919 12.0541 58.1945 12.0197 57.6973 11.4966C57.3473 11.1277 57.0567 10.703 56.7517 10.3199C55.4241 11.6686 54.2756 12.8323 53.0642 14.0601Z" fill="#06A7E2"/>
<path d="M76.5395 44.0827C76.6771 43.9534 76.8823 43.7399 77.109 43.5524C77.593 43.1491 78.1886 43.1586 78.611 43.5596C79.0429 43.9688 79.152 44.6355 78.6929 45.0424C78.0451 45.6141 78.153 46.0518 78.5552 46.7209C78.9634 47.3994 79.1769 48.2049 79.4131 48.9747C79.5127 49.301 79.6337 49.4445 79.9719 49.4255C80.1866 49.4136 80.4085 49.4255 80.6197 49.4658C81.1714 49.5738 81.5285 50.0151 81.5238 50.5501C81.5178 51.0839 81.1394 51.6343 80.5983 51.5892C79.5839 51.505 79.4048 52.0827 79.2007 52.8668C79.0251 53.5406 78.6727 54.1835 78.3144 54.7909C78.0949 55.1645 78.0296 55.4113 78.4046 55.6853C78.5291 55.7766 78.6312 55.9071 78.7237 56.034C79.0785 56.518 79.0417 57.0839 78.6371 57.4907C78.2396 57.8917 77.561 58.0056 77.2027 57.5643C76.5928 56.8158 76.1064 57.0518 75.4337 57.4551C74.8191 57.8229 74.1001 58.0518 73.3977 58.2262C72.9184 58.346 72.7487 58.5145 72.7724 59.0103C72.808 59.7754 72.4984 60.2131 71.949 60.333C71.2217 60.4919 70.5502 60.0281 70.5929 59.2559C70.6333 58.5145 70.3319 58.3258 69.6782 58.1444C68.8547 57.9166 68.0764 57.4967 67.3112 57.0957C67.0051 56.9356 66.8212 56.9059 66.6147 57.1799C66.5673 57.2428 66.5044 57.2926 66.4474 57.3472C65.8411 57.9178 65.2076 57.97 64.7235 57.4895C64.2501 57.0186 64.2881 56.3365 64.8825 55.7731C65.2384 55.4362 65.2811 55.206 65.0249 54.7363C64.5776 53.913 64.2584 53.0139 63.9523 52.1242C63.836 51.7885 63.7292 51.6046 63.3614 51.6497C63.2452 51.6639 63.1242 51.6556 63.0067 51.6473C62.3079 51.5975 61.8463 51.1633 61.838 50.5524C61.8285 49.9214 62.3102 49.4053 63.0352 49.4445C63.6877 49.4801 63.8752 49.2298 64.0413 48.6367C64.2667 47.83 64.6238 47.0435 65.0367 46.3116C65.2835 45.8739 65.2942 45.6118 64.8991 45.3294C64.8516 45.295 64.8137 45.2464 64.7745 45.2025C64.3082 44.6829 64.2809 44.0519 64.7033 43.6058C65.1494 43.1361 65.84 43.1005 66.3264 43.6367C66.769 44.1242 67.0822 44.1135 67.6434 43.7826C68.3624 43.3591 69.1834 43.078 69.9914 42.8431C70.4446 42.7114 70.5882 42.543 70.5751 42.0874C70.5526 41.2678 70.8943 40.8111 71.5053 40.728C72.2468 40.6272 72.808 41.1017 72.7677 41.9131C72.7368 42.5299 72.9528 42.7173 73.5377 42.887C74.5284 43.174 75.4669 43.6438 76.5395 44.0827ZM71.6821 44.881C68.5534 44.8775 66.0167 47.3947 66.0025 50.518C65.9883 53.6295 68.5273 56.1823 71.6465 56.193C74.8025 56.2049 77.3652 53.6604 77.3581 50.524C77.3522 47.4077 74.8132 44.8834 71.6821 44.881Z" fill="#06A7E2"/>
<path d="M32.0771 39.0206C40.3502 39.0515 47.0893 44.985 48.1334 52.9091C49.2795 61.6173 42.9593 69.7513 34.2257 70.7169C28.7609 71.3219 24.1634 69.5081 20.432 65.4797C20.3513 65.3931 20.2718 65.3041 20.1994 65.2104C19.8008 64.6944 19.8292 64.0704 20.2682 63.66C20.7238 63.2341 21.3503 63.2875 21.8628 63.7406C22.9235 64.6813 23.9118 65.7418 25.0912 66.5034C33.1639 71.7133 44.2181 66.7999 45.8068 57.3397C47.1024 49.6232 41.9698 42.5343 34.253 41.3824C26.7736 40.2662 19.5931 45.7952 18.7567 53.2875C18.4968 55.6173 18.7899 57.8533 19.6358 60.0325C19.745 60.3148 19.8197 60.6564 19.7675 60.9447C19.675 61.4619 19.293 61.7644 18.7614 61.7916C18.1682 61.8213 17.8146 61.4773 17.6058 60.9506C16.3885 57.8913 16.0646 54.7478 16.8085 51.5331C18.3462 44.8818 23.4752 40.1689 30.2333 39.1701C30.9333 39.0669 31.6487 39.0538 32.0771 39.0206Z" fill="#06A7E2"/>
<path d="M32.3263 66.159C26.5661 66.1115 21.7953 61.7474 21.1938 55.936C20.6183 50.3809 24.5337 45.1306 30.0981 43.9847C31.8767 43.6193 33.6338 43.6976 35.3791 44.1792C36.2072 44.4082 36.5999 44.9538 36.4172 45.6252C36.2393 46.2789 35.6081 46.5481 34.7752 46.3251C29.8051 44.9965 24.8955 47.8672 23.6379 52.8411C22.1026 58.9099 27.4725 64.7936 33.6504 63.7758C37.0947 63.2088 39.5151 61.2681 40.7205 57.9965C41.9295 54.7166 41.2793 51.7023 39.0488 49.0214C38.8981 48.8399 38.7285 48.662 38.6241 48.4544C38.382 47.9764 38.4627 47.5208 38.853 47.1578C39.241 46.796 39.6954 46.7344 40.1605 47.0155C40.31 47.1057 40.4476 47.229 40.5627 47.3619C43.4316 50.662 44.3226 54.4354 42.8894 58.5671C41.4585 62.6893 38.4496 65.14 34.1499 65.9609C33.5519 66.0748 32.935 66.0949 32.3263 66.159Z" fill="#06A7E2"/>
<path d="M64.9375 31.1973C58.6326 31.138 54.3424 24.743 56.7343 18.9281C56.8173 18.7276 56.9039 18.5271 57.0131 18.3397C57.3311 17.7952 57.9018 17.5924 58.4309 17.8225C58.9803 18.0621 59.2021 18.6469 59.0135 19.2614C58.7762 20.0313 58.4499 20.7964 58.368 21.5852C58.0868 24.2899 59.1333 26.4453 61.4208 27.8877C63.6905 29.3195 66.0883 29.3361 68.3818 27.947C70.7226 26.5295 71.7833 24.3527 71.5555 21.6315C71.1865 17.2472 66.4526 14.4571 62.3806 16.1796C62.1623 16.2721 61.9523 16.3824 61.7305 16.4678C61.1218 16.7015 60.5499 16.4844 60.2818 15.9304C60.0279 15.4049 60.1738 14.7525 60.7516 14.5212C61.7708 14.1131 62.8173 13.6635 63.8898 13.5212C68.6013 12.8972 72.9247 16.189 73.7078 20.8949C74.4825 25.5496 71.3562 30.055 66.697 30.9791C66.1192 31.0929 65.5248 31.1261 64.9375 31.1973Z" fill="#06A7E2"/>
<path d="M68.005 50.4891C68.0216 48.482 69.6744 46.8415 71.6807 46.8427C73.7083 46.8427 75.3694 48.5164 75.3599 50.5496C75.3504 52.5817 73.668 54.2495 71.6486 54.2282C69.615 54.208 67.9884 52.5378 68.005 50.4891ZM73.1198 50.5413C73.1234 49.7489 72.4993 49.0977 71.7151 49.0763C70.913 49.0538 70.2427 49.7133 70.2403 50.5271C70.2379 51.3432 70.9 52.0087 71.6996 51.9957C72.4827 51.9814 73.1163 51.3337 73.1198 50.5413Z" fill="#06A7E2"/>
</svg>
