<svg width="89" height="77" viewBox="0 0 89 77" fill="none" xmlns="http://www.w3.org/2000/svg">
<g clip-path="url(#clip0_1076_5118)">
<path d="M23.2755 23.3408C23.2755 12.9228 29.3497 4.03012 37.9142 0.537109C25.4015 0.582869 15.2881 10.7721 15.2881 23.3408C15.2881 35.9096 25.4015 46.0988 37.899 46.1446C29.3497 42.6363 23.2755 33.7589 23.2755 23.3408Z" fill="#06A7E2"/>
<path d="M38.9012 48.0206C28.5297 48.0206 19.6766 41.904 16.1992 33.3164C16.2448 45.8699 26.3885 56.0439 38.9012 56.0439C51.4139 56.0439 61.5577 45.8851 61.6032 33.3164C58.1258 41.9193 49.2728 48.0206 38.9012 48.0206Z" fill="#06A7E2"/>
<path d="M62.9394 32.8132C62.9394 43.2313 56.8653 52.124 48.3008 55.617C60.7983 55.5712 70.9268 45.382 70.9268 32.8132C70.9268 20.2445 60.8135 10.0553 48.3008 10.0095C56.8501 13.5178 62.9394 22.4105 62.9394 32.8132Z" fill="#06A7E2"/>
<path d="M47.2987 8.17901C57.6702 8.17901 66.5232 14.2956 70.0007 22.8832C69.9551 10.3297 59.8113 0.155762 47.2987 0.155762C34.786 0.155762 24.6422 10.3145 24.5967 22.8832C28.0741 14.2956 36.9271 8.17901 47.2987 8.17901Z" fill="#06A7E2"/>
<path d="M31.9004 63.9299C31.9004 64.5706 31.6727 65.1044 31.2171 65.501C30.7616 65.8976 30.139 66.0959 29.3797 66.0959C28.6812 66.0959 28.1041 65.9129 27.6334 65.562C27.1019 65.1654 26.8438 64.6316 26.8438 63.9909C26.8438 63.3503 27.1171 62.8317 27.6486 62.4199C28.1193 62.069 28.7115 61.886 29.4404 61.886C30.306 61.886 31.0197 62.2063 31.5816 62.8469L30.9741 63.152C30.5641 62.7097 30.0327 62.4961 29.3949 62.4961C28.8938 62.4961 28.4686 62.6181 28.1345 62.8622C27.7397 63.152 27.5423 63.5333 27.5423 63.9909C27.5423 64.4333 27.7093 64.7994 28.0434 65.0739C28.3775 65.3485 28.833 65.4858 29.3797 65.4858C30.2604 65.4858 30.8223 65.1502 31.0804 64.4638H29.243V63.8689H31.9004" fill="#06A7E2"/>
<path d="M36.8663 65.9739H33.1611V62.0081H33.8141V65.379H36.8663" fill="#06A7E2"/>
<path d="M42.6061 63.9757C42.6061 64.6316 42.3479 65.1502 41.8012 65.562C41.3305 65.9129 40.7535 66.0959 40.0701 66.0959C39.3716 66.0959 38.7946 65.9129 38.3238 65.562C37.7923 65.1654 37.5342 64.6316 37.5342 63.9909C37.5342 63.3503 37.8075 62.8317 38.339 62.4199C38.8097 62.069 39.3868 61.886 40.0701 61.886C40.7535 61.886 41.3305 62.069 41.8012 62.4199C42.3327 62.8164 42.6061 63.3503 42.6061 63.9757ZM41.9227 63.9757C41.9227 63.5181 41.7253 63.1368 41.3305 62.8469C40.9964 62.6029 40.5712 62.4809 40.0701 62.4809C39.5235 62.4809 39.0679 62.6181 38.7338 62.908C38.3846 63.1978 38.2175 63.5486 38.2175 63.9909C38.2175 64.4333 38.3846 64.7994 38.7186 65.0739C39.0527 65.3485 39.5083 65.4858 40.0701 65.4858C40.632 65.4858 41.0723 65.3485 41.4216 65.0739C41.7557 64.7841 41.9227 64.4333 41.9227 63.9757Z" fill="#06A7E2"/>
<path d="M47.8755 63.93C48.331 64.0825 48.5588 64.4181 48.5588 64.9367C48.5588 65.6384 48.0577 65.9739 47.0555 65.9739H43.9121V62.0081H47.101C47.4958 62.0081 47.8147 62.0996 48.0425 62.2979C48.2703 62.4962 48.3918 62.7555 48.3918 63.091C48.3918 63.4419 48.2095 63.7317 47.8755 63.93ZM47.101 63.6554C47.2832 63.6554 47.4351 63.6097 47.5566 63.5029C47.6781 63.3961 47.7388 63.2741 47.7388 63.1215C47.7388 62.9538 47.6781 62.8317 47.5718 62.7402C47.4655 62.6487 47.3136 62.6029 47.1162 62.6029H44.5347V63.6707H47.101V63.6554ZM47.0555 65.379C47.6021 65.379 47.8755 65.196 47.8755 64.8299C47.8755 64.4486 47.6325 64.2503 47.1618 64.2503H44.5651V65.379H47.0555Z" fill="#06A7E2"/>
<path d="M54.2983 65.9739H53.5845L53.129 65.0892H50.4564L50.0008 65.9739H49.2871L51.3827 62.0081H52.2027M52.7949 64.4943L51.7927 62.5724L50.7753 64.4943H52.7949Z" fill="#06A7E2"/>
<path d="M59.006 65.9739H55.3008V62.0081H55.9537V65.379H59.006" fill="#06A7E2"/>
<path d="M36.5016 60.4369C36.4408 60.742 36.2131 60.9098 35.9094 60.9098C35.469 60.9098 35.2564 60.6047 35.2412 60.1776C35.2412 59.7658 35.5145 59.4607 35.8942 59.4607C36.3801 59.4607 36.532 59.9183 36.5168 60.2539H35.4842C35.4842 60.4979 35.6057 60.7115 35.9094 60.7115C36.0916 60.7115 36.2283 60.62 36.2738 60.4369M36.289 60.0556C36.2738 59.842 36.122 59.659 35.8942 59.659C35.6512 59.659 35.5145 59.842 35.4994 60.0556H36.289Z" fill="#06A7E2"/>
<path d="M37.7918 59.9334C37.7615 59.7656 37.64 59.6589 37.4426 59.6589C37.1085 59.6589 37.0174 59.9182 37.0174 60.208C37.0174 60.4673 37.1389 60.7113 37.4274 60.7113C37.64 60.7113 37.7766 60.5893 37.807 60.3758H38.0348C37.9892 60.7113 37.7766 60.9096 37.4274 60.9096C37.0022 60.9096 36.7744 60.6198 36.7744 60.1927C36.7744 59.7809 36.987 59.4453 37.4274 59.4453C37.7463 59.4453 37.9892 59.5978 38.0196 59.9182" fill="#06A7E2"/>
<path d="M38.9611 59.4607C39.4015 59.4607 39.6293 59.781 39.6293 60.1929C39.6293 60.6047 39.4015 60.925 38.9611 60.925C38.5207 60.925 38.293 60.6047 38.293 60.1929C38.293 59.781 38.5207 59.4607 38.9611 59.4607ZM38.9611 60.7115C39.2041 60.7115 39.3863 60.5284 39.3863 60.1929C39.3863 59.8573 39.1889 59.6742 38.9611 59.6742C38.7182 59.6742 38.5359 59.8573 38.5359 60.1929C38.5359 60.5284 38.7333 60.7115 38.9611 60.7115Z" fill="#06A7E2"/>
<path d="M40.1311 60.4368C40.1463 60.6351 40.3133 60.7113 40.5107 60.7113C40.6474 60.7113 40.8448 60.6808 40.8448 60.4978C40.8448 60.33 40.617 60.2842 40.3893 60.2385C40.1615 60.1927 39.9337 60.1165 39.9337 59.8419C39.9337 59.5673 40.207 59.4453 40.45 59.4453C40.7537 59.4453 40.9967 59.5368 41.0118 59.8877H40.7841C40.7689 59.7046 40.617 59.6589 40.4652 59.6589C40.3285 59.6589 40.1767 59.6894 40.1767 59.8419C40.1767 60.0097 40.4196 60.0249 40.6322 60.0859C40.86 60.1317 41.0878 60.208 41.0878 60.4825C41.0878 60.8181 40.7841 60.9249 40.4955 60.9249C40.1767 60.9249 39.9185 60.8029 39.9033 60.452" fill="#06A7E2"/>
<path d="M41.4219 59.4912H41.6497V59.6742C41.7256 59.5217 41.9078 59.4607 42.09 59.4607C42.5152 59.4607 42.7278 59.7963 42.7278 60.1929C42.7278 60.5894 42.5152 60.925 42.09 60.925C41.9534 60.925 41.7408 60.864 41.6497 60.7115V61.4284H41.4219M42.0597 59.659C41.756 59.659 41.6345 59.9183 41.6345 60.1776C41.6345 60.4522 41.756 60.7115 42.0748 60.7115C42.3786 60.7115 42.4848 60.4369 42.4848 60.1776C42.4848 59.9183 42.3482 59.659 42.0597 59.659Z" fill="#06A7E2"/>
<path d="M44.2614 60.4369C44.2006 60.742 43.9728 60.9098 43.6691 60.9098C43.2288 60.9098 43.0162 60.6047 43.001 60.1776C43.001 59.7658 43.2743 59.4607 43.6539 59.4607C44.1399 59.4607 44.2917 59.9183 44.2765 60.2539H43.2439C43.2288 60.4979 43.3654 60.7115 43.6691 60.7115C43.8514 60.7115 43.988 60.62 44.0336 60.4369M44.0336 60.0556C44.0184 59.842 43.8665 59.659 43.6388 59.659C43.3958 59.659 43.2591 59.842 43.2439 60.0556H44.0336Z" fill="#06A7E2"/>
<path d="M45.536 59.9334C45.5056 59.7656 45.3841 59.6589 45.1867 59.6589C44.8526 59.6589 44.7615 59.9182 44.7615 60.208C44.7615 60.4673 44.883 60.7113 45.1715 60.7113C45.3993 60.7113 45.5208 60.5893 45.5512 60.3758H45.7789C45.7334 60.7113 45.5208 60.9096 45.1715 60.9096C44.7463 60.9096 44.5186 60.6198 44.5186 60.1927C44.5186 59.7809 44.7311 59.4453 45.1715 59.4453C45.4904 59.4453 45.7334 59.5978 45.7637 59.9182" fill="#06A7E2"/>
<path d="M46.3567 59.2472H46.1289V58.9727H46.3567V59.2472ZM46.1289 59.4913H46.3567V60.8793H46.1289V59.4913Z" fill="#06A7E2"/>
<path d="M46.8879 59.6897H46.6602V59.4914H46.8879V59.2778C46.8879 59.049 47.0246 58.927 47.2676 58.927L47.4194 58.9423V59.1406L47.2979 59.1253C47.1916 59.1253 47.1309 59.1558 47.1309 59.2778V59.4761H47.4042V59.6744H47.1157V60.8642H46.8879" fill="#06A7E2"/>
<path d="M47.9211 59.2472H47.6934V58.9727H47.9211V59.2472ZM47.6934 59.4913H47.9211V60.8793H47.6934V59.4913Z" fill="#06A7E2"/>
<path d="M49.5309 60.4369C49.4701 60.742 49.2424 60.9098 48.9387 60.9098C48.4983 60.9098 48.2857 60.6047 48.2705 60.1776C48.2705 59.7658 48.5438 59.4607 48.9235 59.4607C49.4094 59.4607 49.5613 59.9183 49.5461 60.2539H48.5135C48.4983 60.4979 48.635 60.7115 48.9387 60.7115C49.1209 60.7115 49.2576 60.62 49.3031 60.4369M49.3183 60.0556C49.3031 59.842 49.1361 59.659 48.9235 59.659C48.6805 59.659 48.5438 59.842 48.5287 60.0556H49.3183Z" fill="#06A7E2"/>
<path d="M49.8648 59.4912H50.0774V59.781C50.1837 59.5522 50.3355 59.4454 50.5785 59.4607V59.7047C50.2141 59.7047 50.0774 59.9183 50.0774 60.2691V60.8945H49.8496" fill="#06A7E2"/>
<path d="M10.0791 72.243C10.0791 73.4937 9.63875 74.5005 8.74282 75.2631C7.86207 76.0258 6.67762 76.4224 5.20465 76.4224C3.85316 76.4224 2.72945 76.0715 1.83352 75.4004C0.816104 74.6225 0.299805 73.6005 0.299805 72.3497C0.299805 71.1142 0.816104 70.1075 1.8487 69.3143C2.75982 68.6279 3.9139 68.2771 5.31095 68.2771C6.99651 68.2771 8.37837 68.9025 9.45653 70.138L8.27208 70.7329C7.46726 69.8787 6.44984 69.4516 5.20465 69.4516C4.23279 69.4516 3.41279 69.6957 2.75982 70.1685C2.00056 70.7329 1.62092 71.4498 1.62092 72.3497C1.62092 73.2192 1.93981 73.9208 2.60797 74.4547C3.26093 74.9886 4.1265 75.2631 5.20465 75.2631C6.89022 75.2631 7.99874 74.6072 8.49986 73.2802H4.93131V72.1362H10.0791" fill="#06A7E2"/>
<path d="M20.9061 76.2089H19.4332L17.368 73.2803H13.5109V76.2089H12.2354V68.5212H18.2639C19.0687 68.5212 19.7065 68.7348 20.1621 69.1771C20.6176 69.6195 20.8454 70.1991 20.8454 70.9465C20.8454 71.6024 20.6632 72.121 20.2836 72.5176C19.9343 72.8837 19.4635 73.1125 18.8561 73.2193M18.0817 72.1363C19.0687 72.1363 19.5547 71.7397 19.5547 70.9465C19.5547 70.0923 19.0232 69.6652 17.9754 69.6652H13.5109V72.1363H18.0817Z" fill="#06A7E2"/>
<path d="M30.8977 76.2089H22.8799V68.5212H30.6092V69.6652H24.1554V71.6482H28.6351V72.7922H24.1554V75.0649H30.8977" fill="#06A7E2"/>
<path d="M40.8294 76.2089H32.8115V68.5212H40.5256V69.6652H34.0871V71.6482H38.5667V72.7922H34.0871V75.0649H40.8294" fill="#06A7E2"/>
<path d="M51.4291 76.2089H49.8499L44.0035 69.9093V76.2089H42.7432V68.5212H44.3072L50.1536 74.8361V68.5212H51.4291" fill="#06A7E2"/>
<path d="M64.6705 69.6652H61.0109V76.2089H59.7505V69.6652H56.0908V68.5212H64.6705" fill="#06A7E2"/>
<path d="M74.7386 76.2089H73.3567L72.4759 74.4853H67.3129L66.4322 76.2089H65.0352L69.0896 68.5212H70.6841M71.8534 73.3413L69.8944 69.6195L67.9204 73.3413H71.8534Z" fill="#06A7E2"/>
<path d="M85.5498 72.243C85.5498 73.4937 85.1095 74.5005 84.2135 75.2631C83.3176 76.0258 82.1483 76.4224 80.6754 76.4224C79.3239 76.4224 78.2002 76.0715 77.3042 75.4004C76.2868 74.6225 75.7705 73.6005 75.7705 72.3497C75.7705 71.1142 76.2868 70.1075 77.3194 69.3143C78.2305 68.6279 79.3846 68.2771 80.7817 68.2771C82.4672 68.2771 83.8491 68.9025 84.9272 70.138L83.7428 70.7329C82.9531 69.8787 81.9205 69.4516 80.6754 69.4516C79.7035 69.4516 78.8987 69.6957 78.2305 70.1685C77.4713 70.7329 77.0916 71.4498 77.0916 72.3497C77.0916 73.2192 77.4257 73.9208 78.0787 74.4547C78.7316 74.9886 79.5972 75.2631 80.6754 75.2631C82.3609 75.2631 83.4694 74.6072 83.9706 73.2802H80.402V72.1362H85.5498" fill="#06A7E2"/>
<path d="M86.5826 67.8806H87.1444C87.4026 67.8806 87.5392 68.0026 87.5392 68.2009C87.5392 68.4297 87.3874 68.4907 87.3418 68.506C87.4178 68.5213 87.5241 68.567 87.5241 68.7653C87.5241 68.9026 87.5392 69.0246 87.5848 69.0856H87.357C87.3266 69.0399 87.3266 68.9636 87.3266 68.9178C87.3266 68.7043 87.2811 68.5975 87.0837 68.5975H86.78V69.0856H86.5674M86.78 68.4145H87.1292C87.2659 68.4145 87.3266 68.3535 87.3266 68.2314C87.3266 68.0789 87.2355 68.0484 87.1292 68.0484H86.7952L86.78 68.4145Z" fill="#06A7E2"/>
<path d="M85.7773 68.4906C85.7773 69.1923 86.3392 69.7567 87.0377 69.7567C87.7362 69.7567 88.2981 69.1923 88.2981 68.4906C88.2981 67.789 87.7362 67.2246 87.0377 67.2246C86.3392 67.2399 85.7773 67.8042 85.7773 68.4906ZM85.9596 68.5059C85.9596 67.911 86.4455 67.4229 87.0377 67.4229C87.6299 67.4229 88.1159 67.911 88.1159 68.5059C88.1159 69.1008 87.6299 69.5889 87.0377 69.5889C86.4455 69.5736 85.9596 69.1008 85.9596 68.5059Z" fill="#06A7E2"/>
</g>
<defs>
<clipPath id="clip0_1076_5118">
<rect width="88.4" height="76.2667" fill="white" transform="translate(0.299805 0.155762)"/>
</clipPath>
</defs>
</svg>
