<svg width="70" height="70" viewBox="0 0 70 70" fill="none" xmlns="http://www.w3.org/2000/svg">
<circle cx="35" cy="35" r="33" stroke="white" stroke-width="4"/>
<g clip-path="url(#clip0_1131_7011)">
<path d="M29.4157 23.6082C29.4157 23.3928 29.4135 23.2229 29.4157 23.0531C29.4301 21.992 29.9875 21.1508 30.9532 20.7677C31.1313 20.6972 31.1962 20.6111 31.1926 20.4207C31.1825 19.8957 31.1825 19.3707 31.1911 18.8464C31.2106 17.7412 31.9447 17.0074 33.033 17.003C33.7786 17 34.5243 16.9978 35.27 17.0037C36.3005 17.0118 37.0577 17.7802 37.0714 18.8317C37.0786 19.367 37.075 19.903 37.0721 20.4383C37.0714 20.5847 37.0837 20.6825 37.2568 20.7508C38.3183 21.17 38.8238 21.9854 38.8368 23.134C38.8426 23.6781 38.7971 23.6046 39.3178 23.606C40.7724 23.6105 41.8801 24.2458 42.5479 25.5605C43.1984 26.8407 43.0902 28.1179 42.2774 29.2937C42.0294 29.6518 41.663 29.9297 41.3284 30.2187C41.2008 30.329 41.1423 30.4076 41.1712 30.5849C41.7517 34.1982 42.325 37.8122 42.8991 41.4263C43.2921 43.8991 43.6938 46.3697 44.0717 48.8448C44.4063 51.0353 42.7685 52.989 40.595 52.9934C36.2991 53.0022 32.0032 53.0015 27.7072 52.9934C25.732 52.9897 24.1621 51.4287 24.1368 49.4713C24.1325 49.1191 24.2767 48.8764 24.5536 48.7941C24.8147 48.7168 25.0411 48.7941 25.1919 49.0183C25.264 49.1264 25.3094 49.2757 25.3101 49.4073C25.3173 50.6867 26.3356 51.8154 27.8926 51.8029C32.0933 51.7691 36.2955 51.7934 40.4962 51.7897C41.7488 51.7882 42.7152 50.9926 42.8962 49.7772C42.9517 49.4058 42.9034 49.0073 42.8443 48.6308C42.2169 44.6462 41.5765 40.663 40.9419 36.6798C40.6419 34.7989 40.3411 32.9187 40.0534 31.0363C40.0188 30.8113 39.9409 30.7731 39.7318 30.7746C37.8834 30.7907 36.0351 30.7966 34.1868 30.7959C33.7822 30.7959 33.5471 30.5591 33.5464 30.2025C33.5457 29.8341 33.7916 29.601 34.2135 29.6003C35.9464 29.5959 37.6794 29.6069 39.4123 29.5944C40.7897 29.5848 41.8044 28.4863 41.7589 27.0848C41.7178 25.8267 40.7082 24.8237 39.4354 24.8061C38.2173 24.7899 36.9986 24.8017 35.7806 24.8017C33.4801 24.8017 31.1803 24.7943 28.8798 24.8046C27.3661 24.8119 26.2779 26.1112 26.5159 27.5966C26.6947 28.7113 27.6387 29.5635 28.7457 29.5915C29.3234 29.6062 29.901 29.5937 30.4786 29.5981C30.9171 29.6018 31.1832 29.8341 31.1818 30.2018C31.1803 30.5665 30.9157 30.7944 30.4721 30.7974C29.7488 30.8018 29.0248 30.7988 28.2524 30.7988C28.2149 31.0062 28.1673 31.2422 28.1298 31.4797C27.7931 33.593 27.4577 35.707 27.1217 37.8203C27.113 37.8732 27.1015 37.9255 27.0899 37.9777C27.0034 38.3637 26.7221 38.5784 26.394 38.5086C26.0666 38.4387 25.8806 38.1313 25.9404 37.7446C26.0731 36.8887 26.2087 36.0328 26.3443 35.1769C26.583 33.6761 26.8181 32.1753 27.0669 30.6768C27.108 30.4304 27.0452 30.3003 26.8397 30.1562C25.5496 29.2517 25.0145 27.6547 25.4709 26.137C25.9202 24.6428 27.2407 23.6384 28.7962 23.609C28.9822 23.6053 29.1697 23.6082 29.4157 23.6082ZM30.6135 23.6068C30.7779 23.6068 30.9027 23.6068 31.0274 23.6068C32.6421 23.6068 34.2568 23.6068 35.8721 23.6068C36.3755 23.6068 36.8789 23.6134 37.3822 23.6002C37.4724 23.598 37.6303 23.5222 37.6383 23.4634C37.7666 22.4965 37.3274 21.8178 36.4469 21.8075C34.895 21.7898 33.3431 21.7957 31.7911 21.8067C31.1746 21.8112 30.7109 22.2104 30.62 22.8068C30.5825 23.0546 30.6135 23.3127 30.6135 23.6068ZM32.3774 20.5736C33.5702 20.5736 34.7176 20.5736 35.875 20.5736C35.8801 20.4633 35.888 20.3788 35.888 20.2942C35.888 19.7913 35.8981 19.2883 35.8815 18.7861C35.8693 18.4368 35.6407 18.2177 35.2859 18.2125C34.5099 18.2023 33.7332 18.203 32.9572 18.2125C32.6443 18.2162 32.3962 18.4111 32.3846 18.7008C32.3601 19.3177 32.3774 19.9354 32.3774 20.5736Z" fill="white"/>
<path d="M29.4215 39.1998C29.4215 39.0608 29.4301 38.9211 29.42 38.7828C29.3926 38.4233 29.5296 38.1806 29.8455 37.9997C31.127 37.2659 32.402 36.5218 33.672 35.7681C33.99 35.5791 34.2698 35.582 34.5849 35.7681C35.865 36.5254 37.1508 37.2725 38.4388 38.0166C38.7027 38.1696 38.8455 38.3784 38.8347 38.6895C38.7748 40.3586 38.5433 41.9947 37.8842 43.5403C37.5063 44.4271 36.9929 45.2153 36.1917 45.7705C34.6787 46.8183 32.5657 46.5411 31.3534 45.1366C30.4881 44.1337 30.0438 42.9263 29.782 41.6454C29.6176 40.8402 29.5217 40.0211 29.3955 39.2078C29.4049 39.2049 29.4128 39.202 29.4215 39.1998ZM37.6924 39.2637C37.6174 39.1211 37.5784 38.9159 37.4616 38.8453C36.4138 38.2137 35.3551 37.6019 34.2921 36.9975C34.2056 36.9482 34.0426 36.9541 33.9539 37.0049C32.8917 37.61 31.8344 38.2247 30.783 38.8505C30.7008 38.8998 30.6186 39.0571 30.6323 39.1498C30.7707 40.1005 30.8847 41.0579 31.0945 41.9932C31.3095 42.9506 31.7082 43.8403 32.4402 44.5249C33.4188 45.4411 34.9289 45.4337 35.8578 44.4683C36.1967 44.116 36.4816 43.6844 36.7015 43.2432C37.3159 42.0101 37.4962 40.6601 37.6924 39.2637Z" fill="white"/>
<path d="M24.1156 39.2004C26.3779 39.199 28.2342 41.0777 28.2421 43.3785C28.25 45.6947 26.3945 47.5947 24.1221 47.5962C21.8505 47.5977 19.9935 45.7006 20 43.3836C20.0065 41.0762 21.8505 39.2019 24.1156 39.2004ZM24.1041 40.4034C22.4938 40.4078 21.1834 41.7505 21.1827 43.3976C21.182 45.0609 22.4981 46.394 24.1337 46.3874C25.7498 46.3807 27.0558 45.0454 27.0565 43.3983C27.0572 41.7395 25.7346 40.3983 24.1041 40.4034Z" fill="white"/>
<path d="M43.5342 35.0047C43.5306 33.351 44.8604 31.9907 46.4751 31.9959C48.0854 32.001 49.4029 33.3385 49.4138 34.9783C49.4253 36.6298 48.1085 37.9894 46.4837 38.0033C44.8712 38.0166 43.5378 36.6614 43.5342 35.0047ZM48.2332 35.0025C48.2347 34.0121 47.4479 33.2077 46.4751 33.2047C45.5037 33.2018 44.7126 34.004 44.7111 34.9952C44.7097 35.9871 45.4964 36.7923 46.4678 36.7938C47.4385 36.796 48.2318 35.9908 48.2332 35.0025Z" fill="white"/>
<path d="M22.3428 36.7982C21.0375 36.7909 19.9846 35.6997 20.0012 34.371C20.0178 33.0562 21.0829 31.9856 22.3651 31.9952C23.6524 32.004 24.706 33.0827 24.7103 34.3945C24.7146 35.7158 23.6408 36.8056 22.3428 36.7982ZM22.3658 35.5938C23.0062 35.5872 23.5218 35.057 23.524 34.4018C23.5262 33.7371 22.9889 33.1952 22.3384 33.2048C21.6944 33.2151 21.1824 33.7423 21.1824 34.3974C21.1824 35.0673 21.7103 35.6004 22.3658 35.5938Z" fill="white"/>
<path d="M47.6533 22.4038C48.9456 22.406 49.9934 23.473 49.9992 24.7921C50.005 26.1193 48.942 27.2054 47.6396 27.2024C46.3545 27.1995 45.298 26.123 45.2901 24.8097C45.2829 23.4891 46.3509 22.4016 47.6533 22.4038ZM47.662 23.6119C47.0007 23.6053 46.4742 24.134 46.4757 24.8039C46.4771 25.4576 46.9956 25.9929 47.6331 25.9995C48.2865 26.0061 48.8172 25.4686 48.8172 24.8017C48.818 24.1421 48.3095 23.6185 47.662 23.6119Z" fill="white"/>
<path d="M40.5723 49.3411C40.5175 48.9889 40.459 48.6242 40.4042 48.258C40.379 48.0896 40.3429 47.9198 40.3401 47.7507C40.3343 47.458 40.5456 47.2087 40.8182 47.1595C41.1074 47.1073 41.4189 47.272 41.4751 47.5727C41.5905 48.1904 41.7081 48.8124 41.7456 49.4382C41.7831 50.0603 41.2682 50.564 40.6357 50.597C40.2391 50.6176 39.8396 50.6125 39.4422 50.5992C39.0788 50.5867 38.8379 50.3331 38.8379 49.9963C38.8379 49.6448 39.086 49.4073 39.4747 49.3978C39.8093 49.3897 40.1446 49.3911 40.48 49.386C40.498 49.386 40.516 49.3683 40.5723 49.3411Z" fill="white"/>
<path d="M22.3594 43.438C22.3616 43.0865 22.5801 42.827 22.8974 42.8005C23.1988 42.7748 23.4491 42.9807 23.5212 43.3137C23.6387 43.8608 23.6842 43.9079 24.1911 44.002C24.5113 44.0616 24.7255 44.3226 24.7068 44.63C24.6866 44.9616 24.4183 45.1983 24.0628 45.1976C23.1599 45.1969 22.3529 44.3623 22.3594 43.438Z" fill="white"/>
</g>
<defs>
<clipPath id="clip0_1131_7011">
<rect width="30" height="36" fill="white" transform="translate(20 17)"/>
</clipPath>
</defs>
</svg>
