<svg width="70" height="70" viewBox="0 0 70 70" fill="none" xmlns="http://www.w3.org/2000/svg">
<g clip-path="url(#clip0_1131_7001)">
<path d="M17.5691 36.7891C16.9297 36.7499 16.3297 36.7891 15.7732 36.6596C13.7919 36.1888 12.7578 34.1605 13.4446 32.1792C13.5196 31.9674 13.6064 31.7594 13.7169 31.5633C13.9143 31.2102 14.3089 31.0807 14.6444 31.2376C14.9917 31.4024 15.1378 31.8026 14.9562 32.1871C14.7234 32.6775 14.5931 33.1757 14.6721 33.7211C14.8576 35.0275 16.1482 35.6866 17.427 35.2315C17.5177 35.2002 17.5967 35.0079 17.6085 34.8824C17.7506 33.3994 18.1137 31.9791 18.7334 30.6256C20.1977 27.4242 22.5658 25.0545 25.6286 23.3596C26.6113 22.8143 27.677 22.4141 28.715 21.9708C28.9479 21.8727 29.0466 21.806 28.9873 21.5196C28.2217 17.8121 30.6766 14.2772 34.4261 13.6612C38.969 12.9158 42.8922 17.0117 41.937 21.5117C41.8818 21.7707 41.9449 21.8452 42.1778 21.9472C43.2474 22.4023 44.313 22.8731 45.3629 23.3714C45.6037 23.4852 45.7576 23.4812 45.9747 23.34C47.1903 22.5632 48.5204 22.1905 49.9729 22.2611C50.9911 22.3082 51.5713 22.8731 51.6503 23.8893C51.745 25.0702 51.4845 26.204 51.0938 27.2986C50.8806 27.895 50.8846 28.3422 51.2635 28.8993C52.1436 30.1822 52.7159 31.6182 53.0356 33.1443C53.0909 33.4111 53.1895 33.5171 53.4816 33.5053C53.8881 33.4896 54.3026 33.4896 54.6973 33.5641C55.8774 33.7799 56.7338 34.8117 56.7457 36.0084C56.7575 37.3501 56.7536 38.688 56.7457 40.0297C56.7378 41.4657 55.6327 42.5799 54.1881 42.6034C53.4185 42.6152 52.6488 42.6113 51.8792 42.6034C51.674 42.5995 51.5516 42.6662 51.445 42.8428C50.5136 44.4121 49.3137 45.746 47.9126 46.9151C47.7823 47.0211 47.6797 47.2212 47.66 47.3859C47.5021 48.9317 47.3798 50.4814 47.2219 52.0272C47.0719 53.5102 45.7931 54.6637 44.2302 54.7578C42.7619 54.8441 41.3963 53.8162 41.0371 52.345C40.9148 51.8428 40.7964 51.3367 40.6938 50.8306C40.6503 50.6266 40.5911 50.5442 40.3543 50.5991C37.4494 51.2896 34.5288 51.3642 31.5923 50.8149C31.2489 50.7521 30.9055 50.6776 30.5661 50.5952C30.3688 50.5481 30.278 50.5952 30.2346 50.8031C30.1359 51.2975 30.0135 51.7918 29.8991 52.2861C29.5557 53.7927 28.1822 54.852 26.6863 54.7617C25.0602 54.6637 23.8406 53.4984 23.6867 51.8938C23.5525 50.4697 23.4025 49.0494 23.3039 47.6213C23.2762 47.2172 23.1065 46.974 22.8144 46.7268C20.77 45.0045 19.2386 42.9173 18.3308 40.3985C17.9361 39.3118 17.6993 38.1936 17.6006 37.0441C17.5848 36.9382 17.573 36.8362 17.5691 36.7891ZM30.649 24.7289C30.4516 24.4817 30.2661 24.2659 30.1043 24.0384C29.9346 23.799 29.8004 23.5362 29.6228 23.3047C29.5754 23.2419 29.4018 23.2184 29.311 23.2458C26.0193 24.364 23.2131 26.1922 21.2278 29.072C18.5479 32.9599 18.2006 37.0794 20.2766 41.348C21.1686 43.1841 22.4829 44.6946 24.0853 45.9539C24.4406 46.2325 24.6261 46.5385 24.6616 46.9975C24.776 48.559 24.93 50.1166 25.0681 51.6741C25.151 52.6039 25.8141 53.2944 26.6824 53.3454C27.602 53.4004 28.3361 52.8315 28.5414 51.9095C28.715 51.1405 28.8847 50.3716 29.0702 49.6065C29.1965 49.0769 29.5202 48.8925 30.053 49.022C30.1398 49.0416 30.2267 49.0651 30.3174 49.0886C31.8646 49.5084 33.4434 49.736 35.0458 49.7713C37.0074 49.8145 38.9295 49.5634 40.8201 49.0337C41.4239 48.865 41.7357 49.073 41.8739 49.685C42.0436 50.4304 42.2173 51.1758 42.387 51.9213C42.5962 52.8315 43.3145 53.3925 44.2223 53.3454C45.0708 53.3023 45.7694 52.6236 45.8523 51.7251C46.0062 50.1126 46.1483 48.4962 46.2786 46.8798C46.3062 46.5267 46.4404 46.2639 46.7167 46.0481C48.2599 44.8476 49.5347 43.4156 50.4741 41.6971C50.6675 41.3401 50.9438 41.1832 51.3503 41.1871C52.266 41.1989 53.1856 41.195 54.1013 41.191C54.8354 41.1871 55.3209 40.7516 55.3327 40.0337C55.3524 38.7037 55.3524 37.3776 55.3327 36.0476C55.3209 35.3571 54.8472 34.9255 54.1565 34.9098C53.679 34.902 53.2053 34.9098 52.7278 34.9059C52.1278 34.902 51.9029 34.7215 51.8042 34.1409C51.4806 32.2302 50.7543 30.4883 49.6058 28.9268C49.3177 28.5384 49.2782 28.1814 49.4637 27.7341C49.9097 26.6434 50.2018 25.5096 50.2768 24.3326C50.3162 23.7127 50.1978 23.6068 49.5663 23.6264C48.3625 23.6696 47.289 24.0776 46.3259 24.7838C45.8286 25.1487 45.6668 25.1487 45.13 24.823C44.0328 24.16 42.8724 23.6303 41.6528 23.2302C41.5542 23.1988 41.3726 23.2027 41.3292 23.2576C40.9819 23.7363 40.6582 24.2345 40.3228 24.7328C40.8398 24.9172 41.3647 25.0898 41.8778 25.2899C42.3593 25.4782 42.5409 25.8392 42.387 26.2393C42.237 26.6317 41.8423 26.7611 41.3568 26.5885C40.9108 26.4276 40.4648 26.255 40.011 26.1256C36.4982 25.1447 33.0289 25.2624 29.6149 26.5728C29.1058 26.769 28.7032 26.6395 28.5532 26.2433C28.3953 25.8274 28.5848 25.4743 29.09 25.282C29.5912 25.0976 30.1004 24.925 30.649 24.7289ZM35.476 14.9677C35.1524 15.0069 34.8208 15.0148 34.5011 15.0854C32.3777 15.5562 30.9568 16.8195 30.4122 18.9145C29.8714 21.0056 30.5385 22.7751 32.1725 24.1757C32.2869 24.2738 32.5001 24.3287 32.654 24.3051C34.5051 24.0305 36.3522 24.0187 38.2033 24.313C38.4559 24.3522 38.6295 24.2973 38.8151 24.1404C40.4885 22.7476 41.1161 20.4799 40.3859 18.4555C39.6321 16.3761 37.6784 14.9951 35.476 14.9677Z" fill="white"/>
<path d="M47.4935 33.1877C47.4935 32.9406 47.4856 32.6934 47.4975 32.4462C47.5172 32.0421 47.7974 31.7518 48.1724 31.7361C48.5434 31.7204 48.871 31.9911 48.8907 32.3952C48.9183 32.9327 48.9183 33.4741 48.8907 34.0116C48.871 34.4118 48.5434 34.6825 48.1724 34.6708C47.7974 34.6551 47.5172 34.3687 47.4975 33.9646C47.4817 33.7056 47.4935 33.4467 47.4935 33.1877Z" fill="white"/>
<path d="M35.4639 16.498C37.5242 16.498 39.1701 18.1419 39.1661 20.1899C39.1622 22.2339 37.4966 23.8778 35.4442 23.866C33.4076 23.8542 31.7618 22.2104 31.7578 20.186C31.7499 18.1458 33.4076 16.498 35.4639 16.498ZM35.46 17.8869C34.201 17.8869 33.1708 18.9109 33.159 20.1663C33.1511 21.4336 34.1891 22.4732 35.4639 22.4693C36.7309 22.4654 37.7571 21.4493 37.765 20.1938C37.7808 18.9344 36.7309 17.8869 35.46 17.8869Z" fill="white"/>
</g>
<circle cx="35" cy="35" r="33" stroke="white" stroke-width="4"/>
<defs>
<clipPath id="clip0_1131_7001">
<rect width="43.5182" height="41.1868" fill="white" transform="translate(13.2314 13.5752)"/>
</clipPath>
</defs>
</svg>
