<svg width="24" height="33" viewBox="0 0 24 33" fill="none" xmlns="http://www.w3.org/2000/svg">
<path d="M22.8087 20.751C22.8087 27.3604 18.6743 31.5212 12.1065 31.5212C5.53877 31.5212 1.4043 27.3604 1.4043 20.751C1.4043 13.6583 9.07646 4.08335 11.4295 1.31376C11.5132 1.21536 11.6171 1.13637 11.734 1.08221C11.851 1.02804 11.9782 1 12.1069 1C12.2356 1 12.3628 1.02804 12.4798 1.08221C12.5967 1.13637 12.7006 1.21536 12.7843 1.31376C15.1366 4.08335 22.8087 13.6583 22.8087 20.751Z" stroke="white" stroke-width="1.94816" stroke-miterlimit="10"/>
<path d="M18.8442 21.2153C18.8442 22.6871 18.2596 24.0986 17.2189 25.1393C16.1782 26.18 14.7667 26.7646 13.2949 26.7646" stroke="white" stroke-width="1.94816" stroke-linecap="round" stroke-linejoin="round"/>
</svg>
