<svg width="54" height="54" viewBox="0 0 54 54" fill="none" xmlns="http://www.w3.org/2000/svg">
<circle cx="27" cy="27" r="25.5" stroke="#004288" stroke-width="3"/>
<g clip-path="url(#clip0_1134_7799)">
<path fill-rule="evenodd" clip-rule="evenodd" d="M41.5801 29.4756C41.5801 29.6784 41.4995 29.8728 41.3562 30.0162C41.2128 30.1596 41.0183 30.2401 40.8156 30.2401L38.1976 30.2401C37.9949 30.2401 37.8004 30.1596 37.6571 30.0162C37.5137 29.8728 37.4331 29.6784 37.4331 29.4756C37.4331 29.2729 37.5137 29.0784 37.6571 28.935C37.8004 28.7917 37.9949 28.7111 38.1976 28.7111L38.9706 28.7111L27.9891 17.7296L27.9891 18.5026C27.9891 18.7053 27.9085 18.8998 27.7652 19.0431C27.6218 19.1865 27.4273 19.267 27.2246 19.267C27.0218 19.267 26.8274 19.1865 26.684 19.0431C26.5406 18.8998 26.4601 18.7053 26.4601 18.5026L26.4601 15.8846C26.4601 15.6819 26.5406 15.4874 26.684 15.344C26.8274 15.2007 27.0218 15.1201 27.2246 15.1201L29.8425 15.1201C29.9429 15.1201 30.0423 15.1399 30.1351 15.1783C30.2278 15.2167 30.3121 15.273 30.3831 15.344C30.4541 15.415 30.5104 15.4993 30.5488 15.5921C30.5872 15.6848 30.607 15.7842 30.607 15.8846C30.607 15.985 30.5872 16.0844 30.5488 16.1772C30.5104 16.2699 30.4541 16.3542 30.3831 16.4252C30.3121 16.4962 30.2278 16.5525 30.1351 16.5909C30.0423 16.6293 29.9429 16.6491 29.8425 16.6491L29.0696 16.6491L40.0511 27.6306L40.0511 26.8577C40.0511 26.6549 40.1316 26.4605 40.275 26.3171C40.4184 26.1737 40.6128 26.0932 40.8156 26.0932C41.0183 26.0932 41.2128 26.1737 41.3562 26.3171C41.4995 26.4605 41.5801 26.6549 41.5801 26.8577L41.5801 29.4756Z" fill="#004288"/>
<g clip-path="url(#clip1_1134_7799)">
<path d="M21.8939 25.8291C20.9889 24.87 19.4404 25.5495 19.4404 26.905V33.3305C19.4404 33.7998 19.6165 34.2499 19.9299 34.5818C20.2434 34.9137 20.6685 35.1001 21.1117 35.1001H27.1803C28.4605 35.1001 29.1023 33.4606 28.1964 32.5023L21.8939 25.8291ZM26.6154 33.3305H21.1117V27.5031L26.6154 33.3305Z" fill="#004288"/>
<path d="M17.1642 15.1201C16.8248 15.1201 16.4888 15.187 16.1753 15.3168C15.8618 15.4467 15.5769 15.637 15.3369 15.877C14.8523 16.3616 14.5801 17.0189 14.5801 17.7043V37.2004C14.5801 37.9323 14.8708 38.6343 15.3883 39.1518C15.9059 39.6694 16.6078 39.9601 17.3397 39.9601H36.8358C37.3469 39.9602 37.8466 39.8086 38.2715 39.5247C38.6965 39.2407 39.0278 38.8371 39.2234 38.3649C39.419 37.8927 39.4701 37.373 39.3704 36.8717C39.2707 36.3704 39.0245 35.9099 38.6631 35.5485L18.9915 15.8769C18.7515 15.637 18.4666 15.4466 18.1531 15.3168C17.8396 15.1869 17.5035 15.1201 17.1642 15.1201ZM16.236 17.7043C16.2359 17.5206 16.2903 17.3411 16.3923 17.1883C16.4942 17.0356 16.6392 16.9165 16.8089 16.8463C16.9786 16.776 17.1653 16.7576 17.3454 16.7934C17.5255 16.8293 17.6909 16.9178 17.8207 17.0477L18.4583 17.6853L17.5939 18.548C17.5526 18.5866 17.5195 18.633 17.4966 18.6846C17.4737 18.7362 17.4614 18.7918 17.4604 18.8483C17.4594 18.9047 17.4698 18.9608 17.491 19.0131C17.5121 19.0654 17.5436 19.113 17.5835 19.1529C17.6234 19.1928 17.671 19.2243 17.7233 19.2454C17.7756 19.2666 17.8317 19.277 17.8881 19.276C17.9446 19.2751 18.0002 19.2627 18.0518 19.2398C18.1034 19.2169 18.1498 19.1838 18.1884 19.1425L19.0519 18.2798L20.7335 19.9606L20.0778 20.618C20.0365 20.6566 20.0034 20.703 19.9805 20.7546C19.9576 20.8062 19.9453 20.8618 19.9443 20.9183C19.9433 20.9747 19.9537 21.0308 19.9749 21.0831C19.996 21.1354 20.0275 21.183 20.0674 21.2229C20.1073 21.2628 20.1549 21.2943 20.2072 21.3154C20.2595 21.3366 20.3156 21.347 20.372 21.346C20.4285 21.3451 20.4841 21.3327 20.5357 21.3098C20.5873 21.2869 20.6337 21.2538 20.6722 21.2125L21.3288 20.5568L23.0113 22.2376L22.1477 23.102C22.1064 23.1406 22.0734 23.187 22.0504 23.2386C22.0275 23.2902 22.0152 23.3458 22.0142 23.4023C22.0132 23.4587 22.0236 23.5148 22.0448 23.5671C22.066 23.6194 22.0974 23.667 22.1373 23.7069C22.1772 23.7468 22.2248 23.7783 22.2771 23.7994C22.3295 23.8206 22.3855 23.831 22.4419 23.83C22.4984 23.8291 22.554 23.8167 22.6056 23.7938C22.6572 23.7709 22.7036 23.7378 22.7422 23.6965L23.6057 22.8329L25.2882 24.5154L24.6316 25.172C24.5903 25.2106 24.5572 25.257 24.5343 25.3086C24.5114 25.3602 24.4991 25.4158 24.4981 25.4723C24.4971 25.5287 24.5075 25.5848 24.5287 25.6371C24.5498 25.6894 24.5813 25.737 24.6212 25.7769C24.6611 25.8168 24.7087 25.8483 24.761 25.8694C24.8134 25.8906 24.8694 25.901 24.9258 25.9C24.9823 25.8991 25.0379 25.8867 25.0895 25.8638C25.1411 25.8409 25.1875 25.8078 25.2261 25.7665L25.8826 25.1099L27.5642 26.7924L26.7015 27.656C26.6602 27.6946 26.6272 27.741 26.6042 27.7926C26.5813 27.8442 26.569 27.8998 26.568 27.9563C26.5671 28.0127 26.5775 28.0688 26.5986 28.1211C26.6198 28.1734 26.6512 28.221 26.6911 28.2609C26.7311 28.3008 26.7786 28.3323 26.8309 28.3534C26.8833 28.3746 26.9393 28.385 26.9958 28.384C27.0522 28.3831 27.1079 28.3707 27.1594 28.3478C27.211 28.3249 27.2575 28.2918 27.296 28.2505L28.1595 27.3869L29.8411 29.0694L29.1854 29.726C29.1441 29.7646 29.1111 29.811 29.0881 29.8626C29.0652 29.9142 29.0529 29.9698 29.0519 30.0263C29.0509 30.0827 29.0614 30.1388 29.0825 30.1911C29.1037 30.2434 29.1351 30.291 29.175 30.3309C29.215 30.3708 29.2625 30.4023 29.3148 30.4234C29.3672 30.4446 29.4232 30.455 29.4797 30.454C29.5361 30.4531 29.5918 30.4407 29.6433 30.4178C29.6949 30.3949 29.7413 30.3618 29.7799 30.3205L30.4364 29.6639L32.118 31.3464L31.2553 32.21C31.2141 32.2486 31.181 32.295 31.158 32.3466C31.1351 32.3982 31.1228 32.4538 31.1218 32.5103C31.1209 32.5667 31.1313 32.6228 31.1524 32.6751C31.1736 32.7274 31.205 32.775 31.245 32.8149C31.2849 32.8548 31.3324 32.8863 31.3847 32.9074C31.4371 32.9286 31.4931 32.939 31.5496 32.938C31.606 32.9371 31.6617 32.9247 31.7133 32.9018C31.7648 32.8789 31.8113 32.8458 31.8498 32.8045L32.7134 31.9409L34.395 33.6234L33.7392 34.28C33.6979 34.3186 33.6649 34.365 33.6419 34.4166C33.619 34.4682 33.6067 34.5238 33.6057 34.5803C33.6048 34.6367 33.6152 34.6928 33.6363 34.7451C33.6575 34.7974 33.6889 34.845 33.7289 34.8849C33.7688 34.9248 33.8163 34.9563 33.8686 34.9774C33.921 34.9986 33.977 35.009 34.0335 35.008C34.0899 35.0071 34.1456 34.9947 34.1971 34.9718C34.2487 34.9489 34.2952 34.9158 34.3337 34.8745L34.9903 34.2179L36.6719 35.9004L35.8091 36.764C35.7679 36.8026 35.7348 36.849 35.7119 36.9006C35.6889 36.9522 35.6766 37.0078 35.6756 37.0643C35.6747 37.1207 35.6851 37.1768 35.7062 37.2291C35.7274 37.2814 35.7589 37.329 35.7988 37.3689C35.8387 37.4088 35.8862 37.4403 35.9386 37.4614C35.9909 37.4826 36.0469 37.493 36.1034 37.492C36.1598 37.4911 36.2155 37.4787 36.2671 37.4558C36.3186 37.4329 36.3651 37.3998 36.4036 37.3585L37.2672 36.4949L37.4907 36.7185C37.6209 36.8482 37.7096 37.0136 37.7456 37.1938C37.7817 37.374 37.7634 37.5609 37.6932 37.7307C37.623 37.9005 37.5039 38.0456 37.3512 38.1477C37.1984 38.2498 37.0187 38.3042 36.835 38.3041H17.3397C17.047 38.3041 16.7662 38.1878 16.5593 37.9808C16.3523 37.7739 16.236 37.4931 16.236 37.2004V17.7043Z" fill="#004288"/>
</g>
</g>
<defs>
<clipPath id="clip0_1134_7799">
<rect width="32.94" height="32.94" fill="white" transform="translate(14.5801 8.64014)"/>
</clipPath>
<clipPath id="clip1_1134_7799">
<rect width="24.84" height="24.84" fill="white" transform="translate(14.5801 15.1201)"/>
</clipPath>
</defs>
</svg>
