<svg width="56" height="60" viewBox="0 0 56 60" fill="none" xmlns="http://www.w3.org/2000/svg">
<g clip-path="url(#clip0_1250_5218)">
<path d="M43.5004 59.5914C46.5578 59.6013 49.5405 59.5964 52.3739 59.5914C52.9465 59.5914 53.3399 59.2139 53.3797 58.6303C53.3897 58.4881 53.3897 58.341 53.3897 58.2037C53.3897 58.1644 53.3897 58.1252 53.3897 58.086C53.3897 51.2599 53.3897 44.4387 53.3897 37.6127V33.2581C53.3897 28.6044 53.3897 23.9458 53.3897 19.2921C53.3897 18.3996 53.0411 18.0515 52.1448 18.0466C50.9697 18.0466 49.8443 18.0466 48.7538 18.0466C46.9811 18.0466 45.3129 18.0466 43.6996 18.0466C43.5452 18.0466 43.3659 18.0515 43.2116 18.0956C42.6688 18.2476 42.4746 18.5762 42.4746 19.3461C42.4746 24.1469 42.4746 28.9477 42.4746 33.7485V38.8484C42.4746 45.2528 42.4746 51.6522 42.4746 58.0566C42.4746 58.0958 42.4746 58.1399 42.4746 58.1792C42.4746 58.3165 42.4746 58.4636 42.4796 58.6009C42.5194 59.2188 42.9028 59.5914 43.5004 59.5914ZM44.4764 57.115C44.4814 57.066 44.4814 57.0121 44.4814 56.9532C44.4814 56.9238 44.4814 56.8993 44.4814 56.8698V20.7387C44.4814 20.0473 44.5162 20.0179 45.1934 20.0179C45.6864 20.0179 46.1794 20.0179 46.6773 20.0179C48.0317 20.0179 49.431 20.0228 50.8103 20.0081C50.9846 20.0081 51.1639 20.0179 51.2734 20.1307C51.363 20.2189 51.4029 20.3513 51.4029 20.5671C51.3929 30.306 51.3929 40.2117 51.3929 49.7888V57.0807C51.3929 57.1739 51.3879 57.267 51.378 57.3749C51.373 57.4289 51.368 57.4926 51.368 57.5564C51.368 57.5956 51.3332 57.625 51.2933 57.625H47.9421C47.6633 57.625 47.3844 57.625 47.1056 57.625C46.4134 57.6201 45.6914 57.6201 44.9893 57.6348C44.9793 57.6348 44.9693 57.6348 44.9544 57.6348C44.7652 57.6348 44.6407 57.5956 44.561 57.5122C44.4764 57.424 44.4515 57.3014 44.4764 57.115Z" fill="#FF6B00"/>
<path d="M39.9932 38.917C39.9932 35.3127 39.9932 31.7134 39.9932 28.1091C39.9932 27.1724 39.6745 26.8537 38.7284 26.8537C36.9607 26.8537 35.1681 26.8537 33.4302 26.8537H31.8667C31.7023 26.8537 31.543 26.8537 31.3787 26.8537C31.2193 26.8537 31.065 26.8537 30.9006 26.8537C30.6367 26.8537 30.3728 26.8537 30.1089 26.8635C29.4665 26.8831 29.108 27.2313 29.0831 27.8786C29.0781 27.9865 29.0781 28.0944 29.0781 28.1973V28.2954C29.0781 38.2599 29.0781 48.2244 29.0781 58.184V58.2674C29.0781 58.3801 29.0781 58.4929 29.0831 58.6057C29.118 59.2187 29.5014 59.5865 30.1039 59.5914C33.1514 59.6012 36.1391 59.5963 38.9774 59.5914C39.555 59.5914 39.9384 59.2236 39.9783 58.6302C39.9882 58.4684 39.9882 58.2968 39.9882 58.135V58.0418C39.9882 53.1037 39.9882 48.1607 39.9882 43.2225L39.9932 38.917ZM37.9865 40.4176C37.9865 41.3738 37.9865 42.33 37.9865 43.2814V45.8951C37.9865 49.5975 37.9865 53.2998 37.9865 57.0022C37.9865 57.5906 37.9516 57.625 37.3541 57.625C36.8462 57.625 36.3383 57.625 35.8303 57.625C34.446 57.625 33.0169 57.6201 31.6077 57.6348C31.6027 57.6348 31.5978 57.6348 31.5928 57.6348C31.3936 57.6348 31.2741 57.6004 31.1944 57.522C31.1098 57.4386 31.0749 57.316 31.0749 57.1101C31.0849 47.6114 31.0849 38.2746 31.0749 29.3693C31.0749 29.1487 31.1098 29.0212 31.1994 28.9378C31.2841 28.8544 31.4185 28.8201 31.6326 28.8201C33.6842 28.8397 35.5764 28.8397 37.4188 28.8201C37.6429 28.8201 37.7773 28.8544 37.867 28.9427C37.9566 29.031 37.9964 29.1634 37.9915 29.3939C37.9865 33.0668 37.9865 36.8035 37.9865 40.4176Z" fill="#FF6B00"/>
<path d="M53.757 0.657712C53.1197 0.780306 52.4823 0.902901 51.8449 1.0255C50.1021 1.36386 48.2995 1.71203 46.5268 2.04058C45.984 2.14356 45.6902 2.35442 45.5608 2.75653C45.4064 3.21749 45.6006 3.54114 45.9691 3.91873C46.4521 4.41401 46.9251 4.93381 47.3882 5.434C47.5775 5.63996 47.7617 5.84101 47.9509 6.04697C47.9659 6.05188 47.9758 6.06168 47.9858 6.0764C48.0455 6.16466 47.9011 6.35101 47.8563 6.40005C47.3783 6.87571 46.8953 7.36609 46.4272 7.84176C45.3765 8.90588 44.291 10.0092 43.1706 11.0341C39.8293 14.1039 36.2192 16.9089 32.4547 19.3706C28.6952 21.8274 24.6717 24.0095 20.4889 25.8632C16.5601 27.604 12.9997 28.8937 9.6037 29.796C7.73141 30.2962 5.80931 30.7375 3.95196 31.1642C3.14528 31.3505 2.30872 31.5418 1.4871 31.733C0.84972 31.885 0.491195 32.3558 0.610703 32.8854C0.740171 33.4591 1.25306 33.7681 1.89542 33.6504C5.04745 33.0717 8.23434 32.2969 11.3565 31.3554C17.6157 29.4576 23.6509 26.8537 29.2927 23.6172C36.1146 19.6942 41.1887 15.5407 44.2462 12.7455C47.692 9.59241 49.4498 7.38571 49.4697 7.36609C49.4846 7.35138 49.4996 7.34157 49.5244 7.33667C49.5444 7.33667 49.5643 7.34157 49.5792 7.35628C49.6838 7.44946 49.7635 7.52301 49.8332 7.58186C49.9477 7.68484 50.0224 7.74859 50.0921 7.81724C50.3361 8.04772 50.5751 8.2782 50.8191 8.50867C51.2673 8.9353 51.7304 9.37664 52.1885 9.80818C52.5072 10.1073 52.8757 10.1956 53.2591 10.0583C53.6276 9.92587 53.8516 9.64635 53.9164 9.23443C54.0707 8.24387 54.2301 7.2533 54.3845 6.26274C54.6135 4.82103 54.8525 3.32537 55.0766 1.85914C55.1364 1.46684 55.0368 1.12357 54.7978 0.893093C54.5438 0.662615 54.1753 0.579251 53.757 0.657712ZM52.8707 2.93797L52.2482 6.97379C52.2433 7.00321 52.2233 7.02283 52.1984 7.03263C52.1885 7.03754 52.1835 7.03754 52.1735 7.03754C52.1536 7.03754 52.1337 7.03263 52.1238 7.01792L48.6929 3.76181C48.673 3.74219 48.663 3.71277 48.673 3.68825C48.6829 3.66373 48.7028 3.64412 48.7327 3.63921L52.786 2.86442C52.8109 2.85951 52.8358 2.86932 52.8508 2.88403C52.8657 2.89384 52.8757 2.91836 52.8707 2.93797Z" fill="#FF6B00"/>
<path d="M26.5934 36.9556C26.5934 36.8133 26.5934 36.6515 26.5785 36.4995C26.5337 36.0925 26.2698 35.7934 25.8764 35.7002C25.6473 35.6462 25.4033 35.6413 25.2141 35.6364C23.6207 35.6364 22.0322 35.6315 20.4885 35.6315C19.3233 35.6315 18.1781 35.6315 17.0726 35.6315C15.997 35.6315 15.6883 35.9356 15.6883 36.9899C15.6883 39.4908 15.6883 41.9917 15.6883 44.4976V47.5821V49.5436C15.6883 51.8287 15.6883 54.1188 15.6883 56.404C15.6883 56.5903 15.6883 56.7767 15.6883 56.9581C15.6883 57.4926 15.6833 58.0516 15.6983 58.596C15.7182 59.204 16.1016 59.5865 16.7091 59.5865C19.6321 59.5963 22.6148 59.5963 25.5776 59.5865C26.1801 59.5865 26.5586 59.2138 26.5934 58.596C26.5984 58.4979 26.5984 58.3998 26.5984 58.3017V58.2625C26.5934 51.1618 26.5934 44.0611 26.5934 36.9556ZM24.6016 57.0807C24.6016 57.2474 24.5867 57.4142 24.4821 57.5171C24.3975 57.5956 24.273 57.6348 24.0688 57.6348C24.0638 57.6348 24.0589 57.6348 24.0489 57.6348C22.6546 57.6201 21.2405 57.625 19.8711 57.625C19.3184 57.625 18.7706 57.625 18.2179 57.625C18.1332 57.625 18.0486 57.6201 17.944 57.6152C17.8892 57.6103 17.8245 57.6103 17.7548 57.6054C17.715 57.6054 17.6851 57.5711 17.6851 57.5318V52.1033C17.6851 47.4889 17.6851 42.8695 17.6851 38.2551C17.6851 37.6421 17.7249 37.6078 18.3523 37.6078C18.8802 37.6078 19.413 37.6078 19.9408 37.6078C21.2753 37.6078 22.6497 37.6127 24.0091 37.598C24.2381 37.593 24.3775 37.6323 24.4672 37.7254C24.5568 37.8137 24.5966 37.951 24.5966 38.1766C24.5917 44.2034 24.5917 50.5636 24.6016 57.0807Z" fill="#FF6B00"/>
<path d="M13.1981 45.6499C13.1981 44.7868 12.8396 44.4387 11.9732 44.4338C10.5938 44.4338 9.19459 44.4338 7.75054 44.4338C6.38615 44.4338 4.98691 44.4338 3.52791 44.4338C2.64654 44.4338 2.28801 44.7819 2.28303 45.6303C2.27805 49.7201 2.27805 54.0109 2.28303 58.3801C2.28303 59.2432 2.63658 59.5914 3.50799 59.5914C6.41105 59.5914 9.25933 59.5914 11.9084 59.5914C12.8695 59.5914 13.1931 59.2677 13.1931 58.3115C13.1931 56.8109 13.1931 55.2859 13.1931 53.8147V52.0641C13.1931 51.4315 13.1931 50.794 13.1931 50.1614C13.2031 48.6854 13.2031 47.1554 13.1981 45.6499ZM11.0868 57.5171C11.0022 57.6004 10.8777 57.6348 10.6735 57.6348C10.6685 57.6348 10.6636 57.6348 10.6536 57.6348C9.21451 57.6201 7.75552 57.625 6.34133 57.625C5.83342 57.625 5.33049 57.625 4.82258 57.625H4.38439C4.34455 57.625 4.30969 57.5955 4.30969 57.5563C4.30471 57.4828 4.30471 57.419 4.29973 57.3602C4.29475 57.2425 4.28978 57.1395 4.28978 57.0365C4.28978 56.144 4.28978 55.2564 4.28978 54.3639C4.28978 51.9464 4.28977 49.4454 4.27982 46.9887C4.27982 46.8072 4.29475 46.6258 4.40928 46.513C4.49891 46.4247 4.63834 46.3855 4.87238 46.3904C6.6899 46.41 8.58211 46.4149 10.6586 46.3904C10.8727 46.3904 11.0022 46.4247 11.0868 46.5081C11.1964 46.616 11.2113 46.7827 11.2063 46.9445C11.1964 50.333 11.1964 53.7412 11.2063 57.0757C11.2063 57.3062 11.1715 57.4337 11.0868 57.5171Z" fill="#FF6B00"/>
</g>
<defs>
<clipPath id="clip0_1250_5218">
<rect width="54.5008" height="58.968" fill="white" transform="translate(0.591797 0.628357)"/>
</clipPath>
</defs>
</svg>
