<svg width="51" height="60" viewBox="0 0 51 60" fill="none" xmlns="http://www.w3.org/2000/svg">
<g clip-path="url(#clip0_1250_5209)">
<path d="M49.9925 10.8473C49.9813 9.66483 49.616 9.30568 48.374 9.24489L48.1099 9.23384C46.4183 9.15649 44.6705 9.07361 42.9452 8.85811C37.5951 8.18953 32.807 6.26113 28.727 3.13923C28.0189 2.59773 27.3445 2.0065 26.6926 1.4429C26.451 1.23293 26.215 1.02297 25.9733 0.818522C25.6586 0.547773 25.3551 0.415161 25.0573 0.415161C24.7594 0.415161 24.4616 0.547773 24.1525 0.812996C24.0232 0.929032 23.8883 1.05059 23.7535 1.17768C23.6523 1.27161 23.5568 1.36002 23.4556 1.44843C19.8252 4.72504 15.5991 6.97944 10.8953 8.16742C8.12467 8.86364 5.0731 9.22279 1.56631 9.267C0.549121 9.27805 0.133253 9.69799 0.133253 10.7036C0.122013 12.6707 0.127633 14.6709 0.127633 16.6048C0.127633 17.4281 0.127633 18.2514 0.127633 19.0692V19.1079C-0.0465825 23.6001 0.150112 27.689 0.728956 31.5955C1.3078 35.4855 2.28003 38.8726 3.69623 41.9613C5.83178 46.6083 9.07443 50.5369 13.3286 53.6422C16.4982 55.9519 20.1849 57.8084 24.5964 59.3114C24.8493 59.3998 25.2259 59.3998 25.4675 59.3224C28.8563 58.1842 31.8292 56.8138 34.5604 55.123C38.2695 52.83 41.3323 50.0009 43.6646 46.7188C46.3003 43.0056 48.0593 38.7179 49.0371 33.6123C49.7452 29.9434 50.0881 26.1032 50.0881 21.8651C50.0881 19.2571 50.0543 16.6048 50.0206 14.041C50.0206 12.9801 50.0038 11.9137 49.9925 10.8473ZM47.5085 26.6723C47.3287 31.3966 46.4352 35.7783 44.8504 39.7014C42.9171 44.4754 39.8037 48.4759 35.5945 51.5867C32.7902 53.6588 29.5475 55.3496 25.6867 56.7531C25.49 56.8249 25.2708 56.8636 25.0573 56.8636C24.855 56.8636 24.6526 56.8304 24.4728 56.7641C20.6344 55.3717 17.403 53.6975 14.5987 51.6365C10.3445 48.5146 7.20864 44.492 5.26979 39.6848C3.87607 36.2314 3.03871 32.4354 2.70714 28.0647C2.5835 26.4181 2.52731 23.9924 2.51045 23.0255C2.49359 22.2187 2.48797 21.4562 2.48797 20.8705C2.48797 20.4009 2.48797 20.097 2.51045 19.887C2.51045 19.3289 2.51045 18.7708 2.51045 18.2128C2.51045 16.5275 2.51607 14.787 2.49921 13.0741C2.49359 12.1568 3.02185 11.5988 3.94913 11.5435C6.92203 11.3722 9.51277 10.9854 11.8675 10.3721C16.3465 9.20069 20.4097 7.11206 23.9389 4.16697C24.6807 3.54811 25.4282 3.53706 26.1531 4.14487C30.7108 7.95746 36.0665 10.3058 42.0742 11.1291C43.2768 11.2949 44.5132 11.3998 45.7158 11.5103L46.2609 11.5601C47.1264 11.6374 47.6153 12.1624 47.6097 13.0022C47.5985 14.4665 47.6041 15.9639 47.6097 17.406C47.6209 20.4395 47.6266 23.578 47.5085 26.6723Z" fill="#107C42"/>
<path d="M32.4417 22.6054C30.8007 24.1968 29.1766 25.8102 27.5468 27.4126C25.7372 29.1974 23.9277 30.9821 21.9832 32.8939C21.8427 32.6839 21.764 32.5182 21.6404 32.3966C20.3085 31.0816 18.9878 29.761 17.6334 28.468C16.6893 27.5673 15.3742 27.5729 14.5144 28.4348C13.6771 29.2747 13.6771 30.5787 14.565 31.4683C16.5376 33.4299 18.527 35.3749 20.5164 37.3198C20.9716 37.7674 21.5336 37.9718 22.1855 37.9387C22.843 37.9055 23.3376 37.5851 23.7815 37.143C26.6196 34.3471 29.4576 31.5567 32.3012 28.7664C33.3634 27.7221 34.4199 26.6777 35.4821 25.6389C36.1171 25.0146 36.37 24.2797 36.1171 23.4232C35.645 21.8208 33.7006 21.3843 32.4417 22.6054Z" fill="#107C42"/>
</g>
<defs>
<clipPath id="clip0_1250_5209">
<rect width="50.0335" height="58.968" fill="white" transform="translate(0.0664062 0.415222)"/>
</clipPath>
</defs>
</svg>
