<svg width="63" height="64" viewBox="0 0 63 64" fill="none" xmlns="http://www.w3.org/2000/svg">
<path d="M50.101 24.4782C50.1847 24.6423 50.246 24.7893 50.324 24.9251C51.467 26.9331 52.6044 28.9467 53.7586 30.949C55.1469 33.3586 55.1803 35.7852 53.8143 38.2061C51.7793 41.8092 49.7498 45.4179 47.6701 48.9927C46.3543 51.2552 44.3471 52.3921 41.7545 52.4261C40.0428 52.4487 38.3311 52.4147 36.6194 52.443C36.3685 52.4487 36.0619 52.5788 35.8779 52.7598C35.0527 53.5517 34.261 54.3775 33.4581 55.192C32.6051 56.0518 31.6071 56.3402 30.4752 55.8821C29.3323 55.4183 28.7859 54.5019 28.758 53.2575C28.7413 52.4317 28.7357 52.4317 27.9384 52.4317C25.7305 52.4317 23.5226 52.4261 21.3147 52.4317C18.5994 52.4374 16.542 51.2439 15.176 48.8739C13.1187 45.2991 11.0725 41.7243 9.0597 38.1269C7.75503 35.7908 7.78291 33.4208 9.09316 31.0848C9.92391 29.6028 10.7825 28.1435 11.5966 26.6502C11.7248 26.4127 11.7694 26.0563 11.7081 25.7905C11.4293 24.5744 11.0725 23.3809 10.7937 22.1648C10.5428 21.0788 10.9275 20.1738 11.775 19.495C12.628 18.8162 13.587 18.7314 14.5739 19.1782C14.8917 19.3197 15.1928 19.512 15.5496 19.7099C15.7057 19.4441 15.8507 19.1952 15.9956 18.952C17.1163 16.9836 18.2203 15.0095 19.3577 13.0525C20.6456 10.8352 22.5747 9.62474 25.106 9.59646C29.3936 9.54555 33.6812 9.52292 37.9687 9.60211C40.355 9.64736 42.2173 10.8239 43.4662 12.8997C44.4029 14.4496 45.2615 16.0447 46.1759 17.6058C46.2985 17.8151 46.555 18.0017 46.7836 18.0696C47.8541 18.392 48.9413 18.6692 50.023 18.9577C51.244 19.2857 52.019 20.055 52.164 21.3446C52.3089 22.5664 51.7793 23.4771 50.7366 24.0936C50.5303 24.2067 50.3296 24.3368 50.101 24.4782ZM39.1396 30.8642C38.8441 31.0282 38.6155 31.147 38.398 31.2771C37.361 31.9163 36.3407 31.8427 35.3984 31.1244C34.4506 30.4004 34.1383 29.3936 34.4283 28.2227C34.7182 27.0575 35.0472 25.9036 35.3204 24.7384C35.3761 24.5008 35.3315 24.1897 35.2144 23.9748C34.2889 22.3062 33.3355 20.6545 32.3988 18.9916C32.1813 18.6126 31.9472 18.2732 31.4565 18.2732C30.9659 18.2732 30.7317 18.6126 30.5198 18.9916C29.31 21.1297 28.0945 23.2678 26.879 25.4002C26.4609 26.1299 26.4497 26.1412 27.1857 26.5654C28.2618 27.1819 28.719 28.1209 28.5573 29.3313C28.4011 30.5248 27.6763 31.2828 26.5333 31.6108C25.3959 31.9389 24.2474 32.2274 23.11 32.5667C22.9093 32.629 22.6807 32.793 22.5747 32.9797C21.5767 34.6992 20.5899 36.4244 19.6141 38.1608C19.1793 38.9301 19.5751 39.6315 20.4337 39.6315C23.071 39.6371 25.7137 39.6258 28.351 39.6428C28.7022 39.6428 28.7803 39.5127 28.7803 39.1903C28.7803 38.7717 28.7636 38.3305 28.8751 37.9346C29.4382 35.9718 31.8189 35.344 33.3187 36.7637C34.1829 37.5839 35.0081 38.4493 35.8333 39.3091C36.0675 39.5523 36.3016 39.6428 36.6306 39.6428C38.5318 39.6315 40.4387 39.6371 42.3399 39.6371C43.3602 39.6371 43.7394 38.964 43.2208 38.0534C42.4459 36.6902 41.6709 35.327 40.8959 33.9639C40.3327 32.9401 39.7473 31.9219 39.1396 30.8642ZM18.276 40.5252C17.7798 41.3906 17.3282 42.1825 16.8766 42.98C14.8973 46.4926 17.239 50.5934 21.231 50.5991C23.9798 50.6047 26.7341 50.5991 29.4828 50.6047C30.2132 50.6047 30.5366 50.9328 30.5589 51.6681C30.5756 52.2168 30.5533 52.7711 30.5756 53.3254C30.5923 53.8062 30.8822 54.1456 31.3004 54.2248C31.713 54.304 31.9973 54.089 32.2705 53.8119C34.5175 51.5267 36.77 49.2472 39.0225 46.9621C39.7417 46.2324 39.7473 45.8478 39.0336 45.1238C37.3833 43.4438 35.7329 41.7696 34.0826 40.0953C33.4247 39.4279 32.7723 38.7604 32.1089 38.1043C31.8189 37.8158 31.4732 37.7423 31.0941 37.9176C30.7317 38.0873 30.5812 38.3758 30.5923 38.7774C30.6035 39.2808 30.5979 39.7842 30.5923 40.2876C30.5867 41.153 30.2801 41.4698 29.4382 41.4698C26.5445 41.4698 23.6508 41.4528 20.7515 41.4811C19.826 41.4867 19.0064 41.3001 18.276 40.5252ZM30.9547 16.4802C30.4752 15.6317 30.0348 14.8625 29.6055 14.0932C28.6409 12.368 27.1801 11.4178 25.2287 11.4178C23.2773 11.4178 21.822 12.3624 20.8463 14.0876C19.4971 16.4802 18.1311 18.8672 16.7651 21.2541C16.3692 21.9442 15.9287 22.0517 15.2485 21.6614C14.7746 21.3899 14.3118 21.0957 13.8268 20.8525C13.1856 20.5358 12.4886 21.0109 12.5388 21.701C12.5555 21.8933 12.6113 22.0856 12.6615 22.2723C13.4755 25.3606 14.2951 28.4433 15.1147 31.5316C15.36 32.4649 15.7057 32.6686 16.6145 32.4197C17.9248 32.0633 19.2406 31.707 20.5508 31.345C22.3573 30.8529 24.1638 30.3608 25.9702 29.8743C26.3884 29.7612 26.7062 29.5519 26.7675 29.0825C26.8289 28.613 26.6058 28.3189 26.21 28.1096C25.8141 27.8946 25.435 27.6571 25.0447 27.4308C24.253 26.967 24.1415 26.5541 24.5931 25.7622C25.9033 23.4544 27.2247 21.158 28.5238 18.8445C29.0981 17.8264 29.5943 16.746 30.9547 16.4802ZM45.15 39.6371C46.1201 39.6371 47.0233 39.6371 47.9322 39.6371C51.9242 39.6315 54.2548 35.542 52.2699 32.0181C50.9039 29.5972 49.5212 27.1876 48.1552 24.7667C47.7705 24.0936 47.8875 23.6637 48.5455 23.2621C49.0138 22.9793 49.4933 22.7191 49.9505 22.4193C50.4467 22.0969 50.5526 21.4238 50.1401 21.0392C49.9393 20.8525 49.6438 20.7451 49.3762 20.6715C46.3376 19.84 43.2989 19.0142 40.2547 18.1941C39.2734 17.9282 38.9444 18.1262 38.688 19.1104C38.175 21.0675 37.6565 23.0245 37.138 24.9816C36.8257 26.1695 36.5135 27.3629 36.1957 28.5508C36.0842 28.975 36.1009 29.3596 36.4689 29.6537C36.8369 29.9422 37.2049 29.8913 37.5784 29.6537C37.9297 29.4275 38.2977 29.2295 38.6545 29.0146C39.5745 28.4716 39.9257 28.5734 40.4665 29.5236C41.8381 31.9389 43.1985 34.3655 44.598 36.7637C45.1165 37.6518 45.4845 38.5342 45.15 39.6371ZM43.7394 17.2381C43.7617 17.2042 43.784 17.1703 43.8063 17.1363C43.2264 16.1125 42.641 15.0887 42.0611 14.0649C41.052 12.2945 39.5354 11.4065 37.5283 11.3952C35.1419 11.3839 32.7612 11.3895 30.3749 11.3952C30.2411 11.3952 30.1073 11.4121 30.0013 11.4234C30.5031 12.204 31.0161 12.9393 31.4677 13.7199C32.9285 16.2539 34.3669 18.8049 35.8166 21.3446C35.8891 21.4691 35.9838 21.5822 36.1232 21.7745C36.3518 20.9261 36.547 20.1907 36.7421 19.4554C36.8592 19.0199 36.9651 18.573 37.0989 18.1431C37.545 16.7517 38.9333 15.9655 40.3272 16.3275C41.4646 16.6159 42.602 16.9327 43.7394 17.2381ZM49.9338 41.351C48.8242 41.3906 47.776 41.4585 46.7278 41.4641C44.0237 41.4811 41.3196 41.4698 38.621 41.4698C38.4594 41.4698 38.2921 41.4698 38.1304 41.4698C38.1137 41.5094 38.1025 41.5546 38.0858 41.5942C38.8664 42.3804 39.6581 43.161 40.4331 43.9473C41.6876 45.2256 41.6876 46.8376 40.4275 48.1216C39.7417 48.823 39.0448 49.5187 38.359 50.2201C38.2698 50.3106 38.1973 50.4237 38.0635 50.5934C39.2901 50.5934 40.4052 50.5821 41.5259 50.5934C43.6613 50.616 45.228 49.6828 46.2818 47.7992C47.2129 46.1362 48.1663 44.4846 49.1086 42.8273C49.3874 42.3352 49.6661 41.8318 49.9338 41.351ZM14.4624 43.902C14.7913 43.2006 15.0701 42.5162 15.4269 41.877C16.9156 39.2242 18.4266 36.5884 19.9319 33.9469C20.0212 33.7885 20.0992 33.6188 20.233 33.3699C19.971 33.4265 19.8149 33.4491 19.6643 33.4887C18.7388 33.7376 17.8133 33.9978 16.8877 34.241C15.2652 34.6652 13.8937 33.8734 13.4309 32.2443C13.1466 31.2488 12.8957 30.242 12.628 29.2408C12.6002 29.1334 12.5388 29.0259 12.4552 28.8336C11.814 29.9592 11.2174 30.9943 10.6376 32.0351C9.67301 33.7602 9.66744 35.5024 10.632 37.2219C11.8196 39.3374 13.0239 41.4415 14.2282 43.5457C14.2895 43.6701 14.3787 43.7776 14.4624 43.902Z" fill="#107C42"/>
<path d="M31.4386 63.4898C27.2793 63.4898 23.2426 62.664 19.4401 61.0293C15.7714 59.4568 12.4707 57.2 9.64394 54.3266C6.81715 51.4588 4.59253 48.1159 3.04253 44.3884C1.43121 40.5365 0.617188 36.4413 0.617188 32.216C0.617188 27.9908 1.43121 23.9013 3.04253 20.0437C4.59253 16.3218 6.81715 12.9733 9.64951 10.1055C12.4819 7.2321 15.777 4.98089 19.4457 3.40278C23.2426 1.77376 27.2793 0.947937 31.4386 0.947937C35.5979 0.947937 39.6346 1.77376 43.4371 3.40843C47.1058 4.98089 50.4065 7.23776 53.2333 10.1112C56.0656 12.9846 58.2847 16.3275 59.8402 20.0493C61.446 23.9069 62.2656 28.0021 62.2656 32.2217C62.2656 36.4413 61.4516 40.5365 59.8402 44.3941C58.2903 48.1159 56.0656 51.4645 53.2333 54.3322C50.4009 57.2056 47.1058 59.4568 43.4371 61.035C39.6402 62.664 35.6035 63.4898 31.4386 63.4898ZM31.4386 2.70139C15.3979 2.70139 2.3456 15.9428 2.3456 32.216C2.3456 48.4893 15.3979 61.7307 31.4386 61.7307C47.4793 61.7307 60.5316 48.4893 60.5316 32.216C60.5372 15.9428 47.4849 2.70139 31.4386 2.70139Z" fill="#107C42"/>
</svg>
