<svg width="69" height="65" viewBox="0 0 69 65" fill="none" xmlns="http://www.w3.org/2000/svg">
<path d="M33.3774 4.83282C30.1627 4.83282 27.5946 7.40034 27.6008 10.599C27.6069 13.7915 30.2058 16.3591 33.4082 16.3407C36.5859 16.3223 39.154 13.7548 39.1601 10.5929C39.1724 7.40647 36.5859 4.83282 33.3774 4.83282ZM33.3835 7.00204C35.3481 7.00204 36.9554 8.60137 36.9739 10.5622C36.9862 12.5415 35.3665 14.1653 33.3774 14.1592C31.4005 14.1531 29.7993 12.566 29.787 10.6051C29.7624 8.63814 31.4005 7.00204 33.3835 7.00204Z" fill="#E14C57"/>
<path d="M61.2998 36.525C62.2975 36.4637 63.2336 36.525 64.1019 36.3228C67.1934 35.5875 68.8069 32.4194 67.7354 29.325C67.6184 28.9941 67.4829 28.6693 67.3104 28.3629C67.0025 27.8114 66.3867 27.6092 65.8632 27.8543C65.3213 28.1117 65.0934 28.7367 65.3767 29.3372C65.7401 30.1032 65.9433 30.8814 65.8201 31.7331C65.5307 33.7737 63.5169 34.8031 61.5215 34.0923C61.3799 34.0433 61.2567 33.743 61.2383 33.5469C61.0166 31.2307 60.45 29.0124 59.4831 26.8984C57.1983 21.8982 53.5033 18.197 48.7244 15.5498C47.1909 14.6981 45.5282 14.0731 43.9085 13.3806C43.5452 13.2274 43.3912 13.1233 43.4836 12.6759C44.6783 6.88526 40.8478 1.36418 34.9973 0.402133C27.909 -0.762133 21.7875 5.6352 23.2778 12.6637C23.3641 13.0681 23.2655 13.1845 22.9022 13.3439C21.2332 14.0547 19.5705 14.79 17.9323 15.5682C17.5567 15.7459 17.3165 15.7398 16.9778 15.5192C15.081 14.3059 13.0056 13.7238 10.7393 13.8341C9.15045 13.9076 8.24516 14.79 8.12199 16.3771C7.97419 18.2215 8.38065 19.9924 8.99033 21.7021C9.32288 22.6335 9.31673 23.332 8.72552 24.2022C7.3522 26.2059 6.45922 28.4487 5.96039 30.8324C5.87418 31.2491 5.72021 31.4145 5.2645 31.3961C4.63018 31.3716 3.98355 31.3716 3.36771 31.488C1.52634 31.8251 0.189972 33.4366 0.171494 35.3056C0.153023 37.4013 0.15918 39.4908 0.171494 41.5865C0.183815 43.8293 1.90816 45.5695 4.16214 45.6063C5.36303 45.6247 6.56392 45.6185 7.7648 45.6063C8.08504 45.6002 8.27596 45.7043 8.44223 45.9801C9.89561 48.4312 11.7678 50.5146 13.954 52.3407C14.1572 52.5061 14.3174 52.8186 14.3481 53.076C14.5945 55.4903 14.7854 57.9107 15.0317 60.3251C15.2657 62.6413 17.2611 64.4429 19.6998 64.59C21.9907 64.7248 24.1215 63.1193 24.6819 60.8214C24.8729 60.0371 25.0576 59.2466 25.2177 58.4561C25.2855 58.1375 25.3778 58.0088 25.7474 58.0946C30.2799 59.1731 34.8372 59.2895 39.419 58.4316C39.9548 58.3336 40.4906 58.2171 41.0202 58.0884C41.3281 58.0149 41.4698 58.0885 41.5375 58.4132C41.6915 59.1853 41.8824 59.9574 42.061 60.7295C42.5968 63.0825 44.7399 64.737 47.0739 64.5961C49.6112 64.4429 51.5141 62.623 51.7543 60.1167C51.9637 57.8924 52.1977 55.6741 52.3517 53.4436C52.3948 52.8125 52.6596 52.4326 53.1153 52.0465C56.3054 49.3565 58.6948 46.0965 60.1113 42.1625C60.7271 40.4651 61.0966 38.7187 61.2506 36.9233C61.2752 36.7579 61.2937 36.5986 61.2998 36.525ZM40.8909 17.6884C41.1988 17.3024 41.4882 16.9653 41.7407 16.6099C42.0056 16.2362 42.2149 15.8256 42.4921 15.4641C42.566 15.366 42.8369 15.3292 42.9786 15.3721C48.1147 17.1185 52.4933 19.9741 55.591 24.4718C59.7726 30.5444 60.3145 36.9785 57.0752 43.6454C55.6834 46.5132 53.6326 48.8724 51.1323 50.8394C50.5781 51.2744 50.2886 51.7524 50.2332 52.4693C50.0546 54.9082 49.8144 57.3409 49.5989 59.7736C49.4695 61.2258 48.4349 62.3043 47.0801 62.384C45.6452 62.4698 44.4997 61.5812 44.1795 60.1412C43.9085 58.9402 43.6437 57.7392 43.3542 56.5443C43.1572 55.717 42.6522 55.429 41.8208 55.6312C41.6853 55.6619 41.5498 55.6986 41.4082 55.7354C38.9941 56.3911 36.5307 56.7465 34.0304 56.8016C30.9697 56.869 27.9705 56.4769 25.0207 55.6496C24.0784 55.3861 23.5919 55.7109 23.3764 56.6668C23.1116 57.8311 22.8406 58.9954 22.5758 60.1596C22.2494 61.5812 21.1285 62.4575 19.7121 62.384C18.3881 62.3166 17.298 61.2565 17.1687 59.8532C16.9285 57.3347 16.7068 54.8101 16.5036 52.2855C16.4605 51.734 16.2511 51.3235 15.82 50.9864C13.4121 49.1113 11.4229 46.8747 9.9572 44.1908C9.65544 43.6332 9.22435 43.3881 8.59003 43.3942C7.16129 43.4126 5.72638 43.4064 4.29763 43.4003C3.15216 43.3942 2.39468 42.714 2.37621 41.5926C2.34541 39.5153 2.34541 37.4442 2.37621 35.3669C2.39468 34.2884 3.13369 33.6144 4.21141 33.5898C4.95658 33.5776 5.69558 33.5898 6.44075 33.5837C7.37683 33.5776 7.72786 33.2957 7.88182 32.3888C8.38681 29.4046 9.51995 26.6839 11.312 24.2451C11.7616 23.6384 11.8232 23.0808 11.5338 22.3822C10.8379 20.6787 10.3821 18.9078 10.2651 17.0695C10.2035 16.1013 10.3883 15.9359 11.3736 15.9665C13.2519 16.0339 14.927 16.6712 16.4297 17.7742C17.2056 18.3441 17.4581 18.3441 18.2957 17.8355C20.0077 16.7999 21.8183 15.9727 23.7212 15.3476C23.8752 15.2986 24.1585 15.3047 24.2262 15.3905C24.7682 16.1381 25.2732 16.9163 25.7966 17.6945C24.9899 17.9825 24.1708 18.2522 23.3702 18.5647C22.6189 18.8588 22.3356 19.4226 22.5758 20.0476C22.8098 20.6604 23.4256 20.8626 24.1831 20.593C24.879 20.3417 25.5749 20.0721 26.2831 19.8699C31.7641 18.338 37.1774 18.5218 42.5044 20.5684C43.2988 20.8748 43.927 20.6726 44.161 20.0537C44.4073 19.4042 44.1117 18.8527 43.3235 18.5524C42.5413 18.2644 41.7469 17.9948 40.8909 17.6884ZM33.3591 2.44266C33.8641 2.50394 34.3814 2.51619 34.8803 2.62649C38.1935 3.36182 40.4105 5.33494 41.2604 8.60714C42.1041 11.8732 41.0633 14.6368 38.5137 16.8244C38.3351 16.9776 38.0026 17.0634 37.7624 17.0266C34.8741 16.5977 31.992 16.5793 29.1037 17.0389C28.7095 17.1002 28.4386 17.0144 28.1491 16.7693C25.538 14.5939 24.5588 11.0521 25.6981 7.8902C26.8743 4.64251 29.9228 2.48556 33.3591 2.44266Z" fill="#E14C57"/>
</svg>
