<svg width="66" height="66" viewBox="0 0 66 66" fill="none" xmlns="http://www.w3.org/2000/svg">
<g clip-path="url(#clip0_2603_657)">
<path d="M34.6201 46.402C32.9519 45.8493 31.2732 45.3175 29.6154 44.7335C25.6325 43.3257 22.8539 40.6353 21.3212 36.7143C20.6383 34.9572 20.1066 33.1375 19.5175 31.3439C19.2724 30.5931 18.8606 30.2125 18.1985 30.202C17.4947 30.1864 17.0621 30.5409 16.8066 31.3283C16.3583 32.71 15.8891 34.0917 15.4564 35.4786C14.2209 39.41 11.8593 42.4341 8.09537 44.1548C6.0935 45.0724 3.93524 45.6564 1.83954 46.3655C1.05756 46.6262 0.64572 47.012 0.624867 47.6794C0.604015 48.4042 0.968938 48.837 1.79784 49.0977C3.18454 49.5408 4.56083 50.0101 5.94753 50.4481C10.0242 51.736 13.0635 54.2491 14.763 58.1857C15.5763 60.0732 16.1289 62.0754 16.7753 64.0306C17.0568 64.8857 17.4426 65.2716 18.1412 65.2768C18.871 65.282 19.236 64.8857 19.5435 63.9941C20.2108 62.0649 20.7165 60.068 21.5298 58.1961L21.5454 58.1909C23.1876 54.4003 26.06 51.9289 29.9126 50.5993C29.9751 50.5837 30.0325 50.568 30.095 50.5472C31.6016 50.057 33.1083 49.5617 34.6097 49.0664C35.3656 48.8161 35.694 48.3938 35.6836 47.7055C35.6836 47.0642 35.3343 46.6419 34.6201 46.402ZM20.4246 54.7914C20.362 54.8644 20.3099 54.9426 20.263 55.0312C20.2317 55.0886 20.2004 55.1459 20.1691 55.2033C19.5696 56.1939 19.0535 57.2732 18.6208 58.436C18.4696 58.827 18.3393 59.2546 18.1516 59.7708C16.2801 53.5609 12.3128 49.6243 6.10914 47.7316C12.3493 45.8389 16.2801 41.8762 18.1672 35.6768C20.0544 41.9023 24.0008 45.8389 30.1889 47.7264C30.0846 47.7681 29.9856 47.7994 29.8969 47.8359C25.7107 49.1759 22.5724 51.47 20.4246 54.7914Z" fill="#3079D6"/>
<path d="M65.8459 32.6944C65.8355 33.3461 65.4757 33.7372 64.7772 33.9822C63.1611 34.5454 61.4929 35.0094 59.955 35.7446C57.6872 36.8291 56.1598 38.6592 55.3622 41.0681C54.966 42.2621 54.5541 43.4509 54.1423 44.6397C53.9077 45.3227 53.4228 45.7086 52.8233 45.6982C52.2395 45.6825 51.7338 45.2497 51.52 44.598C51.103 43.3206 50.7276 42.0275 50.248 40.7709C49.2158 38.0961 47.3547 36.2191 44.6438 35.2336C43.3822 34.7748 42.0946 34.3785 40.8174 33.951C40.2231 33.7528 39.8112 33.2158 39.8425 32.6318C39.879 32.0009 40.2178 31.5734 40.8069 31.3752C42.1415 30.9216 43.5021 30.541 44.8159 30.03C47.4902 28.9872 49.3357 27.0841 50.3158 24.3832C50.7589 23.1631 51.129 21.9118 51.5409 20.6761C51.7546 20.0347 52.302 19.5863 52.8807 19.6332C53.5271 19.6854 53.9442 20.0347 54.1423 20.6708C54.5541 21.9743 54.9555 23.2831 55.4456 24.5553C56.4517 27.1623 58.2763 29.0081 60.8777 30.0248C62.1914 30.5358 63.5469 30.9268 64.8867 31.37C65.5174 31.5838 65.8511 32.0531 65.8459 32.6944ZM60.2417 32.6892C55.7271 30.2177 55.7271 30.2177 52.8181 25.2696C51.4418 28.7891 48.9969 31.224 45.3789 32.6683C47.2348 33.3983 48.7101 34.3264 49.9717 35.5882C51.2333 36.85 52.1352 38.3516 52.8598 40.14C54.2726 36.5163 56.7019 34.1178 60.2417 32.6892Z" fill="#3079D6"/>
<path d="M13.8929 9.18432C12.1256 9.18432 10.473 9.17911 8.82564 9.18432C8.22612 9.18432 7.76215 8.9549 7.5067 8.40743C7.09486 7.52626 7.73087 6.58774 8.76829 6.57731C10.2019 6.55645 11.6355 6.57209 13.0692 6.57209C13.309 6.57209 13.5436 6.57209 13.8459 6.57209C13.8616 6.30097 13.8876 6.06633 13.8876 5.83692C13.8929 4.42392 13.8824 3.01092 13.8929 1.59792C13.9033 0.64375 14.4142 0.0545654 15.2014 0.0545654C15.9938 0.0545654 16.4942 0.633322 16.5047 1.59792C16.5203 2.99006 16.5359 4.38221 16.4942 5.76913C16.4734 6.37918 16.6194 6.60338 17.2762 6.58252C18.689 6.53038 20.1018 6.56167 21.5145 6.56688C22.4269 6.57209 22.9951 7.06221 23.0107 7.84432C23.0264 8.64728 22.4425 9.17389 21.5093 9.17911C20.0757 9.18432 18.6421 9.20518 17.2084 9.16868C16.6767 9.15825 16.4838 9.29903 16.4995 9.85172C16.5359 11.1552 16.5099 12.4587 16.5099 13.7622C16.5099 13.9604 16.5151 14.1533 16.4995 14.3514C16.4369 15.17 15.9208 15.6966 15.1962 15.6914C14.4715 15.6862 13.9189 15.1492 13.9033 14.3358C13.872 12.9019 13.8929 11.4681 13.8876 10.0342C13.8929 9.78393 13.8929 9.52845 13.8929 9.18432Z" fill="#3079D6"/>
<path d="M36.2873 22.2089C36.2873 22.9337 36.2925 23.6011 36.2873 24.2685C36.2873 24.5917 36.2977 24.9254 36.2508 25.2435C36.1413 25.9422 35.62 26.3697 34.9423 26.3541C34.2646 26.3384 33.7485 25.89 33.7015 25.1809C33.6494 24.404 33.6494 23.6167 33.6807 22.8398C33.6963 22.3549 33.5295 22.1881 33.0447 22.2089C32.3513 22.2454 31.658 22.2298 30.9594 22.2141C30.0836 22.1933 29.4841 21.6406 29.4893 20.8898C29.4945 20.1233 30.0784 19.6176 30.9803 19.6071C31.6945 19.5967 32.4139 19.5915 33.1281 19.6123C33.5191 19.6228 33.6755 19.482 33.6703 19.0857C33.6546 18.3453 33.6546 17.6102 33.6755 16.8698C33.7015 15.9886 34.1864 15.4463 34.9371 15.4255C35.7034 15.4046 36.256 15.9782 36.2821 16.8698C36.3029 17.6049 36.3029 18.3453 36.2873 19.0857C36.2769 19.4663 36.4072 19.628 36.8138 19.6176C37.5749 19.5915 38.3309 19.5967 39.092 19.6176C39.9105 19.6384 40.4318 20.1494 40.4318 20.895C40.437 21.6354 39.9157 22.1881 39.1128 22.2141C38.2005 22.2298 37.2934 22.2089 36.2873 22.2089Z" fill="#3079D6"/>
<path d="M48.3058 57.7893C47.3101 57.7893 46.403 57.8102 45.4959 57.7841C44.5888 57.758 44.0206 57.0698 44.1717 56.2303C44.2864 55.6046 44.7973 55.1979 45.5532 55.1823C46.4395 55.1667 47.3257 55.1771 48.3058 55.1771C48.3058 54.4158 48.3006 53.7276 48.3058 53.0393C48.311 52.7161 48.3006 52.3824 48.3579 52.0643C48.4674 51.4178 49.0096 51.0006 49.656 51.0215C50.2816 51.0424 50.8134 51.4438 50.8655 52.0799C50.9333 52.8985 50.9385 53.7276 50.9124 54.5514C50.8968 55.0467 51.074 55.1979 51.5536 55.1771C52.2678 55.1458 52.9873 55.151 53.7067 55.1771C54.5616 55.2031 55.1038 55.7454 55.083 56.5119C55.0673 57.247 54.5304 57.758 53.7067 57.7789C52.9664 57.7997 52.2261 57.7997 51.4911 57.7789C51.074 57.7684 50.8916 57.9092 50.9176 58.3368C50.9437 58.7695 50.902 59.2075 50.928 59.6403C51.0427 61.5851 50.4224 61.9397 49.5987 61.9292C48.775 61.9188 48.1911 61.5695 48.3006 59.6038C48.3319 59.0355 48.3058 58.4515 48.3058 57.7893Z" fill="#3079D6"/>
<path d="M23.5733 51.8089C23.5837 51.0789 24.1259 50.5471 24.8609 50.5523C25.5856 50.5575 26.1538 51.1102 26.159 51.8245C26.1642 52.5545 25.5543 53.1489 24.8192 53.1228C24.0998 53.0967 23.5681 52.5336 23.5733 51.8089Z" fill="#3079D6"/>
</g>
<defs>
<clipPath id="clip0_2603_657">
<rect width="65.2222" height="65.2222" fill="white" transform="translate(0.624023 0.0545654)"/>
</clipPath>
</defs>
</svg>
