<svg width="93" height="60" viewBox="0 0 93 60" fill="none" xmlns="http://www.w3.org/2000/svg">
<path d="M13.0407 3.838V12H12.2927V10.856C12.058 11.2447 11.7464 11.5417 11.3577 11.747C10.9764 11.9523 10.5437 12.055 10.0597 12.055C9.51704 12.055 9.02571 11.9303 8.58571 11.681C8.14571 11.4317 7.80104 11.0833 7.55171 10.636C7.30237 10.1887 7.17771 9.679 7.17771 9.107C7.17771 8.535 7.30237 8.02533 7.55171 7.578C7.80104 7.13067 8.14571 6.786 8.58571 6.544C9.02571 6.29467 9.51704 6.17 10.0597 6.17C10.529 6.17 10.9507 6.269 11.3247 6.467C11.706 6.65767 12.0177 6.94 12.2597 7.314V3.838H13.0407ZM10.1257 11.362C10.529 11.362 10.892 11.2703 11.2147 11.087C11.5447 10.8963 11.8014 10.6287 11.9847 10.284C12.1754 9.93933 12.2707 9.547 12.2707 9.107C12.2707 8.667 12.1754 8.27467 11.9847 7.93C11.8014 7.58533 11.5447 7.32133 11.2147 7.138C10.892 6.94733 10.529 6.852 10.1257 6.852C9.71504 6.852 9.34471 6.94733 9.01471 7.138C8.69204 7.32133 8.43537 7.58533 8.24471 7.93C8.06137 8.27467 7.96971 8.667 7.96971 9.107C7.96971 9.547 8.06137 9.93933 8.24471 10.284C8.43537 10.6287 8.69204 10.8963 9.01471 11.087C9.34471 11.2703 9.71504 11.362 10.1257 11.362ZM15.0948 6.214H15.8758V12H15.0948V6.214ZM15.4908 4.949C15.3295 4.949 15.1938 4.894 15.0838 4.784C14.9738 4.674 14.9188 4.542 14.9188 4.388C14.9188 4.24133 14.9738 4.113 15.0838 4.003C15.1938 3.893 15.3295 3.838 15.4908 3.838C15.6521 3.838 15.7878 3.893 15.8978 4.003C16.0078 4.10567 16.0628 4.23033 16.0628 4.377C16.0628 4.53833 16.0078 4.674 15.8978 4.784C15.7878 4.894 15.6521 4.949 15.4908 4.949ZM19.4789 12.055C19.0096 12.055 18.5586 11.989 18.1259 11.857C17.7006 11.7177 17.3669 11.5453 17.1249 11.34L17.4769 10.724C17.7189 10.9147 18.0232 11.0723 18.3899 11.197C18.7566 11.3143 19.1379 11.373 19.5339 11.373C20.0619 11.373 20.4506 11.2923 20.6999 11.131C20.9566 10.9623 21.0849 10.7277 21.0849 10.427C21.0849 10.2143 21.0152 10.0493 20.8759 9.932C20.7366 9.80733 20.5606 9.71567 20.3479 9.657C20.1352 9.591 19.8529 9.52867 19.5009 9.47C19.0316 9.382 18.6539 9.294 18.3679 9.206C18.0819 9.11067 17.8362 8.953 17.6309 8.733C17.4329 8.513 17.3339 8.20867 17.3339 7.82C17.3339 7.336 17.5356 6.94 17.9389 6.632C18.3422 6.324 18.9032 6.17 19.6219 6.17C19.9959 6.17 20.3699 6.22133 20.7439 6.324C21.1179 6.41933 21.4259 6.54767 21.6679 6.709L21.3269 7.336C20.8502 7.006 20.2819 6.841 19.6219 6.841C19.1232 6.841 18.7456 6.929 18.4889 7.105C18.2396 7.281 18.1149 7.512 18.1149 7.798C18.1149 8.018 18.1846 8.194 18.3239 8.326C18.4706 8.458 18.6502 8.557 18.8629 8.623C19.0756 8.68167 19.3689 8.744 19.7429 8.81C20.2049 8.898 20.5752 8.986 20.8539 9.074C21.1326 9.162 21.3709 9.31233 21.5689 9.525C21.7669 9.73767 21.8659 10.031 21.8659 10.405C21.8659 10.911 21.6532 11.3143 21.2279 11.615C20.8099 11.9083 20.2269 12.055 19.4789 12.055ZM26.2357 11.648C26.0891 11.78 25.9057 11.8827 25.6857 11.956C25.4731 12.022 25.2494 12.055 25.0147 12.055C24.4721 12.055 24.0541 11.9083 23.7607 11.615C23.4674 11.3217 23.3207 10.9073 23.3207 10.372V6.874H22.2867V6.214H23.3207V4.949H24.1017V6.214H25.8617V6.874H24.1017V10.328C24.1017 10.6727 24.1861 10.9367 24.3547 11.12C24.5307 11.296 24.7801 11.384 25.1027 11.384C25.2641 11.384 25.4181 11.3583 25.5647 11.307C25.7187 11.2557 25.8507 11.1823 25.9607 11.087L26.2357 11.648ZM28.2845 7.347C28.4678 6.95833 28.7391 6.665 29.0985 6.467C29.4651 6.269 29.9161 6.17 30.4515 6.17V6.929L30.2645 6.918C29.6558 6.918 29.1791 7.105 28.8345 7.479C28.4898 7.853 28.3175 8.37733 28.3175 9.052V12H27.5365V6.214H28.2845V7.347ZM31.7446 6.214H32.5256V12H31.7446V6.214ZM32.1406 4.949C31.9792 4.949 31.8436 4.894 31.7336 4.784C31.6236 4.674 31.5686 4.542 31.5686 4.388C31.5686 4.24133 31.6236 4.113 31.7336 4.003C31.8436 3.893 31.9792 3.838 32.1406 3.838C32.3019 3.838 32.4376 3.893 32.5476 4.003C32.6576 4.10567 32.7126 4.23033 32.7126 4.377C32.7126 4.53833 32.6576 4.674 32.5476 4.784C32.4376 4.894 32.3019 4.949 32.1406 4.949ZM37.5587 6.17C38.1013 6.17 38.5927 6.29467 39.0327 6.544C39.4727 6.786 39.8173 7.13067 40.0667 7.578C40.316 8.02533 40.4407 8.535 40.4407 9.107C40.4407 9.679 40.316 10.1887 40.0667 10.636C39.8173 11.0833 39.4727 11.4317 39.0327 11.681C38.5927 11.9303 38.1013 12.055 37.5587 12.055C37.0747 12.055 36.6383 11.9523 36.2497 11.747C35.8683 11.5417 35.5603 11.2447 35.3257 10.856V12H34.5777V3.838H35.3587V7.314C35.6007 6.94 35.9087 6.65767 36.2827 6.467C36.664 6.269 37.0893 6.17 37.5587 6.17ZM37.5037 11.362C37.907 11.362 38.2737 11.2703 38.6037 11.087C38.9337 10.8963 39.1903 10.6287 39.3737 10.284C39.5643 9.93933 39.6597 9.547 39.6597 9.107C39.6597 8.667 39.5643 8.27467 39.3737 7.93C39.1903 7.58533 38.9337 7.32133 38.6037 7.138C38.2737 6.94733 37.907 6.852 37.5037 6.852C37.093 6.852 36.7227 6.94733 36.3927 7.138C36.07 7.32133 35.8133 7.58533 35.6227 7.93C35.4393 8.27467 35.3477 8.667 35.3477 9.107C35.3477 9.547 35.4393 9.93933 35.6227 10.284C35.8133 10.6287 36.07 10.8963 36.3927 11.087C36.7227 11.2703 37.093 11.362 37.5037 11.362ZM47.1258 6.214V12H46.3778V10.944C46.1724 11.296 45.8901 11.571 45.5308 11.769C45.1714 11.9597 44.7608 12.055 44.2988 12.055C43.5434 12.055 42.9458 11.846 42.5058 11.428C42.0731 11.0027 41.8568 10.383 41.8568 9.569V6.214H42.6378V9.492C42.6378 10.1007 42.7881 10.5627 43.0888 10.878C43.3894 11.1933 43.8184 11.351 44.3758 11.351C44.9844 11.351 45.4648 11.1677 45.8168 10.801C46.1688 10.427 46.3448 9.91 46.3448 9.25V6.214H47.1258ZM49.1921 6.214H49.9731V12H49.1921V6.214ZM49.5881 4.949C49.4268 4.949 49.2911 4.894 49.1811 4.784C49.0711 4.674 49.0161 4.542 49.0161 4.388C49.0161 4.24133 49.0711 4.113 49.1811 4.003C49.2911 3.893 49.4268 3.838 49.5881 3.838C49.7495 3.838 49.8851 3.893 49.9951 4.003C50.1051 4.10567 50.1601 4.23033 50.1601 4.377C50.1601 4.53833 50.1051 4.674 49.9951 4.784C49.8851 4.894 49.7495 4.949 49.5881 4.949ZM57.3052 3.838V12H56.5572V10.856C56.3226 11.2447 56.0109 11.5417 55.6222 11.747C55.2409 11.9523 54.8082 12.055 54.3242 12.055C53.7816 12.055 53.2902 11.9303 52.8502 11.681C52.4102 11.4317 52.0656 11.0833 51.8162 10.636C51.5669 10.1887 51.4422 9.679 51.4422 9.107C51.4422 8.535 51.5669 8.02533 51.8162 7.578C52.0656 7.13067 52.4102 6.786 52.8502 6.544C53.2902 6.29467 53.7816 6.17 54.3242 6.17C54.7936 6.17 55.2152 6.269 55.5892 6.467C55.9706 6.65767 56.2822 6.94 56.5242 7.314V3.838H57.3052ZM54.3902 11.362C54.7936 11.362 55.1566 11.2703 55.4792 11.087C55.8092 10.8963 56.0659 10.6287 56.2492 10.284C56.4399 9.93933 56.5352 9.547 56.5352 9.107C56.5352 8.667 56.4399 8.27467 56.2492 7.93C56.0659 7.58533 55.8092 7.32133 55.4792 7.138C55.1566 6.94733 54.7936 6.852 54.3902 6.852C53.9796 6.852 53.6092 6.94733 53.2792 7.138C52.9566 7.32133 52.6999 7.58533 52.5092 7.93C52.3259 8.27467 52.2342 8.667 52.2342 9.107C52.2342 9.547 52.3259 9.93933 52.5092 10.284C52.6999 10.6287 52.9566 10.8963 53.2792 11.087C53.6092 11.2703 53.9796 11.362 54.3902 11.362ZM61.7243 12.055C61.167 12.055 60.6646 11.9303 60.2173 11.681C59.77 11.4243 59.418 11.0723 59.1613 10.625C58.9046 10.1777 58.7763 9.67167 58.7763 9.107C58.7763 8.54233 58.9046 8.03633 59.1613 7.589C59.418 7.14167 59.77 6.79333 60.2173 6.544C60.6646 6.29467 61.167 6.17 61.7243 6.17C62.2816 6.17 62.784 6.29467 63.2313 6.544C63.6786 6.79333 64.027 7.14167 64.2763 7.589C64.533 8.03633 64.6613 8.54233 64.6613 9.107C64.6613 9.67167 64.533 10.1777 64.2763 10.625C64.027 11.0723 63.6786 11.4243 63.2313 11.681C62.784 11.9303 62.2816 12.055 61.7243 12.055ZM61.7243 11.362C62.135 11.362 62.5016 11.2703 62.8243 11.087C63.1543 10.8963 63.411 10.6287 63.5943 10.284C63.7776 9.93933 63.8693 9.547 63.8693 9.107C63.8693 8.667 63.7776 8.27467 63.5943 7.93C63.411 7.58533 63.1543 7.32133 62.8243 7.138C62.5016 6.94733 62.135 6.852 61.7243 6.852C61.3136 6.852 60.9433 6.94733 60.6133 7.138C60.2906 7.32133 60.034 7.58533 59.8433 7.93C59.66 8.27467 59.5683 8.667 59.5683 9.107C59.5683 9.547 59.66 9.93933 59.8433 10.284C60.034 10.6287 60.2906 10.8963 60.6133 11.087C60.9433 11.2703 61.3136 11.362 61.7243 11.362ZM71.8737 6.17C72.4164 6.17 72.9077 6.29467 73.3477 6.544C73.7877 6.786 74.1324 7.13067 74.3817 7.578C74.631 8.02533 74.7557 8.535 74.7557 9.107C74.7557 9.68633 74.631 10.1997 74.3817 10.647C74.1324 11.0943 73.7877 11.4427 73.3477 11.692C72.915 11.934 72.4237 12.055 71.8737 12.055C71.4044 12.055 70.979 11.9597 70.5977 11.769C70.2237 11.571 69.9157 11.285 69.6737 10.911V14.134H68.8927V6.214H69.6407V7.358C69.8754 6.97667 70.1834 6.68333 70.5647 6.478C70.9534 6.27267 71.3897 6.17 71.8737 6.17ZM71.8187 11.362C72.222 11.362 72.5887 11.2703 72.9187 11.087C73.2487 10.8963 73.5054 10.6287 73.6887 10.284C73.8794 9.93933 73.9747 9.547 73.9747 9.107C73.9747 8.667 73.8794 8.27833 73.6887 7.941C73.5054 7.59633 73.2487 7.32867 72.9187 7.138C72.5887 6.94733 72.222 6.852 71.8187 6.852C71.408 6.852 71.0377 6.94733 70.7077 7.138C70.385 7.32867 70.1284 7.59633 69.9377 7.941C69.7544 8.27833 69.6627 8.667 69.6627 9.107C69.6627 9.547 69.7544 9.93933 69.9377 10.284C70.1284 10.6287 70.385 10.8963 70.7077 11.087C71.0377 11.2703 71.408 11.362 71.8187 11.362ZM78.5918 12.055C78.0344 12.055 77.5321 11.9303 77.0848 11.681C76.6374 11.4243 76.2854 11.0723 76.0288 10.625C75.7721 10.1777 75.6438 9.67167 75.6438 9.107C75.6438 8.54233 75.7721 8.03633 76.0288 7.589C76.2854 7.14167 76.6374 6.79333 77.0848 6.544C77.5321 6.29467 78.0344 6.17 78.5918 6.17C79.1491 6.17 79.6514 6.29467 80.0988 6.544C80.5461 6.79333 80.8944 7.14167 81.1438 7.589C81.4004 8.03633 81.5288 8.54233 81.5288 9.107C81.5288 9.67167 81.4004 10.1777 81.1438 10.625C80.8944 11.0723 80.5461 11.4243 80.0988 11.681C79.6514 11.9303 79.1491 12.055 78.5918 12.055ZM78.5918 11.362C79.0024 11.362 79.3691 11.2703 79.6918 11.087C80.0218 10.8963 80.2784 10.6287 80.4618 10.284C80.6451 9.93933 80.7368 9.547 80.7368 9.107C80.7368 8.667 80.6451 8.27467 80.4618 7.93C80.2784 7.58533 80.0218 7.32133 79.6918 7.138C79.3691 6.94733 79.0024 6.852 78.5918 6.852C78.1811 6.852 77.8108 6.94733 77.4808 7.138C77.1581 7.32133 76.9014 7.58533 76.7108 7.93C76.5274 8.27467 76.4358 8.667 76.4358 9.107C76.4358 9.547 76.5274 9.93933 76.7108 10.284C76.9014 10.6287 77.1581 10.8963 77.4808 11.087C77.8108 11.2703 78.1811 11.362 78.5918 11.362ZM83.7503 7.347C83.9336 6.95833 84.2049 6.665 84.5643 6.467C84.9309 6.269 85.3819 6.17 85.9173 6.17V6.929L85.7303 6.918C85.1216 6.918 84.6449 7.105 84.3003 7.479C83.9556 7.853 83.7833 8.37733 83.7833 9.052V12H83.0023V6.214H83.7503V7.347Z" fill="white"/>
<g clip-path="url(#clip0_921_24730)">
<path d="M23.5623 29.8104C23.5623 28.0365 23.0232 26.4479 21.853 25.2698C20.3672 23.7739 17.9347 22.9531 14.2531 22.9531H4.18125L2.7612 28.288H10.6635H11.7811H13.977C15.2655 28.288 16.1859 28.5395 16.6856 29.0558C17.0669 29.4662 17.251 29.9427 17.251 30.5517C17.251 32.458 15.4496 33.6361 12.7015 33.6361H9.21716L10.2296 29.8898H4.07606L0 45.1928H6.15354L7.9549 38.4547H10.6635L13.5956 45.1928H20.354L16.9485 37.7002C21.4585 36.4558 23.5623 33.5302 23.5623 29.8104Z" fill="white"/>
<path d="M22.5498 45.193L26.7442 29.4663H31.5303C32.1351 29.4663 32.5822 30.0488 32.4244 30.6312L28.5456 45.193H22.5498Z" fill="white"/>
<path d="M81.5737 45.193L85.7681 29.4663H90.5542C91.1591 29.4663 91.6061 30.0488 91.4483 30.6312L87.5695 45.193H81.5737Z" fill="white"/>
<path d="M38.5517 42.8365L37.9206 45.1928H31.9248L38.0783 22H42.8776C43.4824 22 43.9295 22.5825 43.7717 23.1649L41.9835 29.8104C43.3378 28.4733 44.9814 27.6129 46.8485 27.6129C50.2276 27.6129 52.91 30.2208 52.91 34.6687C52.91 40.8376 48.6235 45.5635 43.7322 45.5635C41.1683 45.5635 39.5904 44.4515 38.5517 42.8365ZM46.8485 35.6218C46.8485 33.7818 45.6782 32.6036 43.9426 32.6036C41.6416 32.6036 39.7088 34.8937 39.7088 37.5016C39.7088 39.3417 40.9447 40.5463 42.6804 40.5463C44.9288 40.5463 46.8485 38.3621 46.8485 35.6218Z" fill="white"/>
<path d="M53.8174 40.864C53.8174 37.0779 56.8153 34.801 61.3252 34.801C62.8768 34.801 64.2968 35.0525 65.6511 35.4629L65.7169 35.2379C65.7826 34.9466 65.8746 34.6024 65.8746 34.1921C65.8746 33.0801 65.02 32.352 62.9425 32.352C61.3384 32.352 59.537 32.7359 58.3405 33.2125L57.4858 28.8307C59.2872 28.1953 61.746 27.7849 64.2048 27.7849C69.3196 27.7849 71.8047 29.8236 71.8047 33.2522C71.8047 34.0465 71.6732 34.8672 71.4628 35.7277L68.9383 45.1928H63.0345L63.5079 43.3527C62.0615 44.7162 60.5758 45.5502 58.5903 45.5502C55.7765 45.537 53.8174 43.7234 53.8174 40.864ZM64.8622 38.7062L65.02 38.137C64.3626 37.9119 63.5999 37.7531 62.7847 37.7531C60.8913 37.7531 59.6554 38.6797 59.6554 40.2286C59.6554 41.2082 60.3522 41.8171 61.3647 41.8171C62.9031 41.8171 64.3889 40.4536 64.8622 38.7062Z" fill="white"/>
<path d="M78.2736 22H83.0596C83.6645 22 84.1115 22.5825 83.9537 23.1649L78.0763 45.1796H72.0806L78.2736 22Z" fill="white"/>
<path d="M33.3317 27.2819L33.9497 25.0183C34.1075 24.4226 33.6736 23.8401 33.0556 23.8401H28.2563L33.3317 27.2819Z" fill="white"/>
<path d="M87.2803 23.8401L92.3556 27.2688L92.9736 25.0051C93.1314 24.4094 92.6975 23.8269 92.0795 23.8269H87.2803V23.8401Z" fill="white"/>
<path d="M2.51141 59.6951C2.15245 59.6607 1.84477 59.6091 1.60547 59.5575L1.74221 58.7142C2.27211 58.7658 2.92165 58.783 3.65666 58.783C4.0669 58.783 4.35748 58.7314 4.5626 58.6281C4.76772 58.5249 4.88737 58.3184 4.92156 58.043L4.95575 57.7505C4.97284 57.6988 4.97284 57.63 4.97284 57.544C4.97284 57.3546 4.90446 57.2342 4.78481 57.1481C4.66516 57.0621 4.46004 57.0277 4.18655 57.0277H3.58829C3.12677 57.0277 2.7849 56.9072 2.5285 56.6835C2.27211 56.4598 2.15245 56.15 2.15245 55.7542C2.15245 55.6337 2.15245 55.5132 2.16955 55.3928L2.25501 54.8593C2.34048 54.2741 2.57978 53.8611 2.93874 53.6202C3.2977 53.3793 3.79341 53.2588 4.42586 53.2588C4.69935 53.2588 5.02412 53.276 5.38308 53.3104C5.74203 53.3448 6.06681 53.3965 6.3403 53.4481L6.20355 54.2914C5.69076 54.2397 5.0583 54.2225 4.3062 54.2225C3.98143 54.2225 3.74213 54.2741 3.57119 54.3774C3.40026 54.4807 3.2977 54.6872 3.24642 54.9625L3.21223 55.2551C3.19514 55.3239 3.17805 55.41 3.17805 55.4788C3.17805 55.6681 3.22933 55.7886 3.33189 55.8746C3.43445 55.9435 3.60538 55.9951 3.82759 55.9951H4.46004C4.95575 55.9951 5.34889 56.1156 5.60529 56.3393C5.86169 56.563 5.99843 56.8728 5.99843 57.2686C5.99843 57.3719 5.99843 57.4923 5.98134 57.6128L5.87878 58.2151C5.79331 58.7486 5.58819 59.1444 5.22924 59.3854C4.87028 59.6263 4.34039 59.7468 3.63957 59.7468C3.26351 59.7468 2.87037 59.7296 2.51141 59.6951Z" fill="white"/>
<path d="M9.10924 53.3276H10.1006L10.8698 58.3872L13.2287 53.3276H14.2201L13.9637 59.6779H12.9381L13.1432 55.2379L11.1604 59.6779H10.169L9.58785 55.2723L8.40842 59.6779H7.34863L9.10924 53.3276Z" fill="white"/>
<path d="M18.5621 53.3276H19.8954L20.921 59.6779H19.827L19.5877 58.1807H17.2972L16.5793 59.6779H15.4854L18.5621 53.3276ZM19.4852 57.2342L19.0749 54.257L17.6904 57.2342H19.4852Z" fill="white"/>
<path d="M23.7409 53.3276H26.1169C27.2109 53.3276 27.7578 53.8439 27.7578 54.8593C27.7578 54.997 27.7407 55.1863 27.7066 55.41C27.6211 55.9607 27.4502 56.3565 27.2109 56.5802C26.9715 56.804 26.6981 56.976 26.3904 57.0621L27.1938 59.6779H26.1169L25.4161 57.2342L24.1853 57.217L23.7922 59.6951H22.7324L23.7409 53.3276ZM25.5699 56.3909C25.8776 56.3909 26.1169 56.3221 26.2878 56.1672C26.4587 56.0123 26.5784 55.737 26.6468 55.3411C26.6639 55.2723 26.6639 55.1691 26.6639 55.0314C26.6639 54.5495 26.4075 54.2914 25.8947 54.2914H24.6469L24.3221 56.3909H25.5699Z" fill="white"/>
<path d="M31.4501 54.2914H29.6211L29.7749 53.3276H34.4756L34.3217 54.2914H32.5099L31.6552 59.6951H30.5954L31.4501 54.2914Z" fill="white"/>
<path d="M39.3639 59.6953C39.005 59.6608 38.6973 59.6092 38.458 59.5576L38.5948 58.7143C39.1246 58.7659 39.7742 58.7832 40.5092 58.7832C40.9194 58.7832 41.21 58.7315 41.4151 58.6283C41.6203 58.525 41.7399 58.3185 41.7741 58.0431L41.8083 57.7506C41.8254 57.699 41.8254 57.6301 41.8254 57.5441C41.8254 57.3548 41.757 57.2343 41.6374 57.1483C41.5177 57.0622 41.3126 57.0278 41.0391 57.0278H40.4408C39.9793 57.0278 39.6374 56.9073 39.381 56.6836C39.1417 56.4771 39.005 56.1673 39.005 55.7715C39.005 55.651 39.005 55.5306 39.0221 55.4101L39.1075 54.8766C39.193 54.2915 39.4323 53.8785 39.7913 53.6375C40.1502 53.3966 40.6459 53.2761 41.2784 53.2761C41.5519 53.2761 41.8767 53.2933 42.2356 53.3277C42.5946 53.3622 42.9193 53.4138 43.1928 53.4654L43.0561 54.3087C42.5433 54.2571 41.9108 54.2399 41.1587 54.2399C40.834 54.2399 40.5947 54.2915 40.4237 54.3947C40.2528 54.498 40.1502 54.7045 40.099 54.9799L40.0648 55.2724C40.0477 55.3413 40.0306 55.4273 40.0306 55.4961C40.0306 55.6854 40.0819 55.8059 40.1844 55.892C40.287 55.9608 40.4579 56.0124 40.6801 56.0124H41.3126C41.8083 56.0124 42.2014 56.1329 42.4578 56.3566C42.7142 56.5803 42.851 56.8901 42.851 57.2859C42.851 57.3892 42.851 57.5097 42.8339 57.6301L42.7313 58.2325C42.6459 58.7659 42.4407 59.1618 42.0818 59.4027C41.7228 59.6436 41.1929 59.7641 40.4921 59.7641C40.1161 59.7469 39.74 59.7297 39.3639 59.6953Z" fill="white"/>
<path d="M45.6037 59.5747C45.296 59.4714 45.0567 59.2649 44.8858 58.9723C44.7149 58.6798 44.6294 58.284 44.6294 57.7505C44.6294 57.3891 44.6636 56.9244 44.7661 56.3393C44.8858 55.5304 45.0738 54.9109 45.3302 54.4635C45.5695 54.016 45.8943 53.7062 46.2874 53.5341C46.6806 53.362 47.1934 53.2588 47.8087 53.2588C48.2703 53.2588 48.6463 53.3104 48.954 53.4309C49.2617 53.5514 49.501 53.7579 49.6719 54.0504C49.8428 54.343 49.9283 54.7732 49.9283 55.3239C49.9283 55.7197 49.8941 56.1844 49.7916 56.7179C49.6548 57.544 49.4668 58.1635 49.2275 58.5937C48.9882 59.024 48.6634 59.3165 48.2873 59.4886C47.8942 59.6435 47.3985 59.7296 46.7661 59.7296C46.2874 59.7468 45.9114 59.6951 45.6037 59.5747ZM47.8429 58.5765C48.0651 58.4388 48.2532 58.2151 48.3899 57.9053C48.5267 57.5956 48.6463 57.1481 48.7318 56.5802C48.8172 56.0639 48.8514 55.6509 48.8514 55.3411C48.8514 55.0486 48.8001 54.8076 48.7147 54.6528C48.6292 54.4979 48.4925 54.3774 48.3215 54.3258C48.1506 54.2741 47.9113 54.2397 47.6378 54.2397C47.2618 54.2397 46.9541 54.3086 46.7319 54.429C46.5097 54.5495 46.3216 54.7732 46.1678 55.1002C46.0139 55.4272 45.8943 55.909 45.8088 56.5286C45.7234 57.0621 45.6721 57.4579 45.6721 57.7333C45.6721 58.0086 45.7063 58.2323 45.8088 58.3872C45.9114 58.5421 46.031 58.6454 46.202 58.697C46.3729 58.7486 46.6122 58.783 46.9199 58.783C47.313 58.783 47.6036 58.7142 47.8429 58.5765Z" fill="white"/>
<path d="M51.5347 58.611C51.5347 58.4905 51.5518 58.37 51.5518 58.2323L52.321 53.3276H53.3807L52.6286 58.0947C52.6115 58.1463 52.6115 58.1979 52.6115 58.284C52.6115 58.4389 52.6628 58.5593 52.7483 58.6282C52.8508 58.697 52.9705 58.7314 53.1585 58.7314H55.2439L55.0901 59.6951H52.7141C51.9278 59.6951 51.5347 59.3338 51.5347 58.611Z" fill="white"/>
<path d="M57.6026 59.2993C57.2608 59.0068 57.1069 58.5249 57.1069 57.8709C57.1069 57.5784 57.1411 57.1998 57.2266 56.7695L57.7736 53.3276H58.8333L58.2693 56.9244C58.218 57.3547 58.1838 57.63 58.1838 57.7849C58.1838 58.1291 58.2693 58.3872 58.4573 58.5421C58.6282 58.697 58.9188 58.783 59.2949 58.783C59.6025 58.783 59.8589 58.7314 60.0641 58.6282C60.2692 58.5249 60.4401 58.3528 60.5769 58.0775C60.7136 57.8021 60.8162 57.4235 60.9016 56.9244L61.4657 53.3276H62.5255L61.9272 57.0793C61.8076 57.8193 61.6366 58.37 61.3973 58.7486C61.158 59.1272 60.8675 59.3854 60.5085 59.5231C60.1495 59.6607 59.7051 59.7296 59.1581 59.7296C58.4402 59.7468 57.9274 59.5919 57.6026 59.2993Z" fill="white"/>
<path d="M65.9442 54.2914H64.1152L64.2691 53.3276H68.9697L68.8159 54.2914H66.9869L66.1322 59.6951H65.0725L65.9442 54.2914Z" fill="white"/>
<path d="M70.8503 53.3276H71.9101L70.9016 59.6779H69.8418L70.8503 53.3276Z" fill="white"/>
<path d="M74.2858 59.5747C73.9782 59.4714 73.7389 59.2649 73.5679 58.9723C73.397 58.6798 73.3115 58.284 73.3115 57.7505C73.3115 57.3891 73.3457 56.9244 73.4483 56.3393C73.5679 55.5304 73.7559 54.9109 74.0123 54.4635C74.2517 54.016 74.5764 53.7062 74.9696 53.5341C75.3627 53.362 75.8755 53.2588 76.4909 53.2588C76.9524 53.2588 77.3284 53.3104 77.6361 53.4309C77.9438 53.5514 78.1831 53.7579 78.354 54.0504C78.525 54.343 78.6104 54.7732 78.6104 55.3239C78.6104 55.7197 78.5762 56.1844 78.4737 56.7179C78.3369 57.544 78.1489 58.1635 77.9096 58.5937C77.6703 59.024 77.3455 59.3165 76.9695 59.4886C76.5934 59.6607 76.0806 59.7296 75.4482 59.7296C74.9867 59.7468 74.5935 59.6951 74.2858 59.5747ZM76.5251 58.5765C76.7473 58.4388 76.9353 58.2151 77.072 57.9053C77.2088 57.5956 77.3284 57.1481 77.4139 56.5802C77.4994 56.0639 77.5336 55.6509 77.5336 55.3411C77.5336 55.0486 77.4823 54.8076 77.3968 54.6528C77.3113 54.4979 77.1746 54.3774 77.0037 54.3258C76.8327 54.2741 76.5934 54.2397 76.3199 54.2397C75.9439 54.2397 75.6362 54.3086 75.414 54.429C75.1918 54.5495 75.0038 54.7732 74.8499 55.1002C74.6961 55.4272 74.5764 55.909 74.491 56.5286C74.4055 57.0621 74.3542 57.4579 74.3542 57.7333C74.3542 58.0086 74.3884 58.2323 74.491 58.3872C74.5935 58.5421 74.7303 58.6281 74.9012 58.697C75.0721 58.7486 75.3114 58.783 75.6191 58.783C75.9952 58.783 76.3028 58.7142 76.5251 58.5765Z" fill="white"/>
<path d="M81.0207 53.3276H81.8754L84.0291 57.8709L84.747 53.3276H85.8068L84.7983 59.6779H83.9437L81.7899 55.1174L81.072 59.6779H80.0122L81.0207 53.3276Z" fill="white"/>
<path d="M87.7892 59.6951C87.4303 59.6607 87.1226 59.6091 86.8833 59.5575L87.02 58.7142C87.5499 58.7658 88.1995 58.783 88.9345 58.783C89.3447 58.783 89.6353 58.7314 89.8404 58.6281C90.0456 58.5249 90.1652 58.3184 90.1994 58.043L90.2336 57.7505C90.2507 57.6988 90.2507 57.63 90.2507 57.544C90.2507 57.3546 90.1823 57.2342 90.0626 57.1481C89.943 57.0621 89.7379 57.0277 89.4644 57.0277H88.8661C88.4046 57.0277 88.0627 56.9072 87.8063 56.6835C87.5499 56.4598 87.4303 56.15 87.4303 55.7542C87.4303 55.6337 87.4303 55.5132 87.4474 55.3928L87.5328 54.8593C87.6183 54.2741 87.8576 53.8611 88.2166 53.6202C88.5755 53.3793 89.0712 53.2588 89.7037 53.2588C89.9772 53.2588 90.302 53.276 90.6609 53.3104C91.0199 53.3448 91.3446 53.3965 91.6181 53.4481L91.4814 54.2914C90.9686 54.2397 90.3361 54.2225 89.584 54.2225C89.2593 54.2225 89.02 54.2741 88.849 54.3774C88.6781 54.4807 88.5755 54.6872 88.5243 54.9625L88.4901 55.2551C88.473 55.3239 88.4559 55.41 88.4559 55.4788C88.4559 55.6681 88.5072 55.7886 88.6097 55.8746C88.7123 55.9435 88.8832 55.9951 89.1054 55.9951H89.7379C90.2336 55.9951 90.6267 56.1156 90.8831 56.3393C91.1395 56.563 91.2763 56.8728 91.2763 57.2686C91.2763 57.3719 91.2763 57.4923 91.2592 57.6128L91.1566 58.2151C91.0711 58.7486 90.866 59.1444 90.5071 59.3854C90.1481 59.6263 89.6182 59.7468 88.9174 59.7468C88.5413 59.7468 88.1653 59.7296 87.7892 59.6951Z" fill="white"/>
</g>
<defs>
<clipPath id="clip0_921_24730">
<rect width="93" height="38" fill="white" transform="translate(0 22)"/>
</clipPath>
</defs>
</svg>
