<svg width="41" height="42" viewBox="0 0 41 42" fill="none" xmlns="http://www.w3.org/2000/svg">
<path d="M20.5 0.786377C9.17823 0.786377 0 9.96461 0 21.2864C0 32.6088 9.17823 41.7864 20.5 41.7864C31.8224 41.7864 41 32.6088 41 21.2864C41 9.96461 31.8224 0.786377 20.5 0.786377ZM20.5 39.2642C10.6094 39.2642 2.5625 31.177 2.5625 21.2863C2.5625 11.3957 10.6094 3.3488 20.5 3.3488C30.3906 3.3488 38.4375 11.3957 38.4375 21.2863C38.4375 31.1769 30.3906 39.2642 20.5 39.2642ZM28.6814 13.7853L16.6536 25.8886L11.2372 20.4721C10.7368 19.9718 9.9258 19.9718 9.42484 20.4721C8.92451 20.9725 8.92451 21.7835 9.42484 22.2838L15.7664 28.626C16.2667 29.1257 17.0777 29.1257 17.5787 28.626C17.6364 28.5684 17.6857 28.5055 17.7306 28.4402L30.4944 15.5976C30.9941 15.0973 30.9941 14.2862 30.4944 13.7853C29.9934 13.285 29.1824 13.285 28.6814 13.7853Z" fill="#00A7E1"/>
</svg>
