<svg width="114" height="45" viewBox="0 0 114 45" fill="none" xmlns="http://www.w3.org/2000/svg">
<path d="M34.8266 12.0726C34.8266 10.3836 34.3051 8.89043 33.1877 7.76441C31.7475 6.34466 29.4134 5.56134 25.8377 5.56134H16.0543L14.6886 10.6284H22.3365H23.4291H25.5398C26.7813 10.6284 27.6752 10.8732 28.1718 11.3628C28.5443 11.7544 28.7181 12.195 28.7181 12.7825C28.7181 14.5939 26.98 15.6955 24.323 15.6955H20.9212L21.9144 12.1461H15.955L12.0068 26.6619H17.9663L19.7045 20.273H22.3365L25.1673 26.6619H31.6979L28.3953 19.5386C32.7656 18.3636 34.8266 15.5976 34.8266 12.0726Z" fill="white"/>
<path d="M33.833 26.6619L37.8805 11.7544H42.5239C43.1198 11.7544 43.5419 12.2929 43.393 12.8559L39.6435 26.6619H33.833Z" fill="white"/>
<path d="M90.9453 26.6619L94.9928 11.7544H99.6362C100.232 11.7544 100.654 12.2929 100.505 12.8559L96.7558 26.6619H90.9453Z" fill="white"/>
<path d="M49.3023 24.4343L48.6816 26.6618H42.8711L48.8305 4.68005H53.4739C54.0699 4.68005 54.492 5.21858 54.343 5.78159L52.6297 12.0726C53.9457 10.7997 55.5349 9.99191 57.3228 9.99191C60.6005 9.99191 63.1829 12.4642 63.1829 16.6746C63.1829 22.525 59.0361 27.0045 54.2934 27.0045C51.8351 27.0045 50.3204 25.952 49.3023 24.4343ZM57.3476 17.5803C57.3476 15.8423 56.2302 14.7163 54.5417 14.7163C52.3069 14.7163 50.4446 16.8949 50.4446 19.3427C50.4446 21.0807 51.6364 22.2312 53.325 22.2312C55.4853 22.2557 57.3476 20.175 57.3476 17.5803Z" fill="white"/>
<path d="M64.0771 22.5494C64.0771 18.9756 66.9824 16.797 71.3526 16.797C72.8425 16.797 74.233 17.0418 75.5243 17.4334L75.5739 17.2131C75.6236 16.9438 75.7229 16.6011 75.7229 16.2095C75.7229 15.1569 74.9035 14.4715 72.8922 14.4715C71.3278 14.4715 69.5896 14.8387 68.4226 15.2793L67.6032 11.1179C69.3413 10.506 71.7251 10.1143 74.1089 10.1143C79.0503 10.1143 81.4589 12.0481 81.4589 15.2793C81.4589 16.0381 81.3347 16.8215 81.1112 17.6292L78.6778 26.5884H72.9667L73.4136 24.8504C71.9983 26.1478 70.5829 26.9311 68.6461 26.9311C65.9891 26.9801 64.0771 25.2666 64.0771 22.5494ZM74.7793 20.5177L74.9283 19.9792C74.2827 19.7589 73.5626 19.612 72.768 19.612C70.9305 19.612 69.7386 20.4932 69.7386 21.962C69.7386 22.8921 70.4091 23.4552 71.3775 23.4552C72.8922 23.4552 74.3075 22.1578 74.7793 20.5177Z" fill="white"/>
<path d="M87.7421 4.68005H92.3855C92.9814 4.68005 93.4036 5.21858 93.2546 5.78159L87.5683 26.6374H81.7578L87.7421 4.68005Z" fill="white"/>
<path d="M44.2622 9.67374L44.8582 7.51963C45.0072 6.95662 44.5851 6.41809 43.9891 6.41809H39.3457L44.2622 9.67374Z" fill="white"/>
<path d="M96.457 6.41809L101.374 9.67374L101.97 7.51963C102.119 6.95662 101.696 6.41809 101.1 6.41809H96.457Z" fill="white"/>
<path d="M23.5034 39.7089C23.2303 39.6845 23.0068 39.66 22.833 39.611L22.9323 38.9991C23.3296 39.0235 23.8014 39.048 24.3477 39.048C24.6457 39.048 24.8692 38.9991 25.0181 38.9256C25.1671 38.8522 25.2665 38.7053 25.2913 38.485L25.3161 38.2647C25.3161 38.2402 25.3409 38.1913 25.3409 38.1178C25.3409 37.9954 25.2913 37.8975 25.192 37.8241C25.0926 37.7751 24.9436 37.7262 24.745 37.7262H24.298C23.9504 37.7262 23.7021 37.6527 23.5034 37.4814C23.3048 37.31 23.2303 37.0897 23.2303 36.796C23.2303 36.7225 23.2303 36.6246 23.2551 36.5267L23.3296 36.1351C23.4041 35.7189 23.5779 35.4007 23.8262 35.2293C24.0746 35.058 24.4719 34.9601 24.9436 34.9601C25.1423 34.9601 25.3906 34.9846 25.6389 35.009C25.9121 35.0335 26.1355 35.058 26.3342 35.107L26.2349 35.7189C25.8376 35.6944 25.3906 35.67 24.8195 35.67C24.5712 35.67 24.3974 35.7189 24.2732 35.7924C24.1491 35.8658 24.0746 36.0127 24.0249 36.233L24.0001 36.4533C23.9752 36.5022 23.9752 36.5512 23.9752 36.6001C23.9752 36.7225 24.0249 36.8205 24.0994 36.8939C24.1739 36.9429 24.298 36.9673 24.4719 36.9673H24.9436C25.3161 36.9673 25.6141 37.0408 25.7879 37.2121C25.9866 37.3835 26.0859 37.6038 26.0859 37.8975C26.0859 37.971 26.0859 38.0689 26.061 38.1423L25.9866 38.5829C25.9369 38.9746 25.7631 39.2683 25.5148 39.4397C25.2416 39.611 24.8692 39.7089 24.3477 39.7089C24.0497 39.7334 23.7766 39.7334 23.5034 39.7089Z" fill="white"/>
<path d="M28.4205 35.058H29.1655L29.7366 38.7543L31.4996 35.058H32.2197L32.021 39.6844H31.2513L31.4003 36.4533L29.9352 39.6844H29.1903L28.7682 36.4777L27.8991 39.7089H27.1045L28.4205 35.058Z" fill="white"/>
<path d="M35.447 35.058H36.4402L37.21 39.6844H36.3906L36.2167 38.5829H34.5034L33.9571 39.6844H33.1377L35.447 35.058ZM36.1423 37.8975L35.8443 35.7189L34.8262 37.8975H36.1423Z" fill="white"/>
<path d="M39.2961 35.058H41.0591C41.8786 35.058 42.2759 35.4252 42.2759 36.184C42.2759 36.2819 42.2759 36.4288 42.251 36.5757C42.1765 36.9673 42.0524 37.2611 41.8786 37.4324C41.7047 37.6038 41.4813 37.7262 41.2578 37.7751L41.8537 39.6844H41.0591L40.5377 37.8975L39.6189 37.873L39.321 39.6844H38.5264L39.2961 35.058ZM40.6618 37.2855C40.8853 37.2855 41.0591 37.2366 41.2081 37.1142C41.3571 36.9918 41.4316 36.796 41.4813 36.5267C41.4813 36.4777 41.5061 36.4043 41.5061 36.3064C41.5061 35.9392 41.3074 35.7679 40.935 35.7679H39.9914L39.7431 37.2855H40.6618Z" fill="white"/>
<path d="M45.0571 35.7679H43.6914L43.8156 35.0825H47.3167L47.1926 35.7679H45.8269L45.2061 39.709H44.4115L45.0571 35.7679Z" fill="white"/>
<path d="M50.9419 39.7089C50.6688 39.6845 50.4453 39.66 50.2715 39.611L50.3708 38.9991C50.7681 39.0235 51.2399 39.048 51.7862 39.048C52.0841 39.048 52.3076 38.9991 52.4566 38.9256C52.6056 38.8522 52.7049 38.7053 52.7298 38.485L52.7546 38.2647C52.7546 38.2402 52.7794 38.1913 52.7794 38.1178C52.7794 37.9954 52.7298 37.8975 52.6304 37.8241C52.5311 37.7751 52.3821 37.7262 52.1835 37.7262H51.7365C51.3889 37.7262 51.1406 37.6527 50.9419 37.4814C50.7433 37.31 50.6688 37.0897 50.6688 36.796C50.6688 36.7225 50.6688 36.6246 50.6936 36.5267L50.7681 36.1351C50.8426 35.7189 51.0164 35.4007 51.2647 35.2293C51.513 35.058 51.9103 34.9601 52.3821 34.9601C52.5808 34.9601 52.8291 34.9846 53.0774 35.009C53.3505 35.0335 53.574 35.058 53.7727 35.107L53.6733 35.7189C53.276 35.6944 52.8291 35.67 52.258 35.67C52.0097 35.67 51.8358 35.7189 51.7117 35.7924C51.5875 35.8658 51.513 36.0127 51.4634 36.233L51.4385 36.4533C51.4137 36.5022 51.4137 36.5512 51.4137 36.6001C51.4137 36.7225 51.4634 36.8205 51.5379 36.8939C51.6124 36.9429 51.7365 36.9673 51.9103 36.9673H52.3821C52.7546 36.9673 53.0526 37.0408 53.2264 37.2121C53.425 37.3835 53.5243 37.6038 53.5243 37.8975C53.5243 37.971 53.5244 38.0689 53.4995 38.1423L53.425 38.5829C53.3754 38.9746 53.2015 39.2683 52.9532 39.4397C52.6801 39.611 52.3076 39.7089 51.7862 39.7089C51.4882 39.7334 51.2151 39.7334 50.9419 39.7089Z" fill="white"/>
<path d="M55.5853 39.611C55.3619 39.5376 55.188 39.3907 55.0639 39.1704C54.9397 38.9501 54.8652 38.6563 54.8652 38.2892C54.8652 38.0199 54.8901 37.6772 54.9646 37.2611C55.0639 36.6736 55.188 36.2085 55.3867 35.8903C55.5605 35.572 55.8088 35.3517 56.1068 35.2049C56.4048 35.0825 56.7772 35.009 57.249 35.009C57.5966 35.009 57.8698 35.058 58.0933 35.1314C58.3167 35.2049 58.4906 35.3762 58.6396 35.572C58.7637 35.7923 58.8382 36.0861 58.8382 36.5022C58.8382 36.796 58.8134 37.1387 58.7389 37.5303C58.6396 38.1178 58.4906 38.5829 58.3167 38.9011C58.1429 39.2194 57.8946 39.4397 57.6215 39.5376C57.3235 39.66 56.951 39.7089 56.4793 39.7089C56.1068 39.7334 55.8088 39.6844 55.5853 39.611ZM57.249 38.8767C57.4228 38.7787 57.547 38.6074 57.6711 38.3871C57.7705 38.1668 57.8698 37.8241 57.9194 37.4079C57.9691 37.0408 58.0188 36.747 58.0188 36.5022C58.0188 36.2819 57.9939 36.1106 57.9194 35.9882C57.845 35.8658 57.7456 35.7923 57.6215 35.7434C57.4973 35.6944 57.3235 35.67 57.1 35.67C56.8269 35.67 56.6034 35.7189 56.4296 35.8168C56.2558 35.9147 56.1316 36.0616 56.0075 36.3064C55.9081 36.5512 55.8088 36.8939 55.7343 37.3345C55.6598 37.7262 55.635 38.0199 55.635 38.2157C55.635 38.4116 55.6598 38.5829 55.7343 38.6808C55.8088 38.8032 55.9081 38.8767 56.0323 38.9011C56.1564 38.9501 56.3303 38.9746 56.5786 38.9746C56.8517 39.0235 57.0752 38.9746 57.249 38.8767Z" fill="white"/>
<path d="M60.0049 38.9011C60.0049 38.8032 60.0049 38.7298 60.0297 38.6319L60.6008 35.058H61.3954L60.8491 38.5339C60.8491 38.5584 60.8243 38.6074 60.8243 38.6808C60.8243 38.8032 60.8491 38.8766 60.9236 38.9256C60.9981 38.9746 61.0974 38.999 61.2216 38.999H62.7611L62.6618 39.6844H60.8988C60.3029 39.7089 60.0049 39.4397 60.0049 38.9011Z" fill="white"/>
<path d="M64.5238 39.4152C64.2755 39.1949 64.1514 38.8522 64.1514 38.3627C64.1514 38.1424 64.1762 37.8731 64.2259 37.5549L64.6232 35.0336H65.4178L64.9956 37.6528C64.946 37.971 64.9211 38.1668 64.9211 38.2892C64.9211 38.534 64.9956 38.7298 65.1198 38.8522C65.2439 38.9746 65.4674 39.0236 65.7406 39.0236C65.964 39.0236 66.1627 38.9991 66.3117 38.9257C66.4607 38.8522 66.5848 38.7298 66.6841 38.534C66.7835 38.3382 66.858 38.0689 66.9324 37.7017L67.3546 35.0825H68.1492L67.7022 37.8241C67.6277 38.3627 67.4787 38.7788 67.3049 39.0481C67.1311 39.3173 66.9076 39.5132 66.6345 39.6111C66.3613 39.709 66.0385 39.7579 65.6164 39.7579C65.1446 39.7335 64.7721 39.6355 64.5238 39.4152Z" fill="white"/>
<path d="M70.7319 35.7679H69.3662L69.4904 35.0825H72.9915L72.8674 35.7679H71.5017L70.8809 39.709H70.0863L70.7319 35.7679Z" fill="white"/>
<path d="M74.3826 35.058H75.1772L74.4323 39.6844H73.6377L74.3826 35.058Z" fill="white"/>
<path d="M76.9398 39.611C76.7163 39.5376 76.5425 39.3907 76.4184 39.1704C76.2942 38.9501 76.2197 38.6563 76.2197 38.2892C76.2197 38.0199 76.2446 37.6772 76.319 37.2611C76.4184 36.6736 76.5425 36.2085 76.7412 35.8903C76.915 35.572 77.1633 35.3517 77.4613 35.2049C77.7593 35.0825 78.1317 35.009 78.6035 35.009C78.9511 35.009 79.2243 35.058 79.4478 35.1314C79.6712 35.2049 79.8451 35.3762 79.994 35.572C80.1182 35.7923 80.1927 36.0861 80.1927 36.5022C80.1927 36.796 80.1679 37.1387 80.0934 37.5303C79.994 38.1178 79.8451 38.5829 79.6712 38.9011C79.4974 39.2194 79.2491 39.4397 78.976 39.5376C78.678 39.66 78.3055 39.7089 77.8337 39.7089C77.4613 39.7334 77.1633 39.6844 76.9398 39.611ZM78.6035 38.8767C78.7773 38.7787 78.9015 38.6074 79.0256 38.3871C79.125 38.1668 79.2243 37.8241 79.2739 37.4079C79.3236 37.0408 79.3733 36.747 79.3733 36.5022C79.3733 36.2819 79.3484 36.1106 79.2739 35.9882C79.1994 35.8658 79.1001 35.7923 78.976 35.7434C78.8518 35.6944 78.678 35.67 78.4545 35.67C78.1814 35.67 77.9579 35.7189 77.7841 35.8168C77.6103 35.9147 77.4861 36.0616 77.362 36.3064C77.2626 36.5512 77.1633 36.8939 77.0888 37.3345C77.0143 37.7262 76.9895 38.0199 76.9895 38.2157C76.9895 38.4116 77.0143 38.5829 77.0888 38.6808C77.1633 38.8032 77.2378 38.8767 77.3868 38.9011C77.5109 38.9501 77.6848 38.9746 77.9331 38.9746C78.2062 39.0235 78.4297 38.9746 78.6035 38.8767Z" fill="white"/>
<path d="M81.9305 35.058H82.5761L84.1901 38.3626L84.7364 35.058H85.531L84.786 39.6844H84.1404L82.5264 36.3553L81.9801 39.6844H81.1855L81.9305 35.058Z" fill="white"/>
<path d="M86.9966 39.7089C86.7235 39.6845 86.5 39.66 86.3262 39.611L86.4255 38.9991C86.8228 39.0235 87.2946 39.048 87.8409 39.048C88.1388 39.048 88.3623 38.9991 88.5113 38.9256C88.6603 38.8522 88.7596 38.7053 88.7845 38.485L88.8093 38.2647C88.8093 38.2402 88.8341 38.1913 88.8341 38.1178C88.8341 37.9954 88.7844 37.8975 88.6851 37.8241C88.5858 37.7751 88.4368 37.7262 88.2382 37.7262H87.7912C87.4436 37.7262 87.1953 37.6527 86.9966 37.4814C86.798 37.31 86.7235 37.0897 86.7235 36.796C86.7235 36.7225 86.7235 36.6246 86.7483 36.5267L86.8228 36.1351C86.8973 35.7189 87.0711 35.4007 87.3194 35.2293C87.5926 35.058 87.965 34.9601 88.4368 34.9601C88.6355 34.9601 88.8838 34.9846 89.1321 35.009C89.4052 35.0335 89.6287 35.058 89.8274 35.107L89.728 35.7189C89.3307 35.6944 88.8838 35.67 88.3127 35.67C88.0643 35.67 87.8905 35.7189 87.7664 35.7924C87.6422 35.8658 87.5677 36.0127 87.5181 36.233L87.4932 36.4533C87.4684 36.5022 87.4684 36.5512 87.4684 36.6001C87.4684 36.7225 87.5181 36.8205 87.5926 36.8939C87.667 36.9429 87.7912 36.9673 87.965 36.9673H88.4368C88.8093 36.9673 89.1073 37.0408 89.2811 37.2121C89.4797 37.3835 89.579 37.6038 89.579 37.8975C89.579 37.971 89.579 38.0689 89.5542 38.1423L89.4797 38.5829C89.4301 38.9746 89.2562 39.2683 89.0079 39.4397C88.7348 39.611 88.3623 39.7089 87.8409 39.7089C87.5429 39.7334 87.2698 39.7334 86.9966 39.7089Z" fill="white"/>
</svg>
