<svg width="89" height="105" viewBox="0 0 89 105" fill="none" xmlns="http://www.w3.org/2000/svg">
<path d="M58.8525 23.6258C58.9278 23.6258 59.003 23.6258 59.0783 23.5506C58.7021 21.3686 58.4011 19.1866 57.7992 17.0798C56.8963 13.6939 55.2409 10.7595 52.457 8.50228C51.0274 7.37366 49.4474 6.62125 47.5663 6.62125C46.5882 6.62125 45.911 7.29842 45.8358 8.12607C45.7605 9.02897 46.4377 9.78139 47.4159 9.85663C48.6197 9.93187 49.5979 10.3833 50.5008 11.1357C52.758 13.0168 54.1123 15.575 54.7895 18.3589C55.241 20.3904 55.3914 22.4219 55.6172 24.4535C55.7676 25.4316 56.3696 26.1088 57.2725 26.1088C58.1754 26.1088 58.8525 25.4316 58.8525 24.3782C58.8525 24.2277 58.8525 23.9268 58.8525 23.6258ZM17.9965 17.3808C17.9965 12.4148 17.9965 7.4489 17.9965 2.48297C17.9965 2.25724 17.9965 1.95628 17.9965 1.73055C17.9212 0.827656 17.244 0.150483 16.3411 0.150483C15.5135 0.150483 14.8363 0.827656 14.7611 1.73055C14.7611 1.95628 14.7611 2.182 14.7611 2.40773C14.7611 12.3396 14.7611 22.3467 14.7611 32.2786C14.7611 32.5795 14.7611 32.8053 14.7611 33.1062C14.8363 33.9339 15.5135 34.4606 16.3411 34.5358C17.1688 34.5358 17.846 33.9339 17.9965 33.1815C18.0717 32.8805 17.9965 32.5795 17.9965 32.2786C17.9965 27.1622 17.9965 22.2715 17.9965 17.3808ZM11.4505 17.3055C11.4505 12.3396 11.4505 7.37366 11.4505 2.40773C11.4505 2.10676 11.4505 1.80579 11.4505 1.50483C11.3 0.677173 10.6228 0.075242 9.79514 0.150483C9.04273 0.150483 8.36555 0.752415 8.21507 1.58007C8.13983 1.88104 8.21507 2.10676 8.21507 2.40773C8.21507 12.3396 8.21507 22.3467 8.21507 32.2786C8.21507 32.5043 8.21507 32.73 8.21507 32.9557C8.29031 33.8586 8.96749 34.4606 9.79514 34.5358C10.698 34.5358 11.3752 33.8586 11.4505 32.9557C11.4505 32.73 11.4505 32.4291 11.4505 32.2033C11.4505 27.1622 11.4505 22.2715 11.4505 17.3055ZM15.363 66.9649C15.5135 72.0813 15.664 77.2729 15.7392 82.3894C15.8145 84.6466 15.8897 86.8286 15.9649 89.0859C15.9649 89.3116 15.9649 89.6125 15.9649 89.8383C16.0402 90.9669 16.7174 91.6441 17.6955 91.5688C18.5984 91.4936 19.2756 90.8164 19.2003 89.6878C19.1251 85.2485 18.9746 80.8093 18.8241 76.37C18.5231 66.2125 18.2222 56.0549 17.9212 45.8973C17.9212 45.4458 17.9965 45.1449 18.4479 44.9191C23.79 41.9847 26.273 37.395 25.972 31.3757C25.4454 21.5943 24.9187 11.7377 24.392 1.95628C24.3167 0.752415 23.7148 0.0752417 22.7367 0.0752417C21.7585 0.0752417 21.0814 0.827656 21.1566 2.03152C21.2318 3.68683 21.3071 5.34214 21.3823 6.99745C21.8338 15.4245 22.2852 23.7763 22.7367 32.2033C22.9624 36.6426 20.3289 40.7056 16.1907 42.4362C14.7611 43.0381 14.5353 43.3391 14.6106 44.9191C14.9868 52.2175 15.2125 59.5912 15.363 66.9649ZM7.31217 72.5327C7.31217 72.6832 7.31217 73.0594 7.31217 73.4356C7.08645 81.5617 6.78548 89.6878 6.55976 97.8139C6.48452 100.146 7.38741 102.103 9.34369 103.382C11.6009 104.887 14.0087 105.037 16.3411 103.758C18.5984 102.554 19.727 100.598 19.5013 97.9643C19.426 96.9862 19.426 95.9328 19.426 94.9547C19.426 93.8261 18.7489 93.2241 17.846 93.1489C16.8678 93.1489 16.1907 93.8261 16.1907 94.9547C16.1907 96.1585 16.2659 97.2872 16.2659 98.491C16.2659 99.4692 15.8897 100.222 14.9868 100.748C13.8582 101.425 12.6543 101.501 11.4505 100.824C10.2466 100.222 9.79514 99.1682 9.87038 97.8139C9.94562 94.9547 10.0209 92.0955 10.0961 89.2363C10.5476 74.4138 10.999 59.5912 11.4505 44.7687C11.5257 43.2638 11.3 42.9629 9.87038 42.3609C5.7321 40.7056 3.17389 36.7931 3.32437 32.3538C3.47486 27.9146 3.77582 23.4753 4.00154 19.0361C4.30251 13.3177 4.60348 7.59938 4.90445 1.95628C4.97969 0.752415 4.30251 0 3.32437 0C2.34624 0 1.66906 0.677173 1.59382 1.88104C1.51858 3.53635 1.44334 5.2669 1.29286 6.92221C0.84141 15.274 0.314722 23.6258 0.0137567 32.0528C-0.211968 37.696 2.34623 41.9847 7.23693 44.7687C7.9141 45.1449 8.13982 45.5963 8.13982 46.3487C7.9141 55.0015 7.61314 63.6543 7.31217 72.5327ZM76.6095 68.6954C76.6095 68.9964 76.6848 69.1469 76.6848 69.3726C76.3838 75.5424 76.0828 81.7122 75.7066 87.882C75.5562 91.2679 75.2552 94.6537 75.1799 98.0396C75.1047 102.328 79.243 105.488 83.3812 104.36C86.3157 103.607 88.2719 100.974 88.2719 97.7386C88.2719 65.9115 88.2719 34.0844 88.2719 2.25724C88.2719 2.03152 88.2719 1.80579 88.2719 1.58007C88.1215 0.300966 86.6919 -0.376207 85.7137 0.451449C82.6288 2.85917 80.1459 5.71835 78.1896 9.10421C77.7381 9.93187 77.9639 10.8348 78.7163 11.2862C79.4687 11.7377 80.2964 11.5872 80.8983 10.8348C81.124 10.609 81.2745 10.3081 81.425 10.0071C82.4031 8.72801 83.3813 7.4489 84.3594 6.1698C84.5099 6.01931 84.6604 5.86883 84.9613 5.64311C84.9613 5.94407 84.9613 6.1698 84.9613 6.32028C84.9613 36.8683 84.9613 67.4163 84.9613 97.8891C84.9613 99.9206 83.5317 101.35 81.6507 101.35C79.7697 101.35 78.3401 99.7701 78.4906 97.7386C78.7915 92.0955 79.0925 86.3772 79.3935 80.734C79.6192 76.37 79.8449 71.9308 80.0706 67.5668C80.1459 66.062 79.5439 65.46 77.9639 65.46C76.2333 65.46 74.5028 65.46 72.7722 65.46C72.5465 65.46 72.2455 65.46 71.9446 65.3848C71.9446 65.1591 71.8693 65.0086 71.8693 64.9333C71.9446 56.8825 71.8693 48.9069 72.095 40.8561C72.3208 34.3853 73.5246 28.0651 75.6314 21.8953C76.3838 19.7885 77.2867 17.6817 78.1896 15.6502C78.641 14.4464 78.1143 13.3177 76.9105 13.2425C76.1581 13.1673 75.5561 13.5435 75.1047 14.5216C71.4931 22.121 69.6873 30.1718 68.9349 38.5236C68.1073 48.004 68.6339 57.5597 68.5587 67.1153C68.5587 68.1687 69.2359 68.7707 70.214 68.8459C71.1169 68.8459 72.095 68.8459 72.9979 68.8459C74.277 68.6954 75.4057 68.6954 76.6095 68.6954ZM49.8988 72.9089C49.8236 72.9089 49.8236 72.9089 49.8988 72.9089C50.1245 81.035 50.4255 89.0859 50.6512 97.2119C50.6512 97.7386 50.7265 98.3406 50.576 98.8672C50.275 100.372 48.695 101.501 47.2654 101.35C45.6101 101.2 44.1805 99.6949 44.1805 97.9643C44.1805 97.2872 44.1805 96.61 44.2557 95.9328C44.6319 84.3456 45.0081 72.8337 45.3843 61.2465C45.3843 60.9456 45.3843 60.6446 45.3843 60.3436C45.3091 59.516 44.6319 58.914 43.8043 58.914C42.9766 58.914 42.2994 59.4407 42.149 60.3436C42.0737 60.6446 42.149 60.8703 42.0737 61.1713C41.848 68.5449 41.6223 75.8434 41.3213 83.217C41.1708 88.1077 40.9451 92.9984 40.8698 97.8891C40.7946 101.275 43.5033 104.285 46.8892 104.661C50.5007 105.037 53.9619 102.027 53.8866 98.3406C53.8114 94.127 53.6609 89.8383 53.5104 85.6247C53.2847 78.2511 53.059 70.8022 52.758 63.4285C52.6075 58.7636 52.457 54.0986 52.3065 49.5089C52.3065 49.1326 52.2313 48.7564 52.758 48.5307C57.0468 46.5744 59.9812 43.1886 62.0127 39.0503C65.4738 32.0528 66.151 24.7544 64.4204 17.2303C63.2166 12.1139 60.8841 7.59938 56.8963 4.06304C52.0808 -0.150483 45.8358 -0.902897 40.4936 2.182C37.1078 4.13828 34.5496 6.99745 32.819 10.4586C28.0788 20.0895 28.154 29.7956 33.0447 39.4265C35.0763 43.3391 37.9354 46.5744 41.9232 48.606C42.1489 48.7564 42.3747 49.2079 42.3747 49.5089C42.3747 51.5404 42.2994 53.5719 42.2242 55.6034C42.2242 56.2806 42.3747 56.8825 43.0518 57.2587C44.1805 57.9359 45.4596 57.1082 45.5348 55.6034C45.6101 53.1204 45.6853 50.5622 45.7605 48.0793C45.7605 46.8002 45.5348 46.424 44.331 45.9725C43.9547 45.822 43.6538 45.6715 43.2776 45.5211C39.365 43.4895 36.9573 40.1789 35.2267 36.3416C32.518 30.3223 32.0666 24.0773 33.6467 17.6817C34.6248 13.6939 36.3554 10.0824 39.2898 7.22318C43.3528 3.23538 48.6197 2.55821 53.2094 5.34214C55.1657 6.546 56.6706 8.20132 57.9497 10.0824C63.5175 18.5094 63.4423 31.6766 57.7992 40.0284C56.0686 42.5866 53.8866 44.7687 50.877 45.8973C49.1464 46.4992 48.9959 46.7249 49.0712 48.606C49.2969 56.5816 49.5978 64.7076 49.8988 72.9089Z" fill="#00A7E1"/>
<path d="M49.8991 72.9089C49.5982 64.7076 49.3724 56.5063 49.0715 48.3802C48.9962 46.4992 49.1467 46.3487 50.8773 45.6715C53.8869 44.5429 55.9937 42.3609 57.7995 39.8027C63.5178 31.4509 63.5931 18.2836 57.95 9.85659C56.6709 7.97556 55.166 6.32025 53.2097 5.11638C48.62 2.25721 43.3531 3.00962 39.2901 6.99742C36.3557 9.93183 34.5499 13.5434 33.647 17.456C32.0669 23.8515 32.5183 30.0965 35.227 36.1159C36.9576 40.0284 39.4406 43.2638 43.2779 45.2953C43.5788 45.4458 43.9551 45.5963 44.3313 45.7467C45.5351 46.1982 45.8361 46.6497 45.7608 47.8535C45.6856 50.3365 45.6104 52.8947 45.5351 55.3777C45.4599 56.8072 44.256 57.6349 43.0521 57.033C42.375 56.6568 42.2245 56.0548 42.2245 55.3777C42.2997 53.3461 42.375 51.3146 42.375 49.2831C42.375 48.9821 42.1492 48.5307 41.9235 48.3802C37.9357 46.3487 35.0013 43.1133 33.045 39.2007C28.1544 29.6451 28.0039 19.9389 32.8193 10.2328C34.5499 6.77169 37.0328 3.91252 40.4939 1.95624C45.8361 -1.12866 52.0811 -0.376242 56.8966 3.83728C60.8844 7.37363 63.2169 11.8881 64.4207 17.0045C66.1513 24.5287 65.4741 31.9023 62.013 38.8245C59.9815 42.9628 57.0471 46.3487 52.7583 48.305C52.2316 48.5307 52.3069 48.9069 52.3069 49.2831C52.4573 53.9481 52.6078 58.613 52.7583 63.2028C52.984 70.5764 53.2098 78.0253 53.5107 85.399C53.6612 89.6125 53.8117 93.9013 53.8869 98.1148C53.9622 101.802 50.5011 104.811 46.8895 104.435C43.5036 104.059 40.7949 101.049 40.8701 97.6633C40.9454 92.7726 41.1711 87.882 41.3216 82.9913C41.5473 75.6176 41.7731 68.3192 42.074 60.9455C42.074 60.6446 42.074 60.4188 42.1493 60.1179C42.2997 59.2902 42.9769 58.6883 43.8046 58.6883C44.6322 58.6883 45.3094 59.2902 45.3846 60.1179C45.3846 60.4188 45.3846 60.7198 45.3846 61.0208C45.0084 72.6079 44.6322 84.1199 44.256 95.7071C44.256 96.3842 44.1808 97.0614 44.1808 97.7386C44.256 99.3939 45.6104 100.899 47.2657 101.124C48.6953 101.275 50.2753 100.146 50.5763 98.6415C50.6515 98.1148 50.6515 97.5881 50.6515 96.9862C50.3506 89.1611 50.1248 81.035 49.8991 72.9089C49.8239 72.9089 49.8239 72.9089 49.8991 72.9089Z" fill="#00A7E1"/>
<path d="M15.3637 66.9648C15.1379 59.5912 14.9122 52.2927 14.7617 44.9191C14.6865 43.339 14.9122 43.0381 16.3418 42.4361C20.4048 40.7056 23.1135 36.6425 22.8878 32.2033C22.4364 23.7762 21.9849 15.4244 21.5335 6.99741C21.4582 5.3421 21.383 3.68678 21.3077 2.03147C21.2325 0.82761 21.9097 0.0751953 22.8878 0.0751953C23.8659 0.0751953 24.5431 0.752368 24.5431 1.95623C25.0698 11.7376 25.5965 21.5942 26.1232 31.3756C26.4241 37.4702 23.9412 41.9847 18.599 44.9191C18.1476 45.1448 18.0724 45.4458 18.0724 45.8972C18.3733 56.0548 18.6743 66.2124 18.9752 76.37C19.1257 80.8092 19.201 85.2485 19.3515 89.6877C19.3515 90.8164 18.7495 91.4935 17.8466 91.5688C16.8685 91.644 16.1913 90.8916 16.1161 89.8382C16.1161 89.6125 16.1161 89.3115 16.1161 89.0858C16.0408 86.8286 15.9656 84.6466 15.8904 82.3893C15.6646 77.1977 15.5141 72.0812 15.3637 66.9648Z" fill="#00A7E1"/>
<path d="M17.9964 17.3808C17.9964 22.2715 17.9964 27.2374 17.9964 32.1281C17.9964 32.4291 17.9964 32.73 17.9964 33.031C17.8459 33.8586 17.1687 34.4606 16.3411 34.3853C15.5886 34.3853 14.9115 33.7834 14.761 32.9557C14.6857 32.6548 14.761 32.4291 14.761 32.1281C14.761 22.1962 14.761 12.1891 14.761 2.25724C14.761 2.03152 14.761 1.80579 14.761 1.58007C14.8362 0.677173 15.5134 0.0752414 16.3411 0C17.244 0 17.9211 0.677173 17.9964 1.58007C17.9964 1.80579 17.9964 2.10676 17.9964 2.33248C17.9964 7.37366 17.9964 12.3396 17.9964 17.3808Z" fill="#00A7E1"/>
</svg>
