<svg width="115" height="100" viewBox="0 0 115 100" fill="none" xmlns="http://www.w3.org/2000/svg">
<path d="M72.1519 64.575C72.2269 64.875 72.3019 65.1 72.3769 65.325C73.4269 68.775 71.0269 72.525 67.3519 72.675C64.8769 72.825 62.3269 72.75 59.8519 72.75C58.5769 72.75 57.3019 72.75 56.0269 72.825C55.0519 72.9 54.4519 73.575 54.4519 74.4C54.4519 75.3 55.0519 75.975 56.0269 76.05C56.2519 76.05 56.4019 76.05 56.6269 76.05C62.6269 76.05 68.7019 76.05 74.7019 76.05C75.0769 76.05 75.6019 75.9 75.9019 75.675C80.8519 72.15 85.7269 68.625 90.6769 65.175C90.9019 65.025 91.0519 64.875 91.4269 64.575H72.1519ZM18.2269 54.675C18.3019 55.05 18.3769 55.35 18.4519 55.65C18.5269 55.875 18.6019 56.175 18.7519 56.4C20.4019 59.7 23.1019 61.275 26.7019 61.275C33.0019 61.275 39.3019 61.2 45.6019 61.275C52.9519 61.275 60.2269 61.275 67.5769 61.35C79.0519 61.35 90.5269 61.35 102.002 61.35C103.952 61.35 105.827 60.825 107.327 59.625C108.902 58.425 109.952 56.85 110.402 54.75H18.2269V54.675ZM34.5769 89.325H35.7019C48.0769 89.325 60.4519 89.325 72.9019 89.325C75.6769 89.325 78.0019 88.5 80.1769 86.7C84.1519 83.325 88.2019 80.1 92.1769 76.725C94.6519 74.625 97.2019 72.6 99.6769 70.5C100.727 69.6 101.102 68.475 100.727 67.125C100.352 65.85 99.3769 65.1 98.1019 64.95C97.1269 64.8 96.3769 65.175 95.5519 65.775C89.5519 70.05 83.5519 74.325 77.5519 78.6C76.8769 79.125 76.1269 79.35 75.2269 79.35C69.0769 79.35 62.9269 79.35 56.7769 79.35C56.2519 79.35 55.7269 79.35 55.2019 79.275C53.1019 78.975 51.3019 77.025 51.1519 74.85C50.9269 71.7 53.1019 69.45 56.4019 69.45C59.3269 69.45 62.2519 69.45 65.1769 69.45C65.8519 69.45 66.5269 69.45 67.2019 69.375C69.0769 69.15 69.9769 67.05 68.8519 65.55C68.2519 64.725 67.4269 64.5 66.4519 64.5C59.5519 64.5 52.5769 64.5 45.6769 64.5C44.1019 64.5 42.8269 64.95 41.7019 65.925C39.5269 67.725 37.3519 69.525 35.1769 71.325C34.7269 71.7 34.5769 72.075 34.5769 72.675C34.5769 77.925 34.5769 83.1 34.5769 88.35V89.325ZM104.027 51.15C104.252 39.15 97.9519 24.3 83.4769 16.575C69.4519 9 55.3519 9.675 42.0769 18.525C30.6769 26.175 25.0519 37.35 24.5269 51.15H104.027ZM37.9519 64.5C36.6769 64.5 35.4019 64.5 34.1269 64.5C31.5769 64.5 29.0269 64.5 26.4769 64.5C20.8519 64.425 16.4269 60.975 15.0019 55.5C14.8519 54.75 14.7019 54 14.7019 53.175C14.6269 51.9 15.3019 51.225 16.5769 51.225C17.8519 51.225 19.1269 51.15 20.4019 51.225C21.1519 51.225 21.3769 51 21.3769 50.25C21.5269 42 23.8519 34.425 28.4269 27.6C34.3519 18.75 42.3769 12.75 52.6519 9.75C55.7269 8.85 58.8769 8.325 62.0269 8.175C62.5519 8.175 62.7769 8.025 62.7769 7.425C62.7769 6.15 62.7769 4.95 62.7769 3.675C62.7769 3.225 62.6269 3 62.1769 3.075C61.3519 3.075 60.4519 3.075 59.5519 3.075V0H69.4519C69.4519 0.975 69.4519 1.95 69.4519 2.925C69.4519 3.075 69.1519 3.225 69.0019 3.225C68.3269 3.225 67.5769 3.3 66.9019 3.225C66.3769 3.225 66.1519 3.45 66.2269 3.975C66.2269 5.175 66.2269 6.375 66.2269 7.65C66.2269 8.1 66.3769 8.325 66.9019 8.325C71.8519 8.55 76.6519 9.6 81.1519 11.625C93.5269 17.025 101.777 26.25 105.827 39.15C106.952 42.825 107.477 46.575 107.552 50.475C107.552 51.15 107.777 51.375 108.452 51.3C109.727 51.225 111.002 51.3 112.277 51.3C113.627 51.3 114.227 51.975 114.227 53.325C114.152 58.8 109.727 63.675 104.327 64.35C104.027 64.425 103.727 64.425 103.427 64.5C103.727 65.325 104.027 66 104.177 66.75C104.702 69.225 104.027 71.4 102.077 73.05C95.4019 78.675 88.6519 84.225 81.9019 89.775C79.5019 91.725 76.8019 92.7 73.6519 92.7C61.0519 92.7 48.4519 92.7 35.8519 92.7C34.7269 92.7 34.7269 92.7 34.7269 93.75C34.7269 95.025 34.7269 96.225 34.7269 97.5C34.7269 98.7 34.0519 99.3 32.8519 99.3C27.0019 99.3 21.1519 99.3 15.3019 99.3C15.2269 99.3 15.0769 99.3 14.9269 99.3V96.075H31.2769V71.175H14.7769V67.875C15.0019 67.875 15.3019 67.8 15.5269 67.8C21.0769 67.8 26.7019 67.8 32.2519 67.8C32.4769 67.8 32.7019 67.725 32.8519 67.8C33.8269 68.25 34.3519 67.65 35.0269 67.125C36.0019 66.3 36.9769 65.475 37.9519 64.65C37.9519 64.65 37.9519 64.575 37.9519 64.5Z" fill="#00A7E1"/>
<path d="M4.95177 86.1001C4.05177 86.1001 3.30177 86.8501 3.37677 87.7501C3.37677 88.6501 4.20177 89.4001 5.02677 89.3251C5.92677 89.3251 6.67677 88.5751 6.60177 87.6751C6.60177 86.7751 5.85177 86.1001 4.95177 86.1001ZM4.95177 82.7251C7.72677 82.7251 9.90177 84.9751 9.90177 87.6751C9.90177 90.3751 7.65177 92.6251 4.95177 92.6251C2.25177 92.6251 -0.0732344 90.3001 0.00176561 87.6001C0.00176561 84.9751 2.25177 82.7251 4.95177 82.7251Z" fill="#00A7E1"/>
<path d="M30.4521 24.7501C37.5021 18.3001 45.7521 15.0001 55.3521 14.8501C55.3521 15.4501 55.3521 15.9751 55.3521 16.5001C55.3521 17.0251 55.3521 17.5501 55.3521 18.1501C46.6521 18.3001 39.1521 21.3001 32.7021 27.1501C31.9521 26.3251 31.2021 25.5751 30.4521 24.7501Z" fill="#00A7E1"/>
<path d="M18.6764 33.0749C17.7764 32.4749 16.9514 31.8749 15.9014 31.2749C16.9514 29.8499 18.0014 28.5749 19.0514 27.1499C19.9514 27.8999 20.7014 28.6499 21.5264 29.3249C20.5514 30.5999 19.6514 31.7999 18.6764 33.0749Z" fill="#00A7E1"/>
</svg>
