<svg width="121" height="103" viewBox="0 0 121 103" fill="none" xmlns="http://www.w3.org/2000/svg">
<path d="M50.442 36.5622C49.8415 37.6131 49.3161 38.5139 48.7906 39.4146C48.1901 40.3904 47.6647 40.6156 46.5388 40.2403C44.5121 39.6398 42.4103 39.1144 40.3836 38.5889C39.4078 38.3637 38.9575 37.9134 38.9575 36.8625C38.9575 35.9617 38.9575 34.9859 38.9575 34.0852C38.9575 33.6348 38.8824 33.4096 38.3569 33.4096C36.9307 33.4096 35.5796 33.4096 34.1534 33.4096C33.7031 33.4096 33.553 33.6348 33.553 34.0101C33.553 34.9109 33.553 35.8867 33.553 36.7874C33.553 37.8383 33.1026 38.2887 32.0517 38.5139C30.1001 38.9642 28.1484 39.4897 26.2719 40.0902C24.6956 40.5406 24.2452 40.4655 23.4195 39.0393C22.9691 38.2136 22.4437 37.3879 21.9183 36.4872C20.342 37.3879 18.8407 38.2887 17.2644 39.1894C17.8649 40.1652 18.3903 41.1411 18.9158 42.0418C19.5163 43.1677 19.4412 43.6932 18.4654 44.5939C16.9641 46.0201 15.5379 47.4463 14.1868 48.8725C13.2861 49.8483 12.7606 49.9984 11.5596 49.3229C10.6589 48.7974 9.75812 48.272 8.85737 47.7466C8.40699 48.5722 7.95663 49.3229 7.50625 50.0735C7.05588 50.8241 6.68057 51.5748 6.15514 52.4004C7.13095 52.9259 7.95664 53.4513 8.78232 53.9017C10.1334 54.6523 10.2085 55.1027 9.75813 56.6039C9.15763 58.4805 8.70725 60.3571 8.25688 62.2336C7.95663 63.5097 7.58131 63.9601 6.30525 63.9601C5.25437 63.9601 4.20351 63.9601 3.07757 63.9601V69.2895C4.20351 69.2895 5.32944 69.2895 6.38031 69.2895C7.50625 69.2895 7.95662 69.7399 8.18181 70.7908C8.63218 72.8174 9.15763 74.7691 9.75813 76.7207C10.1334 78.0718 10.0584 78.5222 8.78232 79.2728C7.88157 79.7983 7.05588 80.3237 6.08007 80.8491C6.98082 82.4254 7.88157 83.9267 8.70726 85.4279C8.85738 85.3529 8.93244 85.3529 9.0075 85.3529C9.83319 84.9025 10.7339 84.3771 11.5596 83.8516C12.6105 83.2511 13.136 83.4013 14.0367 84.2269C15.4629 85.7282 16.9641 87.2294 18.4654 88.6556C19.3661 89.4813 19.4412 90.0818 18.8407 91.1327C18.3153 92.0335 17.7898 93.0093 17.1893 93.9851C18.7656 94.8858 20.2669 95.7115 21.8432 96.6873C22.4437 95.6365 22.9691 94.7357 23.4946 93.7599C24.0951 92.709 24.6205 92.634 25.7464 92.9342C27.6981 93.5347 29.7248 94.0601 31.6764 94.5105C32.9525 94.8108 33.3278 95.1861 33.3278 96.5372C33.3278 97.5881 33.3278 98.639 33.3278 99.6898H38.6572C38.6572 98.4888 38.6572 97.3629 38.6572 96.2369C38.6572 95.1861 39.1076 94.7357 40.0834 94.5105C42.1101 93.9851 44.1368 93.5347 46.0884 92.9342C47.3645 92.5589 47.8899 92.709 48.5655 93.91C49.0909 94.8108 49.6163 95.7115 50.1418 96.6873C51.7181 95.7866 53.2193 94.8858 54.7956 93.9851C54.1951 92.9342 53.6697 92.0335 53.1443 91.1327C52.5438 90.0818 52.6939 89.4813 53.5947 88.6556C55.0959 87.2294 56.5221 85.8033 57.9483 84.302C58.849 83.4013 59.3744 83.2511 60.5004 83.8516C61.4011 84.3771 62.377 84.9025 63.3528 85.503C64.2535 83.9267 65.1543 82.4254 66.055 80.8491C65.0792 80.2486 64.1784 79.7983 63.2777 79.2728C62.1518 78.5973 62.0016 78.0718 62.3769 76.7958C62.9024 74.9192 63.4278 73.0426 63.8782 71.1661C64.2535 69.5147 64.5538 69.2895 66.2052 69.2895C67.181 69.2895 68.1568 69.2895 69.2076 69.2895C69.2076 67.5631 69.2076 66.0618 69.2076 64.4855C69.2076 63.9601 68.9074 63.885 68.5321 63.885C67.6313 63.885 66.7306 63.885 65.8298 63.885C64.7039 63.885 64.2535 63.4346 64.0283 62.3838C63.5029 60.3571 63.0525 58.4054 62.452 56.4538C62.0767 55.1027 62.2268 54.5773 63.4278 53.9017C64.3286 53.3763 65.1543 52.9259 66.1301 52.3254C65.2293 50.7491 64.3286 49.2478 63.4278 47.6715C62.377 48.272 61.4011 48.8725 60.4253 49.3979C59.5246 49.9234 58.9241 49.7733 58.1735 49.0226C56.6722 47.5214 55.171 45.9451 53.6697 44.5189C52.844 43.7682 52.6939 43.1677 53.2944 42.1919C53.8198 41.2161 54.3453 40.3154 54.9458 39.2645C53.5196 38.2887 52.0183 37.463 50.442 36.5622ZM36.1801 102.842C34.9041 102.842 33.628 102.842 32.3519 102.842C31.0759 102.842 30.5505 102.317 30.5505 100.966C30.5505 99.9901 30.5505 99.0143 30.5505 97.9634C30.5505 97.513 30.4003 97.3629 30.025 97.2878C28.7489 96.9876 27.5479 96.6123 26.2719 96.312C26.0467 96.237 25.6714 96.3871 25.5213 96.6123C24.9208 97.513 24.4704 98.4138 23.9449 99.3145C23.3444 100.29 22.5938 100.516 21.543 99.915C19.2911 98.639 16.9641 97.2878 14.7123 96.0118C13.5863 95.4113 13.4362 94.6606 14.1117 93.5347C14.6372 92.709 15.0876 91.8083 15.613 90.9826C15.8382 90.6073 15.8382 90.3821 15.538 90.0818C14.6372 89.1811 13.6614 88.2803 12.8357 87.3796C12.5354 87.0793 12.3102 87.0793 11.9349 87.3045C11.0342 87.83 10.1334 88.3554 9.23268 88.8808C8.25687 89.4063 7.50624 89.2561 6.9808 88.2803C5.62968 85.9534 4.20349 83.5514 2.85237 81.2244C2.40199 80.3988 2.62719 79.5731 3.45288 79.0476C4.35363 78.5222 5.32943 77.9217 6.23018 77.4713C6.60549 77.2461 6.68055 77.0209 6.60549 76.5706C6.23018 75.3696 5.92994 74.1686 5.62969 73.0426C5.55463 72.5923 5.32943 72.3671 4.804 72.3671C3.75312 72.4421 2.70226 72.3671 1.65138 72.3671C0.600509 72.3671 0.0750625 71.7666 0 70.7908C0 68.0885 0 65.3112 0 62.6089C0 61.6331 0.600509 61.0326 1.65138 61.0326C2.70226 61.0326 3.75312 61.0326 4.804 61.0326C5.32943 61.0326 5.47956 60.8825 5.62969 60.3571C5.92994 59.1561 6.23018 57.9551 6.60549 56.8291C6.75562 56.3787 6.60549 56.1536 6.23018 55.9284C5.32943 55.478 4.50375 54.9526 3.67806 54.4271C2.62718 53.8266 2.402 53.076 3.0025 52.0251C4.27856 49.7733 5.55464 47.5214 6.90576 45.2695C7.58132 44.1436 8.33194 43.9934 9.45788 44.5939C10.2836 45.1194 11.1843 45.5697 12.01 46.0952C12.3853 46.3204 12.6105 46.2453 12.9108 45.9451C13.8115 45.0443 14.6372 44.1436 15.613 43.3179C15.9883 43.0176 15.9883 42.7174 15.7631 42.3421C15.2377 41.5164 14.7873 40.6156 14.2619 39.7899C13.6614 38.7391 13.8115 37.9884 14.8624 37.3879C17.1142 36.0368 19.4412 34.7607 21.7681 33.4096C22.7439 32.8842 23.4946 33.0343 24.0951 34.0101C24.6205 34.9109 25.1459 35.7366 25.5963 36.6373C25.8215 37.0877 26.1218 37.1627 26.5721 37.0126C27.7732 36.6373 28.9741 36.3371 30.1001 36.0368C30.5504 35.9617 30.7006 35.7366 30.7006 35.2862C30.7006 34.2353 30.7006 33.1844 30.7006 32.1336C30.7006 31.0827 31.226 30.4822 32.2769 30.4822C35.0542 30.4822 37.7564 30.4822 40.5338 30.4822C41.5096 30.4822 42.035 31.0827 42.1101 32.0585C42.1101 33.1094 42.1101 34.0852 42.1101 35.1361C42.1101 35.6615 42.2602 35.9617 42.8607 36.0368C43.9866 36.262 45.1126 36.5622 46.1634 36.9376C46.6889 37.0877 46.9891 37.0877 47.2894 36.5622C47.7398 35.7366 48.2652 34.9109 48.7156 34.0852C49.3912 33.0343 50.0667 32.8091 51.1176 33.4096C53.3694 34.6857 55.6213 35.9617 57.8732 37.3129C58.9991 37.9884 59.2243 38.7391 58.5488 39.865C58.0233 40.6907 57.573 41.5914 57.0475 42.4171C56.8223 42.7924 56.8974 43.0176 57.1976 43.3179C58.0984 44.2186 58.9991 45.0443 59.8248 46.0201C60.1251 46.3954 60.4253 46.3954 60.8006 46.1702C61.7014 45.6448 62.5271 45.1194 63.4278 44.669C64.4036 44.1436 65.2293 44.2937 65.7547 45.2695C67.1059 47.5964 68.457 49.9234 69.8081 52.3254C70.3336 53.2261 70.1084 53.9767 69.2076 54.5022C68.3069 55.0276 67.3311 55.6281 66.4303 56.0785C66.055 56.3037 65.9799 56.5289 66.1301 56.9042C66.5054 58.1052 66.7306 59.3062 67.1059 60.5072C67.181 60.7324 67.5563 61.0326 67.7814 61.0326C68.7573 61.1077 69.8082 61.0326 70.859 61.0326C72.06 61.0326 72.6605 61.6331 72.6605 62.8341C72.6605 65.4613 72.6605 68.0134 72.6605 70.6406C72.6605 71.9167 72.06 72.4421 70.859 72.4421C69.8832 72.4421 68.9074 72.4421 67.8565 72.4421C67.4062 72.4421 67.181 72.5923 67.1059 73.0426C66.8057 74.2436 66.5054 75.4446 66.1301 76.6456C65.9799 77.0209 66.055 77.3212 66.4303 77.4713C67.3311 77.9217 68.2318 78.4471 69.0575 78.9726C70.1084 79.5731 70.3336 80.3237 69.7331 81.3746C68.457 83.6264 67.1059 85.9534 65.8298 88.2053C65.2293 89.2561 64.4787 89.4063 63.4278 88.8058C62.6021 88.2803 61.7014 87.83 60.8757 87.3045C60.5004 87.0793 60.2752 87.0793 59.8999 87.3796C59.0742 88.2803 58.1735 89.1811 57.1976 90.0818C56.8223 90.3821 56.8223 90.6823 57.0475 91.0576C57.573 91.9584 58.0984 92.7841 58.5488 93.6848C59.0742 94.6606 58.9241 95.4863 57.9483 96.0118C55.6213 97.3629 53.2944 98.714 50.8924 100.065C49.9916 100.591 49.241 100.365 48.7156 99.4646C48.1902 98.5639 47.6647 97.7382 47.2143 96.8374C46.9141 96.312 46.6889 96.312 46.1634 96.4621C45.0375 96.8374 43.9866 97.0626 42.8607 97.3629C42.3352 97.513 42.1101 97.6631 42.1101 98.2636C42.1851 99.1644 42.1101 100.14 42.1101 101.041C42.1101 102.392 41.5846 102.918 40.2335 102.918C38.7322 102.842 37.4562 102.842 36.1801 102.842Z" fill="#00A7E1"/>
<path d="M73.2608 11.2661C73.7862 11.7165 74.2366 12.2419 74.762 12.6923C75.3625 13.2928 75.4376 13.9684 75.0623 14.6439C74.762 15.2444 74.4618 15.8449 74.2366 16.4454C73.2608 18.8474 73.2608 18.9225 70.6336 18.9225C70.0331 18.9225 69.883 19.1477 69.883 19.7482C69.883 21.0243 69.883 22.3003 69.883 23.5764C69.883 24.2519 69.7329 25.1527 70.1082 25.6031C70.4084 25.9784 71.3842 25.7532 71.9847 25.7532C73.0356 25.8283 73.4109 26.1285 73.7862 27.0293C74.1615 28.0051 74.5369 28.9809 74.9872 29.9567C75.3626 30.8575 75.3626 31.3829 74.6119 32.1335C74.1616 32.5839 73.6361 33.0343 73.2608 33.3345C74.9872 35.061 76.4885 36.6373 78.2149 38.3637C78.6653 37.9133 79.1156 37.3128 79.6411 36.8624C80.1665 36.337 80.8421 36.262 81.5176 36.5622C82.5685 37.0126 83.6194 37.463 84.6703 37.9133C85.496 38.2136 85.8713 38.739 85.8713 39.6398C85.8713 40.3153 85.8713 40.9909 85.8713 41.7415H92.702C92.702 40.9909 92.702 40.3153 92.702 39.6398C92.702 38.664 93.0773 38.2886 93.978 37.9133C95.0289 37.538 96.0047 37.0876 96.9805 36.6373C97.7312 36.262 98.4067 36.337 99.0072 36.9375C99.5327 37.463 100.058 37.9133 100.508 38.3637C102.16 36.7123 103.736 35.2111 105.463 33.4846C104.937 33.0343 104.412 32.5839 103.886 32.1335C103.286 31.533 103.136 30.8574 103.511 30.1068C103.961 29.131 104.412 28.0801 104.787 27.1043C105.162 26.1285 105.538 25.8283 106.589 25.8283C107.264 25.8283 107.94 25.8283 108.615 25.8283V19.1477C108.54 19.0726 108.465 19.0726 108.465 19.0726C107.865 19.0726 107.264 19.0726 106.589 18.9976C105.538 18.9976 105.162 18.6973 104.787 17.7215C104.412 16.6706 103.961 15.6948 103.511 14.719C103.136 13.9684 103.211 13.2928 103.811 12.6923C104.337 12.2419 104.862 11.7916 105.312 11.4163C103.586 9.68982 102.01 8.11351 100.433 6.53719C100.433 6.53719 100.358 6.53719 100.358 6.61226C99.908 7.06263 99.4576 7.51301 99.0072 7.88832C98.2566 8.63894 97.8062 8.63894 96.8304 8.26363C95.8546 7.81326 94.8788 7.43794 93.903 7.06263C93.0022 6.68732 92.6269 6.31201 92.6269 5.26113C92.6269 4.58557 92.6269 3.91 92.6269 3.23444H85.7962C85.7962 3.98507 85.7962 4.66063 85.7962 5.26113C85.7962 6.23694 85.496 6.61226 84.5201 6.98757C83.4693 7.36288 82.4935 7.81326 81.5176 8.26363C80.6169 8.63894 80.0915 8.63894 79.4159 7.88832C78.9655 7.36288 78.5151 6.83744 78.1398 6.31201C76.4134 8.03844 74.9121 9.61476 73.2608 11.2661ZM109.291 33.7098C109.066 34.1602 108.915 34.5355 108.615 34.8358C106.363 37.0876 104.111 39.4146 101.785 41.6665C101.034 42.4171 100.283 42.342 99.5326 41.6665C99.0823 41.2161 98.6319 40.8408 98.2566 40.3904C97.8813 39.94 97.506 39.94 96.9055 40.1652C95.9296 40.4655 95.6294 40.9909 95.7795 41.8916C95.8546 42.4171 95.7795 42.9425 95.7795 43.3929C95.7045 44.2186 95.179 44.8191 94.3534 44.8191C91.0506 44.8191 87.7479 44.8191 84.3701 44.8191C83.5444 44.8191 82.9439 44.2186 82.8688 43.3178C82.8688 42.6423 82.7937 41.8916 82.8688 41.2161C82.9439 40.6156 82.6436 40.3904 82.1182 40.2403C81.5927 40.0901 81.0673 39.4896 80.4668 40.2403C80.0915 40.7657 79.566 41.2161 79.0406 41.6665C78.29 42.342 77.5393 42.342 76.7887 41.6665C74.4618 39.4146 72.2099 37.0876 69.883 34.8358C69.2074 34.1602 69.2074 33.3345 69.883 32.5839C70.3333 32.1335 70.7086 31.6831 71.159 31.3078C71.5343 30.9325 71.8346 30.6323 71.4593 30.1068C71.159 29.5063 71.084 28.7557 70.1082 28.9058C69.5077 28.9809 68.9072 28.9058 68.2316 28.9058C67.2558 28.8308 66.6553 28.3053 66.6553 27.3295C66.6553 24.1018 66.6553 20.8741 66.6553 17.6464C66.6553 16.6706 67.2558 16.1452 68.2316 16.0701C68.9072 16.0701 69.6578 15.9951 70.3334 16.0701C71.2341 16.1452 71.084 15.3195 71.4593 14.7941C71.7595 14.4188 71.6845 14.0434 71.3092 13.7432C70.7837 13.2928 70.3333 12.7674 69.8079 12.2419C69.2074 11.5664 69.1323 10.7407 69.8079 10.0651C72.1348 7.73819 74.3867 5.41125 76.7137 3.15938C77.3892 2.48382 78.1398 2.48382 78.8905 3.15938C79.4159 3.68482 79.8663 4.21025 80.4668 4.66063C80.692 4.81075 81.0673 4.88582 81.2925 4.81075C82.9438 4.13519 82.7186 4.58557 82.6436 2.85913C82.5685 0.457128 82.8688 -0.0683095 85.496 0.00675303C88.1982 0.0818156 90.9755 0.00675303 93.6778 0.00675303C94.9538 0.00675303 95.4793 0.532191 95.4793 1.80825C95.4793 2.18357 95.5544 2.63394 95.4793 3.00925C95.3292 3.91 95.7045 4.5105 96.6052 4.73569C97.1307 4.88582 97.506 4.96088 97.9564 4.5105C98.3317 3.98507 98.8571 3.60975 99.3075 3.15938C99.983 2.48382 100.809 2.48382 101.484 3.15938C103.811 5.48632 106.138 7.81326 108.465 10.1402C109.066 10.8158 109.066 11.5664 108.465 12.2419C108.015 12.7674 107.489 13.2928 106.964 13.7432C106.664 14.0434 106.589 14.3437 106.739 14.719C107.414 16.2203 106.964 15.9951 108.69 15.9951C109.216 15.9951 109.741 15.9951 110.192 16.0701C111.017 16.1452 111.543 16.7457 111.543 17.4963C111.543 20.7991 111.543 24.1018 111.543 27.4046C111.543 28.2303 111.017 28.8308 110.116 28.9058C109.441 28.9809 108.765 28.9809 108.09 28.9058C107.414 28.8308 107.114 29.131 106.889 29.7315C106.664 30.332 106.363 30.7824 107.039 31.3078C107.564 31.6831 107.94 32.1335 108.315 32.5839C108.84 32.8841 109.066 33.3345 109.291 33.7098Z" fill="#00A7E1"/>
<path d="M107.489 53.0011C103.286 53.0011 99.8327 56.3789 99.8327 60.6575C99.8327 64.861 103.286 68.3139 107.489 68.3139C111.768 68.3139 115.22 64.861 115.22 60.6575C115.145 56.454 111.693 53.0011 107.489 53.0011ZM114.019 51.9502C114.17 51.8001 114.47 51.4998 114.77 51.1996C115.446 50.6742 116.196 50.6742 116.797 51.1996C117.397 51.725 117.547 52.6258 116.872 53.2263C115.971 53.9769 116.121 54.5774 116.722 55.4782C117.247 56.3789 117.547 57.5049 117.848 58.5557C117.998 59.0061 118.148 59.1562 118.598 59.1562C118.899 59.1562 119.199 59.1562 119.499 59.2313C120.25 59.3814 120.7 59.9819 120.7 60.7325C120.7 61.4832 120.175 62.2338 119.424 62.1587C118.073 62.0086 117.773 62.8343 117.547 63.8852C117.322 64.7859 116.797 65.6867 116.346 66.5124C116.046 67.0378 115.971 67.338 116.497 67.7134C116.647 67.8635 116.797 68.0136 116.947 68.1637C117.397 68.8393 117.397 69.5899 116.797 70.1154C116.271 70.6408 115.371 70.7909 114.845 70.1904C114.019 69.2146 113.344 69.5149 112.443 70.0403C111.617 70.5657 110.642 70.866 109.666 71.0912C108.99 71.2413 108.765 71.4665 108.84 72.142C108.915 73.1929 108.465 73.7934 107.714 73.9435C106.738 74.1687 105.838 73.5682 105.913 72.5174C105.988 71.5415 105.537 71.2413 104.712 71.0161C103.586 70.7159 102.535 70.1154 101.484 69.5899C101.034 69.3647 100.808 69.3647 100.508 69.74C100.433 69.8151 100.358 69.8902 100.283 69.9652C99.4573 70.7159 98.6317 70.7909 97.9561 70.1904C97.2805 69.5899 97.3556 68.6141 98.1813 67.8635C98.6317 67.4131 98.7067 67.1129 98.4065 66.4373C97.806 65.3114 97.3556 64.1104 96.9803 62.9094C96.8302 62.459 96.68 62.2338 96.1546 62.2338C96.0045 62.2338 95.8543 62.2338 95.7042 62.2338C94.7284 62.1587 94.1279 61.5582 94.1279 60.7325C94.1279 59.9069 94.8035 59.1562 95.7793 59.2313C96.68 59.3064 96.9052 58.931 97.1304 58.1054C97.4307 56.9794 97.9561 55.9285 98.4815 54.9527C98.7818 54.3522 98.8569 53.9769 98.3314 53.6016C98.2564 53.5265 98.1813 53.5265 98.1813 53.4515C97.5808 52.7759 97.5057 51.8752 98.1062 51.2747C98.7067 50.6742 99.6075 50.5991 100.283 51.3497C100.884 52.0253 101.334 52.0253 102.085 51.5749C103.06 50.9744 104.186 50.5991 105.237 50.2988C105.838 50.1487 106.063 49.9235 106.063 49.248C106.063 48.122 106.513 47.5215 107.339 47.3714C108.315 47.2213 109.14 47.8968 109.065 48.9477C108.99 49.7734 109.291 50.0737 110.116 50.2988C111.317 50.6742 112.593 51.3497 114.019 51.9502Z" fill="#00A7E1"/>
<path d="M35.8043 45.0444C46.9886 45.1195 56.1463 53.1512 57.5725 63.8851C59.1488 75.6699 50.5916 86.7041 38.7317 87.9802C31.3006 88.8059 25.1455 86.3288 20.0412 80.9243C19.9661 80.7742 19.816 80.6991 19.7409 80.549C19.2155 79.8734 19.2155 78.9727 19.816 78.4473C20.4165 77.8468 21.3172 77.9218 21.9928 78.5223C23.419 79.7984 24.7701 81.2246 26.3464 82.2754C37.3056 89.3313 52.243 82.6508 54.4198 69.8901C56.1463 59.4564 49.2405 49.8484 38.8068 48.2721C28.6734 46.7709 18.9903 54.2771 17.8644 64.4106C17.4891 67.5632 17.9394 70.5657 19.0654 73.5682C19.2155 73.9435 19.2906 74.3939 19.2155 74.7692C19.0654 75.4448 18.5399 75.8951 17.8644 75.8951C17.0387 75.9702 16.5883 75.4448 16.2881 74.7692C14.6367 70.6408 14.1863 66.3622 15.2372 62.0086C17.3389 53.0011 24.2447 46.6207 33.4023 45.2696C34.3031 45.1195 35.2038 45.1195 35.8043 45.0444Z" fill="#00A7E1"/>
<path d="M36.1794 81.8249C28.3729 81.7498 21.9175 75.8199 21.0918 68.0134C20.3412 60.5071 25.5956 53.3762 33.1769 51.7998C35.5789 51.2744 37.9809 51.4245 40.3078 52.1001C41.4338 52.4003 41.9592 53.151 41.734 54.0517C41.5088 54.9525 40.608 55.3278 39.4821 55.0275C32.7265 53.226 26.121 57.1293 24.3946 63.8849C22.2928 72.0667 29.5738 80.0984 37.9808 78.6722C42.6347 77.9216 45.9375 75.2944 47.5889 70.8657C49.2403 66.437 48.3395 62.3086 45.337 58.7056C45.1118 58.4804 44.8866 58.2552 44.7365 57.955C44.4362 57.2794 44.5113 56.6789 45.0367 56.2285C45.5622 55.7031 46.1627 55.628 46.8383 56.0033C47.0635 56.1535 47.2135 56.3036 47.3637 56.4537C51.2669 60.9575 52.4679 66.0617 50.5163 71.6164C48.5647 77.171 44.5113 80.5488 38.6564 81.5997C37.8307 81.6747 37.0051 81.7498 36.1794 81.8249Z" fill="#00A7E1"/>
<path d="M89.324 34.4606C80.7668 34.3855 74.987 25.7533 78.2147 17.8717C78.2898 17.5715 78.4399 17.3463 78.59 17.0461C79.0404 16.2954 79.791 16.0702 80.5416 16.3705C81.2923 16.6707 81.5925 17.4964 81.3673 18.3221C81.0671 19.373 80.6167 20.4239 80.4666 21.4747C80.0913 25.1528 81.5175 28.0802 84.595 30.0319C87.6726 31.9835 90.9003 31.9835 94.0529 30.1069C97.2055 28.1553 98.6317 25.2279 98.3315 21.5498C97.806 15.6199 91.4257 11.8667 85.9461 14.1937C85.6459 14.3438 85.3456 14.4939 85.0454 14.569C84.2197 14.8692 83.4691 14.569 83.0938 13.8184C82.7185 13.1428 82.9436 12.2421 83.6943 11.9418C85.0454 11.4164 86.4716 10.8159 87.9728 10.5907C94.3531 9.76499 100.208 14.1937 101.259 20.574C102.31 26.8792 98.1063 32.9593 91.801 34.2354C90.9003 34.3104 90.0746 34.3855 89.324 34.4606Z" fill="#00A7E1"/>
<path d="M109.366 60.6574C109.366 59.6065 108.54 58.7057 107.489 58.7057C106.438 58.7057 105.462 59.5314 105.462 60.6574C105.462 61.7833 106.363 62.6841 107.414 62.609C108.54 62.609 109.366 61.7082 109.366 60.6574ZM102.46 60.5823C102.46 57.88 104.712 55.6282 107.414 55.6282C110.191 55.6282 112.443 57.8801 112.368 60.6574C112.368 63.4347 110.041 65.6866 107.339 65.6115C104.637 65.6115 102.46 63.3596 102.46 60.5823Z" fill="#00A7E1"/>
</svg>
