<svg width="93" height="64" viewBox="0 0 93 64" fill="none" xmlns="http://www.w3.org/2000/svg">
<path d="M9.57045 12.055C9.02045 12.055 8.52545 11.9303 8.08545 11.681C7.65278 11.4317 7.31178 11.087 7.06245 10.647C6.81312 10.1997 6.68845 9.68633 6.68845 9.107C6.68845 8.52033 6.81312 8.007 7.06245 7.567C7.31178 7.127 7.65278 6.786 8.08545 6.544C8.52545 6.29467 9.02045 6.17 9.57045 6.17C10.0764 6.17 10.5274 6.28367 10.9234 6.511C11.3268 6.73833 11.6458 7.072 11.8804 7.512C12.1224 7.94467 12.2434 8.47633 12.2434 9.107C12.2434 9.73033 12.1261 10.262 11.8914 10.702C11.6568 11.142 11.3378 11.4793 10.9344 11.714C10.5384 11.9413 10.0838 12.055 9.57045 12.055ZM9.62545 11.362C10.0361 11.362 10.4028 11.2703 10.7254 11.087C11.0554 10.8963 11.3121 10.6323 11.4954 10.295C11.6861 9.95033 11.7814 9.55433 11.7814 9.107C11.7814 8.65233 11.6861 8.25633 11.4954 7.919C11.3121 7.58167 11.0554 7.32133 10.7254 7.138C10.4028 6.94733 10.0361 6.852 9.62545 6.852C9.22212 6.852 8.85912 6.94733 8.53645 7.138C8.21378 7.32133 7.95712 7.58167 7.76645 7.919C7.57578 8.25633 7.48045 8.65233 7.48045 9.107C7.48045 9.55433 7.57578 9.95033 7.76645 10.295C7.95712 10.6323 8.21378 10.8963 8.53645 11.087C8.85912 11.2703 9.22212 11.362 9.62545 11.362ZM11.8034 12V10.262L11.8804 9.096L11.7704 7.93V3.838H12.5514V12H11.8034ZM14.6055 12V6.225H15.3865V12H14.6055ZM15.0015 4.949C14.8402 4.949 14.7045 4.894 14.5945 4.784C14.4845 4.674 14.4295 4.542 14.4295 4.388C14.4295 4.234 14.4845 4.10567 14.5945 4.003C14.7045 3.893 14.8402 3.838 15.0015 3.838C15.1629 3.838 15.2985 3.88933 15.4085 3.992C15.5185 4.09467 15.5735 4.223 15.5735 4.377C15.5735 4.53833 15.5185 4.674 15.4085 4.784C15.3059 4.894 15.1702 4.949 15.0015 4.949ZM18.9896 12.055C18.513 12.055 18.062 11.989 17.6366 11.857C17.2113 11.7177 16.8776 11.5453 16.6356 11.34L16.9876 10.724C17.2223 10.9 17.523 11.054 17.8896 11.186C18.2563 11.3107 18.6413 11.373 19.0446 11.373C19.5946 11.373 19.9906 11.2887 20.2326 11.12C20.4746 10.944 20.5956 10.713 20.5956 10.427C20.5956 10.2143 20.526 10.0493 20.3866 9.932C20.2546 9.80733 20.0786 9.71567 19.8586 9.657C19.6386 9.591 19.393 9.536 19.1216 9.492C18.8503 9.448 18.579 9.39667 18.3076 9.338C18.0436 9.27933 17.8016 9.195 17.5816 9.085C17.3616 8.96767 17.182 8.81 17.0426 8.612C16.9106 8.414 16.8446 8.15 16.8446 7.82C16.8446 7.50467 16.9326 7.22233 17.1086 6.973C17.2846 6.72367 17.5413 6.52933 17.8786 6.39C18.2233 6.24333 18.6413 6.17 19.1326 6.17C19.5066 6.17 19.8806 6.22133 20.2546 6.324C20.6286 6.41933 20.9366 6.54767 21.1786 6.709L20.8376 7.336C20.581 7.16 20.306 7.03533 20.0126 6.962C19.7193 6.88133 19.426 6.841 19.1326 6.841C18.612 6.841 18.227 6.93267 17.9776 7.116C17.7356 7.292 17.6146 7.51933 17.6146 7.798C17.6146 8.018 17.6806 8.19033 17.8126 8.315C17.952 8.43967 18.1316 8.53867 18.3516 8.612C18.579 8.678 18.8246 8.733 19.0886 8.777C19.36 8.821 19.6276 8.876 19.8916 8.942C20.163 9.00067 20.4086 9.085 20.6286 9.195C20.856 9.29767 21.0356 9.448 21.1676 9.646C21.307 9.83667 21.3766 10.0897 21.3766 10.405C21.3766 10.7423 21.2813 11.0357 21.0906 11.285C20.9073 11.527 20.636 11.7177 20.2766 11.857C19.9246 11.989 19.4956 12.055 18.9896 12.055ZM24.5147 12.055C23.9721 12.055 23.5541 11.9083 23.2607 11.615C22.9674 11.3217 22.8207 10.9073 22.8207 10.372V4.949H23.6017V10.328C23.6017 10.6653 23.6861 10.9257 23.8547 11.109C24.0307 11.2923 24.2801 11.384 24.6027 11.384C24.9474 11.384 25.2334 11.285 25.4607 11.087L25.7357 11.648C25.5817 11.7873 25.3947 11.89 25.1747 11.956C24.9621 12.022 24.7421 12.055 24.5147 12.055ZM21.7867 6.874V6.225H25.3617V6.874H21.7867ZM27.0365 12V6.225H27.7845V7.798L27.7075 7.523C27.8688 7.083 28.1401 6.74933 28.5215 6.522C28.9028 6.28733 29.3758 6.17 29.9405 6.17V6.929C29.9111 6.929 29.8818 6.929 29.8525 6.929C29.8231 6.92167 29.7938 6.918 29.7645 6.918C29.1558 6.918 28.6791 7.105 28.3345 7.479C27.9898 7.84567 27.8175 8.37 27.8175 9.052V12H27.0365ZM31.2446 12V6.225H32.0256V12H31.2446ZM31.6406 4.949C31.4792 4.949 31.3436 4.894 31.2336 4.784C31.1236 4.674 31.0686 4.542 31.0686 4.388C31.0686 4.234 31.1236 4.10567 31.2336 4.003C31.3436 3.893 31.4792 3.838 31.6406 3.838C31.8019 3.838 31.9376 3.88933 32.0476 3.992C32.1576 4.09467 32.2126 4.223 32.2126 4.377C32.2126 4.53833 32.1576 4.674 32.0476 4.784C31.9449 4.894 31.8092 4.949 31.6406 4.949ZM37.0587 12.055C36.5527 12.055 36.098 11.9413 35.6947 11.714C35.2913 11.4793 34.9723 11.142 34.7377 10.702C34.503 10.262 34.3857 9.73033 34.3857 9.107C34.3857 8.47633 34.503 7.94467 34.7377 7.512C34.9797 7.072 35.3023 6.73833 35.7057 6.511C36.109 6.28367 36.56 6.17 37.0587 6.17C37.6087 6.17 38.1 6.29467 38.5327 6.544C38.9727 6.786 39.3173 7.127 39.5667 7.567C39.816 8.007 39.9407 8.52033 39.9407 9.107C39.9407 9.68633 39.816 10.1997 39.5667 10.647C39.3173 11.087 38.9727 11.4317 38.5327 11.681C38.1 11.9303 37.6087 12.055 37.0587 12.055ZM34.0777 12V3.838H34.8587V7.93L34.7487 9.096L34.8257 10.262V12H34.0777ZM37.0037 11.362C37.4143 11.362 37.781 11.2703 38.1037 11.087C38.4263 10.8963 38.683 10.6323 38.8737 10.295C39.0643 9.95033 39.1597 9.55433 39.1597 9.107C39.1597 8.65233 39.0643 8.25633 38.8737 7.919C38.683 7.58167 38.4263 7.32133 38.1037 7.138C37.781 6.94733 37.4143 6.852 37.0037 6.852C36.593 6.852 36.2227 6.94733 35.8927 7.138C35.57 7.32133 35.3133 7.58167 35.1227 7.919C34.9393 8.25633 34.8477 8.65233 34.8477 9.107C34.8477 9.55433 34.9393 9.95033 35.1227 10.295C35.3133 10.6323 35.57 10.8963 35.8927 11.087C36.2227 11.2703 36.593 11.362 37.0037 11.362ZM43.7988 12.055C43.3074 12.055 42.8784 11.9633 42.5118 11.78C42.1451 11.5967 41.8591 11.3217 41.6538 10.955C41.4558 10.5883 41.3568 10.13 41.3568 9.58V6.225H42.1378V9.492C42.1378 10.108 42.2881 10.5737 42.5888 10.889C42.8968 11.197 43.3258 11.351 43.8758 11.351C44.2791 11.351 44.6274 11.2703 44.9208 11.109C45.2214 10.9403 45.4488 10.6983 45.6028 10.383C45.7641 10.0677 45.8448 9.69 45.8448 9.25V6.225H46.6258V12H45.8778V10.416L45.9988 10.702C45.8154 11.1273 45.5294 11.461 45.1408 11.703C44.7594 11.9377 44.3121 12.055 43.7988 12.055ZM48.6814 12V6.225H49.4624V12H48.6814ZM49.0774 4.949C48.916 4.949 48.7804 4.894 48.6704 4.784C48.5604 4.674 48.5054 4.542 48.5054 4.388C48.5054 4.234 48.5604 4.10567 48.6704 4.003C48.7804 3.893 48.916 3.838 49.0774 3.838C49.2387 3.838 49.3744 3.88933 49.4844 3.992C49.5944 4.09467 49.6494 4.223 49.6494 4.377C49.6494 4.53833 49.5944 4.674 49.4844 4.784C49.3817 4.894 49.246 4.949 49.0774 4.949ZM53.8135 12.055C53.2635 12.055 52.7685 11.9303 52.3285 11.681C51.8958 11.4317 51.5548 11.087 51.3055 10.647C51.0561 10.1997 50.9315 9.68633 50.9315 9.107C50.9315 8.52033 51.0561 8.007 51.3055 7.567C51.5548 7.127 51.8958 6.786 52.3285 6.544C52.7685 6.29467 53.2635 6.17 53.8135 6.17C54.3195 6.17 54.7705 6.28367 55.1665 6.511C55.5698 6.73833 55.8888 7.072 56.1235 7.512C56.3655 7.94467 56.4865 8.47633 56.4865 9.107C56.4865 9.73033 56.3691 10.262 56.1345 10.702C55.8998 11.142 55.5808 11.4793 55.1775 11.714C54.7815 11.9413 54.3268 12.055 53.8135 12.055ZM53.8685 11.362C54.2791 11.362 54.6458 11.2703 54.9685 11.087C55.2985 10.8963 55.5551 10.6323 55.7385 10.295C55.9291 9.95033 56.0245 9.55433 56.0245 9.107C56.0245 8.65233 55.9291 8.25633 55.7385 7.919C55.5551 7.58167 55.2985 7.32133 54.9685 7.138C54.6458 6.94733 54.2791 6.852 53.8685 6.852C53.4651 6.852 53.1021 6.94733 52.7795 7.138C52.4568 7.32133 52.2001 7.58167 52.0095 7.919C51.8188 8.25633 51.7235 8.65233 51.7235 9.107C51.7235 9.55433 51.8188 9.95033 52.0095 10.295C52.2001 10.6323 52.4568 10.8963 52.7795 11.087C53.1021 11.2703 53.4651 11.362 53.8685 11.362ZM56.0465 12V10.262L56.1235 9.096L56.0135 7.93V3.838H56.7945V12H56.0465ZM61.2026 12.055C60.6452 12.055 60.1429 11.9303 59.6956 11.681C59.2556 11.4243 58.9072 11.076 58.6506 10.636C58.3939 10.1887 58.2656 9.679 58.2656 9.107C58.2656 8.52767 58.3939 8.018 58.6506 7.578C58.9072 7.138 59.2556 6.79333 59.6956 6.544C60.1356 6.29467 60.6379 6.17 61.2026 6.17C61.7746 6.17 62.2806 6.29467 62.7206 6.544C63.1679 6.79333 63.5162 7.138 63.7656 7.578C64.0222 8.018 64.1506 8.52767 64.1506 9.107C64.1506 9.679 64.0222 10.1887 63.7656 10.636C63.5162 11.076 63.1679 11.4243 62.7206 11.681C62.2732 11.9303 61.7672 12.055 61.2026 12.055ZM61.2026 11.362C61.6206 11.362 61.9909 11.2703 62.3136 11.087C62.6362 10.8963 62.8892 10.6323 63.0726 10.295C63.2632 9.95033 63.3586 9.55433 63.3586 9.107C63.3586 8.65233 63.2632 8.25633 63.0726 7.919C62.8892 7.58167 62.6362 7.32133 62.3136 7.138C61.9909 6.94733 61.6242 6.852 61.2136 6.852C60.8029 6.852 60.4362 6.94733 60.1136 7.138C59.7909 7.32133 59.5342 7.58167 59.3436 7.919C59.1529 8.25633 59.0576 8.65233 59.0576 9.107C59.0576 9.55433 59.1529 9.95033 59.3436 10.295C59.5342 10.6323 59.7909 10.8963 60.1136 11.087C60.4362 11.2703 60.7992 11.362 61.2026 11.362ZM71.3629 12.055C70.8643 12.055 70.4133 11.9413 70.0099 11.714C69.6066 11.4793 69.2839 11.1457 69.0419 10.713C68.8073 10.273 68.6899 9.73767 68.6899 9.107C68.6899 8.47633 68.8073 7.94467 69.0419 7.512C69.2766 7.072 69.5956 6.73833 69.9989 6.511C70.4023 6.28367 70.8569 6.17 71.3629 6.17C71.9129 6.17 72.4043 6.29467 72.8369 6.544C73.2769 6.786 73.6216 7.13067 73.871 7.578C74.1203 8.018 74.2449 8.52767 74.2449 9.107C74.2449 9.69367 74.1203 10.207 73.871 10.647C73.6216 11.087 73.2769 11.4317 72.8369 11.681C72.4043 11.9303 71.9129 12.055 71.3629 12.055ZM68.3819 14.134V6.225H69.1299V7.963L69.0529 9.118L69.1629 10.284V14.134H68.3819ZM71.3079 11.362C71.7186 11.362 72.0853 11.2703 72.408 11.087C72.7306 10.8963 72.9873 10.6323 73.1779 10.295C73.3686 9.95033 73.464 9.55433 73.464 9.107C73.464 8.65967 73.3686 8.26733 73.1779 7.93C72.9873 7.59267 72.7306 7.32867 72.408 7.138C72.0853 6.94733 71.7186 6.852 71.3079 6.852C70.8973 6.852 70.5269 6.94733 70.1969 7.138C69.8743 7.32867 69.6176 7.59267 69.4269 7.93C69.2436 8.26733 69.1519 8.65967 69.1519 9.107C69.1519 9.55433 69.2436 9.95033 69.4269 10.295C69.6176 10.6323 69.8743 10.8963 70.1969 11.087C70.5269 11.2703 70.8973 11.362 71.3079 11.362ZM78.07 12.055C77.5127 12.055 77.0104 11.9303 76.563 11.681C76.123 11.4243 75.7747 11.076 75.518 10.636C75.2614 10.1887 75.133 9.679 75.133 9.107C75.133 8.52767 75.2614 8.018 75.518 7.578C75.7747 7.138 76.123 6.79333 76.563 6.544C77.003 6.29467 77.5054 6.17 78.07 6.17C78.642 6.17 79.148 6.29467 79.588 6.544C80.0354 6.79333 80.3837 7.138 80.633 7.578C80.8897 8.018 81.018 8.52767 81.018 9.107C81.018 9.679 80.8897 10.1887 80.633 10.636C80.3837 11.076 80.0354 11.4243 79.588 11.681C79.1407 11.9303 78.6347 12.055 78.07 12.055ZM78.07 11.362C78.488 11.362 78.8584 11.2703 79.181 11.087C79.5037 10.8963 79.7567 10.6323 79.94 10.295C80.1307 9.95033 80.226 9.55433 80.226 9.107C80.226 8.65233 80.1307 8.25633 79.94 7.919C79.7567 7.58167 79.5037 7.32133 79.181 7.138C78.8584 6.94733 78.4917 6.852 78.081 6.852C77.6704 6.852 77.3037 6.94733 76.981 7.138C76.6584 7.32133 76.4017 7.58167 76.211 7.919C76.0204 8.25633 75.925 8.65233 75.925 9.107C75.925 9.55433 76.0204 9.95033 76.211 10.295C76.4017 10.6323 76.6584 10.8963 76.981 11.087C77.3037 11.2703 77.6667 11.362 78.07 11.362ZM82.4915 12V6.225H83.2395V7.798L83.1625 7.523C83.3238 7.083 83.5952 6.74933 83.9765 6.522C84.3578 6.28733 84.8308 6.17 85.3955 6.17V6.929C85.3662 6.929 85.3368 6.929 85.3075 6.929C85.2782 6.92167 85.2488 6.918 85.2195 6.918C84.6108 6.918 84.1342 7.105 83.7895 7.479C83.4448 7.84567 83.2725 8.37 83.2725 9.052V12H82.4915Z" fill="white"/>
<g clip-path="url(#clip0_2611_2904)">
<path d="M23.5623 34.8104C23.5623 33.0365 23.0232 31.4479 21.853 30.2698C20.3672 28.7739 17.9347 27.9531 14.2531 27.9531H4.18125L2.7612 33.288H10.6635H11.7811H13.977C15.2655 33.288 16.1859 33.5395 16.6856 34.0558C17.0669 34.4662 17.251 34.9427 17.251 35.5517C17.251 37.458 15.4496 38.6361 12.7015 38.6361H9.21716L10.2296 34.8898H4.07606L0 50.1928H6.15354L7.9549 43.4547H10.6635L13.5956 50.1928H20.354L16.9485 42.7002C21.4585 41.4558 23.5623 38.5302 23.5623 34.8104Z" fill="white"/>
<path d="M22.5498 50.193L26.7442 34.4663H31.5303C32.1351 34.4663 32.5822 35.0488 32.4244 35.6312L28.5456 50.193H22.5498Z" fill="white"/>
<path d="M81.574 50.193L85.7684 34.4663H90.5545C91.1593 34.4663 91.6064 35.0488 91.4486 35.6312L87.5697 50.193H81.574Z" fill="white"/>
<path d="M38.5517 47.8365L37.9206 50.1928H31.9248L38.0783 27H42.8776C43.4824 27 43.9295 27.5825 43.7717 28.1649L41.9835 34.8104C43.3378 33.4733 44.9814 32.6129 46.8485 32.6129C50.2276 32.6129 52.91 35.2208 52.91 39.6687C52.91 45.8376 48.6235 50.5635 43.7322 50.5635C41.1683 50.5635 39.5904 49.4515 38.5517 47.8365ZM46.8485 40.6218C46.8485 38.7818 45.6782 37.6036 43.9426 37.6036C41.6416 37.6036 39.7088 39.8937 39.7088 42.5016C39.7088 44.3417 40.9447 45.5463 42.6804 45.5463C44.9288 45.5463 46.8485 43.3621 46.8485 40.6218Z" fill="white"/>
<path d="M53.8171 45.864C53.8171 42.0779 56.815 39.801 61.325 39.801C62.8765 39.801 64.2966 40.0525 65.6509 40.4629L65.7166 40.2379C65.7824 39.9466 65.8744 39.6024 65.8744 39.1921C65.8744 38.0801 65.0197 37.352 62.9423 37.352C61.3381 37.352 59.5368 37.7359 58.3403 38.2125L57.4856 33.8307C59.287 33.1953 61.7457 32.7849 64.2045 32.7849C69.3193 32.7849 71.8044 34.8236 71.8044 38.2522C71.8044 39.0465 71.6729 39.8672 71.4625 40.7277L68.938 50.1928H63.0343L63.5076 48.3527C62.0613 49.7162 60.5755 50.5502 58.5901 50.5502C55.7763 50.537 53.8171 48.7234 53.8171 45.864ZM64.862 43.7062L65.0197 43.137C64.3623 42.9119 63.5997 42.7531 62.7845 42.7531C60.8911 42.7531 59.6551 43.6797 59.6551 45.2286C59.6551 46.2082 60.352 46.8171 61.3644 46.8171C62.9028 46.8171 64.3886 45.4536 64.862 43.7062Z" fill="white"/>
<path d="M78.2736 27H83.0596C83.6645 27 84.1115 27.5825 83.9537 28.1649L78.0763 50.1796H72.0806L78.2736 27Z" fill="white"/>
<path d="M33.3317 32.2819L33.9497 30.0183C34.1075 29.4226 33.6736 28.8401 33.0556 28.8401H28.2563L33.3317 32.2819Z" fill="white"/>
<path d="M87.2803 28.8401L92.3556 32.2688L92.9736 30.0051C93.1314 29.4094 92.6975 28.8269 92.0795 28.8269H87.2803V28.8401Z" fill="white"/>
<path d="M12.6883 63.9603C12.4122 63.9338 12.1755 63.8941 11.9915 63.8544L12.0966 63.2057C12.5043 63.2454 13.0039 63.2586 13.5693 63.2586C13.8849 63.2586 14.1084 63.2189 14.2662 63.1395C14.4239 63.0601 14.516 62.9012 14.5423 62.6894L14.5686 62.4644C14.5817 62.4247 14.5817 62.3717 14.5817 62.3055C14.5817 62.1599 14.5291 62.0672 14.4371 62.001C14.3451 61.9349 14.1873 61.9084 13.9769 61.9084H13.5167C13.1617 61.9084 12.8987 61.8157 12.7015 61.6436C12.5043 61.4715 12.4122 61.2332 12.4122 60.9288C12.4122 60.8361 12.4122 60.7434 12.4254 60.6508L12.4911 60.2404C12.5568 59.7903 12.7409 59.4726 13.017 59.2873C13.2932 59.1019 13.6745 59.0093 14.161 59.0093C14.3714 59.0093 14.6212 59.0225 14.8973 59.049C15.1734 59.0755 15.4232 59.1152 15.6336 59.1549L15.5284 59.8036C15.134 59.7638 14.6475 59.7506 14.0689 59.7506C13.8191 59.7506 13.635 59.7903 13.5035 59.8697C13.3721 59.9492 13.2932 60.108 13.2537 60.3198L13.2274 60.5449C13.2143 60.5978 13.2011 60.664 13.2011 60.717C13.2011 60.8626 13.2406 60.9553 13.3195 61.0214C13.3984 61.0744 13.5298 61.1141 13.7008 61.1141H14.1873C14.5686 61.1141 14.871 61.2068 15.0682 61.3789C15.2655 61.551 15.3706 61.7892 15.3706 62.0937C15.3706 62.1731 15.3706 62.2658 15.3575 62.3585L15.2786 62.8218C15.2129 63.2322 15.0551 63.5366 14.779 63.722C14.5028 63.9073 14.0952 64 13.5561 64C13.2669 64 12.9645 63.9867 12.6883 63.9603Z" fill="white"/>
<path d="M17.7637 59.0623H18.5263L19.118 62.9542L20.9325 59.0623H21.6952L21.4979 63.9471H20.709L20.8668 60.5317L19.3416 63.9471H18.5789L18.1319 60.5581L17.2246 63.9471H16.4094L17.7637 59.0623Z" fill="white"/>
<path d="M25.035 59.0623H26.0605L26.8495 63.9471H26.008L25.8239 62.7954H24.062L23.5097 63.9471H22.6682L25.035 59.0623ZM25.745 62.0673L25.4294 59.7771L24.3644 62.0673H25.745Z" fill="white"/>
<path d="M29.0189 59.0623H30.8466C31.6881 59.0623 32.1089 59.4594 32.1089 60.2404C32.1089 60.3463 32.0957 60.492 32.0694 60.664C32.0037 61.0877 31.8722 61.3921 31.6881 61.5642C31.504 61.7363 31.2936 61.8687 31.057 61.9349L31.6749 63.9471H30.8466L30.3075 62.0673L29.3608 62.054L29.0584 63.9603H28.2432L29.0189 59.0623ZM30.4258 61.4186C30.6625 61.4186 30.8466 61.3657 30.9781 61.2465C31.1096 61.1274 31.2016 60.9156 31.2542 60.6111C31.2673 60.5581 31.2673 60.4787 31.2673 60.3728C31.2673 60.0021 31.0701 59.8036 30.6757 59.8036H29.7158L29.466 61.4186H30.4258Z" fill="white"/>
<path d="M34.9489 59.8036H33.542L33.6603 59.0623H37.2762L37.1579 59.8036H35.7641L35.1067 63.9603H34.2915L34.9489 59.8036Z" fill="white"/>
<path d="M41.0367 63.9602C40.7606 63.9337 40.5239 63.894 40.3398 63.8543L40.445 63.2056C40.8526 63.2454 41.3523 63.2586 41.9177 63.2586C42.2332 63.2586 42.4568 63.2189 42.6145 63.1395C42.7723 63.06 42.8644 62.9012 42.8907 62.6894L42.917 62.4643C42.9301 62.4246 42.9301 62.3717 42.9301 62.3055C42.9301 62.1598 42.8775 62.0672 42.7855 62.001C42.6934 61.9348 42.5357 61.9083 42.3253 61.9083H41.8651C41.5101 61.9083 41.2471 61.8157 41.0499 61.6436C40.8658 61.4847 40.7606 61.2464 40.7606 60.942C40.7606 60.8493 40.7606 60.7566 40.7737 60.664L40.8395 60.2536C40.9052 59.8035 41.0893 59.4858 41.3654 59.3005C41.6416 59.1151 42.0229 59.0225 42.5094 59.0225C42.7197 59.0225 42.9696 59.0357 43.2457 59.0622C43.5218 59.0886 43.7716 59.1284 43.982 59.1681L43.8768 59.8167C43.4824 59.777 42.9959 59.7638 42.4173 59.7638C42.1675 59.7638 41.9834 59.8035 41.8519 59.8829C41.7204 59.9624 41.6416 60.1212 41.6021 60.333L41.5758 60.5581C41.5627 60.611 41.5495 60.6772 41.5495 60.7302C41.5495 60.8758 41.589 60.9684 41.6679 61.0346C41.7467 61.0876 41.8782 61.1273 42.0492 61.1273H42.5357C42.917 61.1273 43.2194 61.22 43.4166 61.392C43.6138 61.5641 43.719 61.8024 43.719 62.1069C43.719 62.1863 43.719 62.279 43.7059 62.3717L43.627 62.835C43.5612 63.2454 43.4035 63.5498 43.1273 63.7352C42.8512 63.9205 42.4436 64.0132 41.9045 64.0132C41.6153 63.9999 41.326 63.9867 41.0367 63.9602Z" fill="white"/>
<path d="M45.8359 63.8676C45.5992 63.7882 45.4151 63.6293 45.2837 63.4043C45.1522 63.1792 45.0864 62.8748 45.0864 62.4644C45.0864 62.1864 45.1127 61.829 45.1916 61.3789C45.2837 60.7567 45.4283 60.2801 45.6255 59.9359C45.8096 59.5917 46.0594 59.3535 46.3618 59.2211C46.6643 59.0887 47.0587 59.0093 47.5321 59.0093C47.8871 59.0093 48.1763 59.049 48.413 59.1417C48.6497 59.2343 48.8338 59.3932 48.9653 59.6182C49.0967 59.8433 49.1625 60.1742 49.1625 60.5978C49.1625 60.9023 49.1362 61.2597 49.0573 61.6701C48.9521 62.3055 48.8075 62.7821 48.6234 63.113C48.4393 63.444 48.1895 63.669 47.9002 63.8014C47.5978 63.9205 47.2165 63.9867 46.73 63.9867C46.3618 64 46.0726 63.9603 45.8359 63.8676ZM47.5584 63.0998C47.7293 62.9939 47.8739 62.8218 47.9791 62.5835C48.0843 62.3452 48.1763 62.001 48.2421 61.5642C48.3078 61.1671 48.3341 60.8493 48.3341 60.6111C48.3341 60.386 48.2947 60.2007 48.2289 60.0815C48.1632 59.9624 48.058 59.8697 47.9265 59.83C47.795 59.7903 47.611 59.7638 47.4006 59.7638C47.1113 59.7638 46.8746 59.8168 46.7037 59.9095C46.5328 60.0021 46.3881 60.1742 46.2698 60.4257C46.1515 60.6773 46.0594 61.0479 45.9937 61.5245C45.9279 61.9349 45.8885 62.2393 45.8885 62.4511C45.8885 62.6629 45.9148 62.835 45.9937 62.9542C46.0726 63.0733 46.1646 63.1527 46.2961 63.1925C46.4276 63.2322 46.6117 63.2587 46.8483 63.2587C47.1508 63.2587 47.3743 63.2057 47.5584 63.0998Z" fill="white"/>
<path d="M50.3984 63.1263C50.3984 63.0336 50.4116 62.941 50.4116 62.8351L51.0033 59.0623H51.8185L51.2399 62.7292C51.2268 62.7689 51.2268 62.8086 51.2268 62.8748C51.2268 62.9939 51.2662 63.0866 51.332 63.1395C51.4109 63.1925 51.5029 63.219 51.6475 63.219H53.2517L53.1333 63.9603H51.3057C50.7009 63.9603 50.3984 63.6823 50.3984 63.1263Z" fill="white"/>
<path d="M55.0664 63.6558C54.8034 63.4308 54.6851 63.0601 54.6851 62.5571C54.6851 62.332 54.7114 62.0408 54.7771 61.7098L55.1979 59.0623H56.0131L55.5792 61.829C55.5397 62.1599 55.5134 62.3717 55.5134 62.4909C55.5134 62.7556 55.5792 62.9542 55.7238 63.0733C55.8553 63.1925 56.0788 63.2587 56.3681 63.2587C56.6048 63.2587 56.802 63.219 56.9598 63.1395C57.1175 63.0601 57.249 62.9277 57.3542 62.7159C57.4594 62.5041 57.5383 62.2129 57.604 61.829L58.0379 59.0623H58.8532L58.393 61.9481C58.3009 62.5174 58.1694 62.941 57.9854 63.2322C57.8013 63.5234 57.5778 63.722 57.3016 63.8279C57.0255 63.9338 56.6836 63.9868 56.2629 63.9868C55.7106 64 55.3162 63.8809 55.0664 63.6558Z" fill="white"/>
<path d="M61.4828 59.8036H60.0759L60.1943 59.0623H63.8101L63.6918 59.8036H62.2849L61.6275 63.9603H60.8123L61.4828 59.8036Z" fill="white"/>
<path d="M65.2565 59.0623H66.0717L65.2959 63.9471H64.4807L65.2565 59.0623Z" fill="white"/>
<path d="M67.8994 63.8676C67.6627 63.7882 67.4786 63.6293 67.3471 63.4043C67.2156 63.1792 67.1499 62.8748 67.1499 62.4644C67.1499 62.1864 67.1762 61.829 67.2551 61.3789C67.3471 60.7567 67.4918 60.2801 67.689 59.9359C67.8731 59.5917 68.1229 59.3535 68.4253 59.2211C68.7277 59.0887 69.1222 59.0093 69.5955 59.0093C69.9506 59.0093 70.2398 59.049 70.4765 59.1417C70.7132 59.2343 70.8973 59.3932 71.0287 59.6182C71.1602 59.8433 71.226 60.1742 71.226 60.5978C71.226 60.9023 71.1997 61.2597 71.1208 61.6701C71.0156 62.3055 70.871 62.7821 70.6869 63.113C70.5028 63.444 70.253 63.669 69.9637 63.8014C69.6744 63.9338 69.28 63.9867 68.7935 63.9867C68.4385 64 68.136 63.9603 67.8994 63.8676ZM69.6218 63.0998C69.7928 62.9939 69.9374 62.8218 70.0426 62.5835C70.1478 62.3452 70.2398 62.001 70.3056 61.5642C70.3713 61.1671 70.3976 60.8493 70.3976 60.6111C70.3976 60.386 70.3582 60.2007 70.2924 60.0815C70.2267 59.9624 70.1215 59.8697 69.99 59.83C69.8585 59.7903 69.6744 59.7638 69.4641 59.7638C69.1748 59.7638 68.9381 59.8168 68.7672 59.9095C68.5962 60.0021 68.4516 60.1742 68.3333 60.4257C68.2149 60.6773 68.1229 61.0479 68.0572 61.5245C67.9914 61.9349 67.952 62.2393 67.952 62.4511C67.952 62.6629 67.9783 62.835 68.0572 62.9542C68.136 63.0733 68.2412 63.1395 68.3727 63.1925C68.5042 63.2322 68.6883 63.2587 68.925 63.2587C69.2142 63.2587 69.4509 63.2057 69.6218 63.0998Z" fill="white"/>
<path d="M73.0797 59.0623H73.7372L75.3939 62.5571L75.9461 59.0623H76.7613L75.9856 63.9471H75.3281L73.6714 60.439L73.1192 63.9471H72.304L73.0797 59.0623Z" fill="white"/>
<path d="M78.2867 63.9603C78.0106 63.9338 77.7739 63.8941 77.5898 63.8544L77.695 63.2057C78.1026 63.2454 78.6023 63.2586 79.1677 63.2586C79.4832 63.2586 79.7068 63.2189 79.8646 63.1395C80.0223 63.0601 80.1144 62.9012 80.1407 62.6894L80.167 62.4644C80.1801 62.4247 80.1801 62.3717 80.1801 62.3055C80.1801 62.1599 80.1275 62.0672 80.0355 62.001C79.9434 61.9349 79.7857 61.9084 79.5753 61.9084H79.1151C78.7601 61.9084 78.4971 61.8157 78.2999 61.6436C78.1026 61.4715 78.0106 61.2332 78.0106 60.9288C78.0106 60.8361 78.0106 60.7434 78.0237 60.6508L78.0895 60.2404C78.1552 59.7903 78.3393 59.4726 78.6154 59.2873C78.8916 59.1019 79.2729 59.0093 79.7594 59.0093C79.9697 59.0093 80.2196 59.0225 80.4957 59.049C80.7718 59.0755 81.0216 59.1152 81.232 59.1549L81.1268 59.8036C80.7324 59.7638 80.2459 59.7506 79.6673 59.7506C79.4175 59.7506 79.2334 59.7903 79.1019 59.8697C78.9704 59.9492 78.8916 60.108 78.8521 60.3198L78.8258 60.5449C78.8127 60.5978 78.7995 60.664 78.7995 60.717C78.7995 60.8626 78.839 60.9553 78.9179 61.0214C78.9967 61.0744 79.1282 61.1141 79.2992 61.1141H79.7857C80.167 61.1141 80.4694 61.2068 80.6666 61.3789C80.8638 61.551 80.969 61.7892 80.969 62.0937C80.969 62.1731 80.969 62.2658 80.9559 62.3585L80.877 62.8218C80.8112 63.2322 80.6535 63.5366 80.3773 63.722C80.1012 63.9073 79.6936 64 79.1545 64C78.8653 64 78.576 63.9867 78.2867 63.9603Z" fill="white"/>
</g>
<defs>
<clipPath id="clip0_2611_2904">
<rect width="93" height="37" fill="white" transform="translate(0 27)"/>
</clipPath>
</defs>
</svg>
